<svg width="179" height="73" viewBox="0 0 179 73" fill="none" xmlns="http://www.w3.org/2000/svg">
<mask id="path-1-outside-1_370_1468" maskUnits="userSpaceOnUse" x="0.850037" y="54.7213" width="177" height="18" fill="black">
<rect fill="white" x="0.850037" y="54.7213" width="177" height="18"/>
<path d="M11.079 64.1972H10.8066C10.358 66.7769 7.52202 67.2736 6.43249 67.3857V67.6741H11.079V64.1972ZM5.43909 58.0926C5.43909 56.939 6.24022 56.6666 6.92919 56.6666V56.3942H1.85004V56.6666C2.53901 56.6666 3.11582 57.1153 3.11582 58.0926V65.6072C3.11582 66.6968 2.66719 67.4017 1.97822 67.4017V67.6741H5.43909V58.0926Z"/>
<path d="M16.7188 66.4564C15.6453 66.2161 14.8442 65.3989 14.716 63.8287H19.8112C19.8112 61.4414 18.8018 60.2397 16.6708 60.1435V60.4159C17.3758 60.6883 17.8564 61.8419 17.8564 63.5563H14.716C14.716 62.1944 15.2287 60.7203 16.0138 60.4159V60.1595C14.011 60.3198 12.6491 61.89 12.6491 64.005C12.6491 65.8796 14.0911 67.8183 16.1901 67.8183C18.3371 67.8183 19.2824 66.5526 19.5388 65.7194L19.2664 65.5752C18.8659 66.3282 17.5841 66.6487 16.7188 66.4564Z"/>
<path d="M23.1345 62.8193C23.5511 62.5309 23.6632 61.9701 23.3748 61.5535C23.2306 61.3452 23.0223 61.2331 22.782 61.201C22.7019 61.201 22.7179 61.0408 22.9582 60.8485L22.8461 60.5922C22.1571 61.0087 21.9648 61.3773 21.8206 61.6176C21.6604 61.89 21.6764 62.2745 21.8687 62.579C22.1571 62.9955 22.7179 63.0917 23.1345 62.8193ZM28.0694 66.841C27.2843 66.841 27.3004 65.7194 27.3004 65.7194V63.332C27.3004 61.4414 26.7235 60.1275 24.6246 60.1275C24.6246 60.1275 24.0478 60.0955 23.4389 60.3038L23.5511 60.5441C24.5124 60.2557 25.2815 61.0728 25.2815 62.579V63.5724C22.4776 64.2773 21.1317 64.4376 21.1317 66.184C21.1317 67.8183 22.9743 67.8183 22.9743 67.8183C23.7594 67.8183 24.4483 67.4338 24.881 67.0332L24.6887 66.7608C24.5605 66.8249 24.4003 66.841 24.224 66.841C23.1826 66.841 23.1826 65.7835 23.1826 65.7835C23.1826 64.9663 23.7113 64.2133 25.2815 63.8608V66.3763C25.2815 67.8183 26.8998 67.8183 26.8998 67.8183C27.9092 67.8183 28.6463 67.1935 28.7744 66.6807L28.5021 66.5686C28.4059 66.841 28.0694 66.841 28.0694 66.841Z"/>
<path d="M33.2342 66.6807C32.4331 66.6807 32.0485 66.2161 32.0485 65.3188V60.5441H33.8911L33.9552 60.2717H32.0485V57.7882L30.0457 58.1247V60.2717H29.1965L29.2446 60.5441H30.0457V65.3669C30.0457 67.3056 30.7988 67.8183 32.0646 67.8183C33.1381 67.8183 34.1155 67.0172 34.4359 66.2641L34.1956 66.1199C34.0514 66.3603 33.6989 66.6807 33.2342 66.6807Z"/>
<path d="M37.6487 65.7034V55.7213L34.8447 56.3942V56.6666C35.4856 56.907 35.6459 57.0672 35.6459 57.628V65.7034C35.6459 66.5205 35.6138 67.2095 35.005 67.3857V67.6741H38.3056V67.3857C37.7288 67.2415 37.6487 66.5846 37.6487 65.7034ZM42.3112 65.7034V62.611C42.3112 60.6883 41.5742 60.1275 40.2924 60.1275C39.5073 60.1275 38.5139 60.6723 37.9691 61.3132L38.1774 61.6496C38.4338 61.4414 38.7222 61.3292 38.9785 61.3292C39.9079 61.3292 40.3244 61.7618 40.3244 62.6751V65.7034C40.3244 66.5205 40.2924 67.2255 39.6835 67.4017V67.6741H42.9682V67.4017C42.4074 67.2575 42.3112 66.5846 42.3112 65.7034Z"/>
<path d="M47.8721 66.4564C46.7986 66.2161 45.9974 65.3989 45.8692 63.8287H50.9644C50.9644 61.4414 49.955 60.2397 47.824 60.1435V60.4159C48.529 60.6883 49.0097 61.8419 49.0097 63.5563H45.8692C45.8692 62.1944 46.382 60.7203 47.1671 60.4159V60.1595C45.1643 60.3198 43.8023 61.89 43.8023 64.005C43.8023 65.8796 45.2444 67.8183 47.3433 67.8183C49.4903 67.8183 50.4357 66.5526 50.692 65.7194L50.4197 65.5752C50.0191 66.3282 48.7373 66.6487 47.8721 66.4564Z"/>
<path d="M54.6723 65.7194V60.1275L51.8523 60.7684V61.0408C52.5092 61.3773 52.6534 61.6176 52.6534 62.1624V65.7194C52.6534 66.5526 52.6374 67.2095 52.0125 67.4017V67.6741H55.3292V67.4017C54.7524 67.2415 54.6723 66.6166 54.6723 65.7194ZM56.5629 60.2076C56.2265 60.3518 55.6977 60.5441 55.0087 61.4574L55.169 61.6817C55.5695 61.3132 55.922 61.3132 55.922 61.4414C55.922 61.7298 56.0502 62.0021 56.2905 62.2265C56.8033 62.6591 57.5403 62.595 57.9729 62.0983C58.4055 61.6176 58.3575 60.8485 57.8608 60.4159C57.5083 60.1275 56.8994 60.0634 56.5629 60.2076Z"/>
<path d="M72.5286 64.3094C72.1441 65.8956 71.0225 67.2736 69.3722 67.5139V67.8023C70.8303 67.7703 71.9518 67.5299 73.0253 66.8249L72.801 64.3094H72.5286ZM69.3722 56.5545C70.8783 56.7467 71.7115 57.7882 72.5286 59.743H72.801L73.0253 57.2274C72.1121 56.4904 70.8142 56.2981 69.3722 56.25V56.5545ZM63.3157 62.0342C63.3157 65.0625 65.2384 67.562 68.3788 67.8023V67.5139C66.9528 67.2896 66.1997 65.9918 66.1997 62.0342C66.1997 58.0766 66.9207 56.7788 68.3788 56.5545V56.2661C65.2384 56.5064 63.3157 59.0059 63.3157 62.0342Z"/>
<path d="M76.7189 65.7194V60.1275L73.8989 60.7684V61.0408C74.5559 61.3773 74.7001 61.6176 74.7001 62.1624V65.7194C74.7001 66.5526 74.6841 67.2095 74.0592 67.4017V67.6741H77.3758V67.4017C76.799 67.2415 76.7189 66.6166 76.7189 65.7194ZM78.6096 60.2076C78.2731 60.3518 77.7444 60.5441 77.0554 61.4574L77.2156 61.6817C77.6162 61.3132 77.9687 61.3132 77.9687 61.4414C77.9687 61.7298 78.0969 62.0021 78.3372 62.2265C78.8499 62.6591 79.587 62.595 80.0196 62.0983C80.4522 61.6176 80.4041 60.8485 79.9074 60.4159C79.5549 60.1275 78.9461 60.0634 78.6096 60.2076Z"/>
<path d="M82.7497 62.8193C83.1662 62.5309 83.2784 61.9701 82.99 61.5535C82.8458 61.3452 82.6375 61.2331 82.3972 61.201C82.317 61.201 82.3331 61.0408 82.5734 60.8485L82.4613 60.5922C81.7723 61.0087 81.58 61.3773 81.4358 61.6176C81.2756 61.89 81.2916 62.2745 81.4839 62.579C81.7723 62.9955 82.3331 63.0917 82.7497 62.8193ZM87.6846 66.841C86.8995 66.841 86.9155 65.7194 86.9155 65.7194V63.332C86.9155 61.4414 86.3387 60.1275 84.2398 60.1275C84.2398 60.1275 83.6629 60.0955 83.0541 60.3038L83.1662 60.5441C84.1276 60.2557 84.8967 61.0728 84.8967 62.579V63.5724C82.0927 64.2773 80.7468 64.4376 80.7468 66.184C80.7468 67.8183 82.5894 67.8183 82.5894 67.8183C83.3745 67.8183 84.0635 67.4338 84.4961 67.0332L84.3038 66.7608C84.1757 66.8249 84.0154 66.841 83.8392 66.841C82.7977 66.841 82.7977 65.7835 82.7977 65.7835C82.7977 64.9663 83.3265 64.2133 84.8967 63.8608V66.3763C84.8967 67.8183 86.515 67.8183 86.515 67.8183C87.5244 67.8183 88.2614 67.1935 88.3896 66.6807L88.1172 66.5686C88.0211 66.841 87.6846 66.841 87.6846 66.841Z"/>
<path d="M93.0897 55.7694V56.0418C93.4422 56.1219 93.5704 56.3141 93.3781 56.3462C93.1378 56.3942 92.9295 56.5384 92.8173 56.7788C92.577 57.2595 92.7693 57.8203 93.2499 58.0606C93.7146 58.2849 94.2914 58.0926 94.5317 57.628C94.692 57.2915 94.6439 56.8269 94.4516 56.5384C94.3074 56.2981 93.7947 55.8815 93.0897 55.7694ZM92.4328 56.0257V55.7533C90.7024 55.8335 89.773 56.7788 89.773 60.2717H88.7316L88.7476 60.5441H89.773V65.8636C89.773 66.6807 89.757 67.2255 89.1482 67.4017V67.6741H92.4328V67.4017C91.856 67.2415 91.7759 66.7448 91.7759 65.8636V60.5441H93.4422L93.4903 60.2717H91.7759C91.7759 57.628 92.0162 56.3782 92.4328 56.0257Z"/>
<path d="M98.2007 66.6807C97.3995 66.6807 97.015 66.2161 97.015 65.3188V60.5441H98.8576L98.9217 60.2717H97.015V57.7882L95.0122 58.1247V60.2717H94.163L94.211 60.5441H95.0122V65.3669C95.0122 67.3056 95.7652 67.8183 97.031 67.8183C98.1045 67.8183 99.0819 67.0172 99.4023 66.2641L99.162 66.1199C99.0178 66.3603 98.6653 66.6807 98.2007 66.6807Z"/>
<path d="M107.941 56.6666V56.3942H102.83V56.6666C103.247 56.6666 103.792 56.6666 104.304 57.9645L108.326 67.6741H108.598L109.672 64.742L107.22 58.5252C107.22 58.5252 106.532 56.6666 107.941 56.6666ZM113.742 56.6666V56.3942H108.63V56.6666C109.047 56.6666 109.608 56.6666 110.105 57.9645L114.03 67.6741H114.302L115.424 64.774L113.021 58.5252C113.021 58.5252 112.3 56.6666 113.742 56.6666ZM115.616 56.6666C118.34 56.6666 116.818 60.4159 116.818 60.4159L117.074 60.496C118.548 57.0512 119.606 56.6666 120.343 56.6666V56.3942H115.616V56.6666Z"/>
<path d="M127.397 63.9729C127.397 61.9541 126.147 60.2877 123.904 60.1435V60.4319C124.786 60.5601 125.026 61.3773 125.026 63.9729C125.026 66.5686 124.786 67.3857 123.904 67.5139V67.8023C126.147 67.6581 127.397 65.9757 127.397 63.9729ZM122.126 63.9729C122.126 61.3773 122.366 60.5601 123.247 60.4319V60.1435C121.02 60.2877 119.771 61.9541 119.771 63.9729C119.771 65.9757 121.02 67.6581 123.247 67.8023V67.5139C122.366 67.3857 122.126 66.5686 122.126 63.9729Z"/>
<path d="M131.061 65.7194V60.1275L128.241 60.7684V61.0408C128.898 61.3773 129.042 61.6176 129.042 62.1624V65.7194C129.042 66.5526 129.026 67.2095 128.401 67.4017V67.6741H131.718V67.4017C131.141 67.2415 131.061 66.6166 131.061 65.7194ZM132.952 60.2076C132.615 60.3518 132.086 60.5441 131.397 61.4574L131.558 61.6817C131.958 61.3132 132.311 61.3132 132.311 61.4414C132.311 61.7298 132.439 62.0021 132.679 62.2265C133.192 62.6591 133.929 62.595 134.362 62.0983C134.794 61.6176 134.746 60.8485 134.25 60.4159C133.897 60.1275 133.288 60.0634 132.952 60.2076Z"/>
<path d="M137.787 65.7354V55.7213L134.983 56.3141V56.5865C135.624 56.8269 135.785 57.0672 135.785 57.628V65.7354C135.785 66.5526 135.753 67.2255 135.144 67.4017V67.6741H138.444V67.4017C137.867 67.2575 137.787 66.6166 137.787 65.7354ZM142.065 66.6006C142.065 66.6006 142.033 66.6006 139.662 63.2519C141.793 60.6242 143.427 60.5761 143.716 60.5441V60.2717H139.822V60.5441C141.905 60.48 139.614 62.8033 139.614 62.8033L138.108 64.4376C138.108 64.4376 138.524 65.0785 139.005 65.7835C140.079 67.3857 140.223 67.6741 141.328 67.6741H143.588V67.4017C143.315 67.3857 142.594 67.3377 142.065 66.6006Z"/>
<path d="M149.477 62.4027H149.75V60.6082C149.75 60.6082 149.045 60.1916 147.458 60.1435V60.4319C148.836 60.6082 149.285 61.89 149.477 62.4027ZM148.628 63.5243L147.01 62.5149C145.776 61.7298 145.984 60.6723 146.786 60.448V60.1435C145.424 60.2397 144.895 60.9286 144.895 60.9286C144.014 62.0823 144.43 63.3801 145.984 64.3254L147.603 65.3028C148.692 66.0238 148.66 67.2415 147.827 67.4979V67.8023C149.205 67.7062 149.734 66.9531 149.734 66.9531C150.535 65.7995 150.054 64.4055 148.628 63.5243ZM144.863 65.0625H144.59V67.0813C144.59 67.0813 145.44 67.7382 147.154 67.8183V67.5299C145.552 67.3216 145.087 65.6553 144.863 65.0625Z"/>
<path d="M153.953 65.7034V55.7213L151.149 56.3942V56.6666C151.79 56.907 151.95 57.0672 151.95 57.628V65.7034C151.95 66.5205 151.918 67.2095 151.309 67.3857V67.6741H154.61V67.3857C154.033 67.2415 153.953 66.5846 153.953 65.7034ZM158.616 65.7034V62.611C158.616 60.6883 157.879 60.1275 156.597 60.1275C155.812 60.1275 154.818 60.6723 154.273 61.3132L154.482 61.6496C154.738 61.4414 155.027 61.3292 155.283 61.3292C156.212 61.3292 156.629 61.7618 156.629 62.6751V65.7034C156.629 66.5205 156.597 67.2255 155.988 67.4017V67.6741H159.272V67.4017C158.712 67.2575 158.616 66.5846 158.616 65.7034Z"/>
<path d="M167.814 63.9729C167.814 61.9541 166.564 60.2877 164.321 60.1435V60.4319C165.202 60.5601 165.442 61.3773 165.442 63.9729C165.442 66.5686 165.202 67.3857 164.321 67.5139V67.8023C166.564 67.6581 167.814 65.9757 167.814 63.9729ZM162.542 63.9729C162.542 61.3773 162.782 60.5601 163.664 60.4319V60.1435C161.437 60.2877 160.187 61.9541 160.187 63.9729C160.187 65.9757 161.437 67.6581 163.664 67.8023V67.5139C162.782 67.3857 162.542 66.5686 162.542 63.9729Z"/>
<path d="M173.929 60.1275C173.176 60.1275 172.006 60.48 171.493 61.4253V60.1275L168.705 60.7684V61.0408C169.346 61.2811 169.507 61.3933 169.507 61.9381V70.0935C169.507 70.9107 169.474 71.4715 168.866 71.6477V71.9201H172.15V71.6477C171.589 71.5035 171.493 70.9908 171.493 70.0935V67.3216C171.894 67.594 172.439 67.7542 173.031 67.8023V67.5299C172.31 67.3857 171.605 66.8089 171.493 65.3829V62.4508C171.605 61.4894 172.182 60.7203 173.144 60.7203C174.441 60.7203 175.05 61.6016 175.05 64.1812C175.05 66.3763 174.634 67.3537 173.688 67.5299V67.8183C175.787 67.7062 177.342 66.5045 177.342 64.037C177.342 61.5215 175.739 60.1275 173.929 60.1275Z"/>
</mask>
<path d="M11.079 64.1972H10.8066C10.358 66.7769 7.52202 67.2736 6.43249 67.3857V67.6741H11.079V64.1972ZM5.43909 58.0926C5.43909 56.939 6.24022 56.6666 6.92919 56.6666V56.3942H1.85004V56.6666C2.53901 56.6666 3.11582 57.1153 3.11582 58.0926V65.6072C3.11582 66.6968 2.66719 67.4017 1.97822 67.4017V67.6741H5.43909V58.0926Z" fill="#343434"/>
<path d="M16.7188 66.4564C15.6453 66.2161 14.8442 65.3989 14.716 63.8287H19.8112C19.8112 61.4414 18.8018 60.2397 16.6708 60.1435V60.4159C17.3758 60.6883 17.8564 61.8419 17.8564 63.5563H14.716C14.716 62.1944 15.2287 60.7203 16.0138 60.4159V60.1595C14.011 60.3198 12.6491 61.89 12.6491 64.005C12.6491 65.8796 14.0911 67.8183 16.1901 67.8183C18.3371 67.8183 19.2824 66.5526 19.5388 65.7194L19.2664 65.5752C18.8659 66.3282 17.5841 66.6487 16.7188 66.4564Z" fill="#343434"/>
<path d="M23.1345 62.8193C23.5511 62.5309 23.6632 61.9701 23.3748 61.5535C23.2306 61.3452 23.0223 61.2331 22.782 61.201C22.7019 61.201 22.7179 61.0408 22.9582 60.8485L22.8461 60.5922C22.1571 61.0087 21.9648 61.3773 21.8206 61.6176C21.6604 61.89 21.6764 62.2745 21.8687 62.579C22.1571 62.9955 22.7179 63.0917 23.1345 62.8193ZM28.0694 66.841C27.2843 66.841 27.3004 65.7194 27.3004 65.7194V63.332C27.3004 61.4414 26.7235 60.1275 24.6246 60.1275C24.6246 60.1275 24.0478 60.0955 23.4389 60.3038L23.5511 60.5441C24.5124 60.2557 25.2815 61.0728 25.2815 62.579V63.5724C22.4776 64.2773 21.1317 64.4376 21.1317 66.184C21.1317 67.8183 22.9743 67.8183 22.9743 67.8183C23.7594 67.8183 24.4483 67.4338 24.881 67.0332L24.6887 66.7608C24.5605 66.8249 24.4003 66.841 24.224 66.841C23.1826 66.841 23.1826 65.7835 23.1826 65.7835C23.1826 64.9663 23.7113 64.2133 25.2815 63.8608V66.3763C25.2815 67.8183 26.8998 67.8183 26.8998 67.8183C27.9092 67.8183 28.6463 67.1935 28.7744 66.6807L28.5021 66.5686C28.4059 66.841 28.0694 66.841 28.0694 66.841Z" fill="#343434"/>
<path d="M33.2342 66.6807C32.4331 66.6807 32.0485 66.2161 32.0485 65.3188V60.5441H33.8911L33.9552 60.2717H32.0485V57.7882L30.0457 58.1247V60.2717H29.1965L29.2446 60.5441H30.0457V65.3669C30.0457 67.3056 30.7988 67.8183 32.0646 67.8183C33.1381 67.8183 34.1155 67.0172 34.4359 66.2641L34.1956 66.1199C34.0514 66.3603 33.6989 66.6807 33.2342 66.6807Z" fill="#343434"/>
<path d="M37.6487 65.7034V55.7213L34.8447 56.3942V56.6666C35.4856 56.907 35.6459 57.0672 35.6459 57.628V65.7034C35.6459 66.5205 35.6138 67.2095 35.005 67.3857V67.6741H38.3056V67.3857C37.7288 67.2415 37.6487 66.5846 37.6487 65.7034ZM42.3112 65.7034V62.611C42.3112 60.6883 41.5742 60.1275 40.2924 60.1275C39.5073 60.1275 38.5139 60.6723 37.9691 61.3132L38.1774 61.6496C38.4338 61.4414 38.7222 61.3292 38.9785 61.3292C39.9079 61.3292 40.3244 61.7618 40.3244 62.6751V65.7034C40.3244 66.5205 40.2924 67.2255 39.6835 67.4017V67.6741H42.9682V67.4017C42.4074 67.2575 42.3112 66.5846 42.3112 65.7034Z" fill="#343434"/>
<path d="M47.8721 66.4564C46.7986 66.2161 45.9974 65.3989 45.8692 63.8287H50.9644C50.9644 61.4414 49.955 60.2397 47.824 60.1435V60.4159C48.529 60.6883 49.0097 61.8419 49.0097 63.5563H45.8692C45.8692 62.1944 46.382 60.7203 47.1671 60.4159V60.1595C45.1643 60.3198 43.8023 61.89 43.8023 64.005C43.8023 65.8796 45.2444 67.8183 47.3433 67.8183C49.4903 67.8183 50.4357 66.5526 50.692 65.7194L50.4197 65.5752C50.0191 66.3282 48.7373 66.6487 47.8721 66.4564Z" fill="#343434"/>
<path d="M54.6723 65.7194V60.1275L51.8523 60.7684V61.0408C52.5092 61.3773 52.6534 61.6176 52.6534 62.1624V65.7194C52.6534 66.5526 52.6374 67.2095 52.0125 67.4017V67.6741H55.3292V67.4017C54.7524 67.2415 54.6723 66.6166 54.6723 65.7194ZM56.5629 60.2076C56.2265 60.3518 55.6977 60.5441 55.0087 61.4574L55.169 61.6817C55.5695 61.3132 55.922 61.3132 55.922 61.4414C55.922 61.7298 56.0502 62.0021 56.2905 62.2265C56.8033 62.6591 57.5403 62.595 57.9729 62.0983C58.4055 61.6176 58.3575 60.8485 57.8608 60.4159C57.5083 60.1275 56.8994 60.0634 56.5629 60.2076Z" fill="#343434"/>
<path d="M72.5286 64.3094C72.1441 65.8956 71.0225 67.2736 69.3722 67.5139V67.8023C70.8303 67.7703 71.9518 67.5299 73.0253 66.8249L72.801 64.3094H72.5286ZM69.3722 56.5545C70.8783 56.7467 71.7115 57.7882 72.5286 59.743H72.801L73.0253 57.2274C72.1121 56.4904 70.8142 56.2981 69.3722 56.25V56.5545ZM63.3157 62.0342C63.3157 65.0625 65.2384 67.562 68.3788 67.8023V67.5139C66.9528 67.2896 66.1997 65.9918 66.1997 62.0342C66.1997 58.0766 66.9207 56.7788 68.3788 56.5545V56.2661C65.2384 56.5064 63.3157 59.0059 63.3157 62.0342Z" fill="#343434"/>
<path d="M76.7189 65.7194V60.1275L73.8989 60.7684V61.0408C74.5559 61.3773 74.7001 61.6176 74.7001 62.1624V65.7194C74.7001 66.5526 74.6841 67.2095 74.0592 67.4017V67.6741H77.3758V67.4017C76.799 67.2415 76.7189 66.6166 76.7189 65.7194ZM78.6096 60.2076C78.2731 60.3518 77.7444 60.5441 77.0554 61.4574L77.2156 61.6817C77.6162 61.3132 77.9687 61.3132 77.9687 61.4414C77.9687 61.7298 78.0969 62.0021 78.3372 62.2265C78.8499 62.6591 79.587 62.595 80.0196 62.0983C80.4522 61.6176 80.4041 60.8485 79.9074 60.4159C79.5549 60.1275 78.9461 60.0634 78.6096 60.2076Z" fill="#343434"/>
<path d="M82.7497 62.8193C83.1662 62.5309 83.2784 61.9701 82.99 61.5535C82.8458 61.3452 82.6375 61.2331 82.3972 61.201C82.317 61.201 82.3331 61.0408 82.5734 60.8485L82.4613 60.5922C81.7723 61.0087 81.58 61.3773 81.4358 61.6176C81.2756 61.89 81.2916 62.2745 81.4839 62.579C81.7723 62.9955 82.3331 63.0917 82.7497 62.8193ZM87.6846 66.841C86.8995 66.841 86.9155 65.7194 86.9155 65.7194V63.332C86.9155 61.4414 86.3387 60.1275 84.2398 60.1275C84.2398 60.1275 83.6629 60.0955 83.0541 60.3038L83.1662 60.5441C84.1276 60.2557 84.8967 61.0728 84.8967 62.579V63.5724C82.0927 64.2773 80.7468 64.4376 80.7468 66.184C80.7468 67.8183 82.5894 67.8183 82.5894 67.8183C83.3745 67.8183 84.0635 67.4338 84.4961 67.0332L84.3038 66.7608C84.1757 66.8249 84.0154 66.841 83.8392 66.841C82.7977 66.841 82.7977 65.7835 82.7977 65.7835C82.7977 64.9663 83.3265 64.2133 84.8967 63.8608V66.3763C84.8967 67.8183 86.515 67.8183 86.515 67.8183C87.5244 67.8183 88.2614 67.1935 88.3896 66.6807L88.1172 66.5686C88.0211 66.841 87.6846 66.841 87.6846 66.841Z" fill="#343434"/>
<path d="M93.0897 55.7694V56.0418C93.4422 56.1219 93.5704 56.3141 93.3781 56.3462C93.1378 56.3942 92.9295 56.5384 92.8173 56.7788C92.577 57.2595 92.7693 57.8203 93.2499 58.0606C93.7146 58.2849 94.2914 58.0926 94.5317 57.628C94.692 57.2915 94.6439 56.8269 94.4516 56.5384C94.3074 56.2981 93.7947 55.8815 93.0897 55.7694ZM92.4328 56.0257V55.7533C90.7024 55.8335 89.773 56.7788 89.773 60.2717H88.7316L88.7476 60.5441H89.773V65.8636C89.773 66.6807 89.757 67.2255 89.1482 67.4017V67.6741H92.4328V67.4017C91.856 67.2415 91.7759 66.7448 91.7759 65.8636V60.5441H93.4422L93.4903 60.2717H91.7759C91.7759 57.628 92.0162 56.3782 92.4328 56.0257Z" fill="#343434"/>
<path d="M98.2007 66.6807C97.3995 66.6807 97.015 66.2161 97.015 65.3188V60.5441H98.8576L98.9217 60.2717H97.015V57.7882L95.0122 58.1247V60.2717H94.163L94.211 60.5441H95.0122V65.3669C95.0122 67.3056 95.7652 67.8183 97.031 67.8183C98.1045 67.8183 99.0819 67.0172 99.4023 66.2641L99.162 66.1199C99.0178 66.3603 98.6653 66.6807 98.2007 66.6807Z" fill="#343434"/>
<path d="M107.941 56.6666V56.3942H102.83V56.6666C103.247 56.6666 103.792 56.6666 104.304 57.9645L108.326 67.6741H108.598L109.672 64.742L107.22 58.5252C107.22 58.5252 106.532 56.6666 107.941 56.6666ZM113.742 56.6666V56.3942H108.63V56.6666C109.047 56.6666 109.608 56.6666 110.105 57.9645L114.03 67.6741H114.302L115.424 64.774L113.021 58.5252C113.021 58.5252 112.3 56.6666 113.742 56.6666ZM115.616 56.6666C118.34 56.6666 116.818 60.4159 116.818 60.4159L117.074 60.496C118.548 57.0512 119.606 56.6666 120.343 56.6666V56.3942H115.616V56.6666Z" fill="#343434"/>
<path d="M127.397 63.9729C127.397 61.9541 126.147 60.2877 123.904 60.1435V60.4319C124.786 60.5601 125.026 61.3773 125.026 63.9729C125.026 66.5686 124.786 67.3857 123.904 67.5139V67.8023C126.147 67.6581 127.397 65.9757 127.397 63.9729ZM122.126 63.9729C122.126 61.3773 122.366 60.5601 123.247 60.4319V60.1435C121.02 60.2877 119.771 61.9541 119.771 63.9729C119.771 65.9757 121.02 67.6581 123.247 67.8023V67.5139C122.366 67.3857 122.126 66.5686 122.126 63.9729Z" fill="#343434"/>
<path d="M131.061 65.7194V60.1275L128.241 60.7684V61.0408C128.898 61.3773 129.042 61.6176 129.042 62.1624V65.7194C129.042 66.5526 129.026 67.2095 128.401 67.4017V67.6741H131.718V67.4017C131.141 67.2415 131.061 66.6166 131.061 65.7194ZM132.952 60.2076C132.615 60.3518 132.086 60.5441 131.397 61.4574L131.558 61.6817C131.958 61.3132 132.311 61.3132 132.311 61.4414C132.311 61.7298 132.439 62.0021 132.679 62.2265C133.192 62.6591 133.929 62.595 134.362 62.0983C134.794 61.6176 134.746 60.8485 134.25 60.4159C133.897 60.1275 133.288 60.0634 132.952 60.2076Z" fill="#343434"/>
<path d="M137.787 65.7354V55.7213L134.983 56.3141V56.5865C135.624 56.8269 135.785 57.0672 135.785 57.628V65.7354C135.785 66.5526 135.753 67.2255 135.144 67.4017V67.6741H138.444V67.4017C137.867 67.2575 137.787 66.6166 137.787 65.7354ZM142.065 66.6006C142.065 66.6006 142.033 66.6006 139.662 63.2519C141.793 60.6242 143.427 60.5761 143.716 60.5441V60.2717H139.822V60.5441C141.905 60.48 139.614 62.8033 139.614 62.8033L138.108 64.4376C138.108 64.4376 138.524 65.0785 139.005 65.7835C140.079 67.3857 140.223 67.6741 141.328 67.6741H143.588V67.4017C143.315 67.3857 142.594 67.3377 142.065 66.6006Z" fill="#343434"/>
<path d="M149.477 62.4027H149.75V60.6082C149.75 60.6082 149.045 60.1916 147.458 60.1435V60.4319C148.836 60.6082 149.285 61.89 149.477 62.4027ZM148.628 63.5243L147.01 62.5149C145.776 61.7298 145.984 60.6723 146.786 60.448V60.1435C145.424 60.2397 144.895 60.9286 144.895 60.9286C144.014 62.0823 144.43 63.3801 145.984 64.3254L147.603 65.3028C148.692 66.0238 148.66 67.2415 147.827 67.4979V67.8023C149.205 67.7062 149.734 66.9531 149.734 66.9531C150.535 65.7995 150.054 64.4055 148.628 63.5243ZM144.863 65.0625H144.59V67.0813C144.59 67.0813 145.44 67.7382 147.154 67.8183V67.5299C145.552 67.3216 145.087 65.6553 144.863 65.0625Z" fill="#343434"/>
<path d="M153.953 65.7034V55.7213L151.149 56.3942V56.6666C151.79 56.907 151.95 57.0672 151.95 57.628V65.7034C151.95 66.5205 151.918 67.2095 151.309 67.3857V67.6741H154.61V67.3857C154.033 67.2415 153.953 66.5846 153.953 65.7034ZM158.616 65.7034V62.611C158.616 60.6883 157.879 60.1275 156.597 60.1275C155.812 60.1275 154.818 60.6723 154.273 61.3132L154.482 61.6496C154.738 61.4414 155.027 61.3292 155.283 61.3292C156.212 61.3292 156.629 61.7618 156.629 62.6751V65.7034C156.629 66.5205 156.597 67.2255 155.988 67.4017V67.6741H159.272V67.4017C158.712 67.2575 158.616 66.5846 158.616 65.7034Z" fill="#343434"/>
<path d="M167.814 63.9729C167.814 61.9541 166.564 60.2877 164.321 60.1435V60.4319C165.202 60.5601 165.442 61.3773 165.442 63.9729C165.442 66.5686 165.202 67.3857 164.321 67.5139V67.8023C166.564 67.6581 167.814 65.9757 167.814 63.9729ZM162.542 63.9729C162.542 61.3773 162.782 60.5601 163.664 60.4319V60.1435C161.437 60.2877 160.187 61.9541 160.187 63.9729C160.187 65.9757 161.437 67.6581 163.664 67.8023V67.5139C162.782 67.3857 162.542 66.5686 162.542 63.9729Z" fill="#343434"/>
<path d="M173.929 60.1275C173.176 60.1275 172.006 60.48 171.493 61.4253V60.1275L168.705 60.7684V61.0408C169.346 61.2811 169.507 61.3933 169.507 61.9381V70.0935C169.507 70.9107 169.474 71.4715 168.866 71.6477V71.9201H172.15V71.6477C171.589 71.5035 171.493 70.9908 171.493 70.0935V67.3216C171.894 67.594 172.439 67.7542 173.031 67.8023V67.5299C172.31 67.3857 171.605 66.8089 171.493 65.3829V62.4508C171.605 61.4894 172.182 60.7203 173.144 60.7203C174.441 60.7203 175.05 61.6016 175.05 64.1812C175.05 66.3763 174.634 67.3537 173.688 67.5299V67.8183C175.787 67.7062 177.342 66.5045 177.342 64.037C177.342 61.5215 175.739 60.1275 173.929 60.1275Z" fill="#343434"/>
<path d="M11.079 64.1972H10.8066C10.358 66.7769 7.52202 67.2736 6.43249 67.3857V67.6741H11.079V64.1972ZM5.43909 58.0926C5.43909 56.939 6.24022 56.6666 6.92919 56.6666V56.3942H1.85004V56.6666C2.53901 56.6666 3.11582 57.1153 3.11582 58.0926V65.6072C3.11582 66.6968 2.66719 67.4017 1.97822 67.4017V67.6741H5.43909V58.0926Z" stroke="black" stroke-width="0.4" mask="url(#path-1-outside-1_370_1468)"/>
<path d="M16.7188 66.4564C15.6453 66.2161 14.8442 65.3989 14.716 63.8287H19.8112C19.8112 61.4414 18.8018 60.2397 16.6708 60.1435V60.4159C17.3758 60.6883 17.8564 61.8419 17.8564 63.5563H14.716C14.716 62.1944 15.2287 60.7203 16.0138 60.4159V60.1595C14.011 60.3198 12.6491 61.89 12.6491 64.005C12.6491 65.8796 14.0911 67.8183 16.1901 67.8183C18.3371 67.8183 19.2824 66.5526 19.5388 65.7194L19.2664 65.5752C18.8659 66.3282 17.5841 66.6487 16.7188 66.4564Z" stroke="black" stroke-width="0.4" mask="url(#path-1-outside-1_370_1468)"/>
<path d="M23.1345 62.8193C23.5511 62.5309 23.6632 61.9701 23.3748 61.5535C23.2306 61.3452 23.0223 61.2331 22.782 61.201C22.7019 61.201 22.7179 61.0408 22.9582 60.8485L22.8461 60.5922C22.1571 61.0087 21.9648 61.3773 21.8206 61.6176C21.6604 61.89 21.6764 62.2745 21.8687 62.579C22.1571 62.9955 22.7179 63.0917 23.1345 62.8193ZM28.0694 66.841C27.2843 66.841 27.3004 65.7194 27.3004 65.7194V63.332C27.3004 61.4414 26.7235 60.1275 24.6246 60.1275C24.6246 60.1275 24.0478 60.0955 23.4389 60.3038L23.5511 60.5441C24.5124 60.2557 25.2815 61.0728 25.2815 62.579V63.5724C22.4776 64.2773 21.1317 64.4376 21.1317 66.184C21.1317 67.8183 22.9743 67.8183 22.9743 67.8183C23.7594 67.8183 24.4483 67.4338 24.881 67.0332L24.6887 66.7608C24.5605 66.8249 24.4003 66.841 24.224 66.841C23.1826 66.841 23.1826 65.7835 23.1826 65.7835C23.1826 64.9663 23.7113 64.2133 25.2815 63.8608V66.3763C25.2815 67.8183 26.8998 67.8183 26.8998 67.8183C27.9092 67.8183 28.6463 67.1935 28.7744 66.6807L28.5021 66.5686C28.4059 66.841 28.0694 66.841 28.0694 66.841Z" stroke="black" stroke-width="0.4" mask="url(#path-1-outside-1_370_1468)"/>
<path d="M33.2342 66.6807C32.4331 66.6807 32.0485 66.2161 32.0485 65.3188V60.5441H33.8911L33.9552 60.2717H32.0485V57.7882L30.0457 58.1247V60.2717H29.1965L29.2446 60.5441H30.0457V65.3669C30.0457 67.3056 30.7988 67.8183 32.0646 67.8183C33.1381 67.8183 34.1155 67.0172 34.4359 66.2641L34.1956 66.1199C34.0514 66.3603 33.6989 66.6807 33.2342 66.6807Z" stroke="black" stroke-width="0.4" mask="url(#path-1-outside-1_370_1468)"/>
<path d="M37.6487 65.7034V55.7213L34.8447 56.3942V56.6666C35.4856 56.907 35.6459 57.0672 35.6459 57.628V65.7034C35.6459 66.5205 35.6138 67.2095 35.005 67.3857V67.6741H38.3056V67.3857C37.7288 67.2415 37.6487 66.5846 37.6487 65.7034ZM42.3112 65.7034V62.611C42.3112 60.6883 41.5742 60.1275 40.2924 60.1275C39.5073 60.1275 38.5139 60.6723 37.9691 61.3132L38.1774 61.6496C38.4338 61.4414 38.7222 61.3292 38.9785 61.3292C39.9079 61.3292 40.3244 61.7618 40.3244 62.6751V65.7034C40.3244 66.5205 40.2924 67.2255 39.6835 67.4017V67.6741H42.9682V67.4017C42.4074 67.2575 42.3112 66.5846 42.3112 65.7034Z" stroke="black" stroke-width="0.4" mask="url(#path-1-outside-1_370_1468)"/>
<path d="M47.8721 66.4564C46.7986 66.2161 45.9974 65.3989 45.8692 63.8287H50.9644C50.9644 61.4414 49.955 60.2397 47.824 60.1435V60.4159C48.529 60.6883 49.0097 61.8419 49.0097 63.5563H45.8692C45.8692 62.1944 46.382 60.7203 47.1671 60.4159V60.1595C45.1643 60.3198 43.8023 61.89 43.8023 64.005C43.8023 65.8796 45.2444 67.8183 47.3433 67.8183C49.4903 67.8183 50.4357 66.5526 50.692 65.7194L50.4197 65.5752C50.0191 66.3282 48.7373 66.6487 47.8721 66.4564Z" stroke="black" stroke-width="0.4" mask="url(#path-1-outside-1_370_1468)"/>
<path d="M54.6723 65.7194V60.1275L51.8523 60.7684V61.0408C52.5092 61.3773 52.6534 61.6176 52.6534 62.1624V65.7194C52.6534 66.5526 52.6374 67.2095 52.0125 67.4017V67.6741H55.3292V67.4017C54.7524 67.2415 54.6723 66.6166 54.6723 65.7194ZM56.5629 60.2076C56.2265 60.3518 55.6977 60.5441 55.0087 61.4574L55.169 61.6817C55.5695 61.3132 55.922 61.3132 55.922 61.4414C55.922 61.7298 56.0502 62.0021 56.2905 62.2265C56.8033 62.6591 57.5403 62.595 57.9729 62.0983C58.4055 61.6176 58.3575 60.8485 57.8608 60.4159C57.5083 60.1275 56.8994 60.0634 56.5629 60.2076Z" stroke="black" stroke-width="0.4" mask="url(#path-1-outside-1_370_1468)"/>
<path d="M72.5286 64.3094C72.1441 65.8956 71.0225 67.2736 69.3722 67.5139V67.8023C70.8303 67.7703 71.9518 67.5299 73.0253 66.8249L72.801 64.3094H72.5286ZM69.3722 56.5545C70.8783 56.7467 71.7115 57.7882 72.5286 59.743H72.801L73.0253 57.2274C72.1121 56.4904 70.8142 56.2981 69.3722 56.25V56.5545ZM63.3157 62.0342C63.3157 65.0625 65.2384 67.562 68.3788 67.8023V67.5139C66.9528 67.2896 66.1997 65.9918 66.1997 62.0342C66.1997 58.0766 66.9207 56.7788 68.3788 56.5545V56.2661C65.2384 56.5064 63.3157 59.0059 63.3157 62.0342Z" stroke="black" stroke-width="0.4" mask="url(#path-1-outside-1_370_1468)"/>
<path d="M76.7189 65.7194V60.1275L73.8989 60.7684V61.0408C74.5559 61.3773 74.7001 61.6176 74.7001 62.1624V65.7194C74.7001 66.5526 74.6841 67.2095 74.0592 67.4017V67.6741H77.3758V67.4017C76.799 67.2415 76.7189 66.6166 76.7189 65.7194ZM78.6096 60.2076C78.2731 60.3518 77.7444 60.5441 77.0554 61.4574L77.2156 61.6817C77.6162 61.3132 77.9687 61.3132 77.9687 61.4414C77.9687 61.7298 78.0969 62.0021 78.3372 62.2265C78.8499 62.6591 79.587 62.595 80.0196 62.0983C80.4522 61.6176 80.4041 60.8485 79.9074 60.4159C79.5549 60.1275 78.9461 60.0634 78.6096 60.2076Z" stroke="black" stroke-width="0.4" mask="url(#path-1-outside-1_370_1468)"/>
<path d="M82.7497 62.8193C83.1662 62.5309 83.2784 61.9701 82.99 61.5535C82.8458 61.3452 82.6375 61.2331 82.3972 61.201C82.317 61.201 82.3331 61.0408 82.5734 60.8485L82.4613 60.5922C81.7723 61.0087 81.58 61.3773 81.4358 61.6176C81.2756 61.89 81.2916 62.2745 81.4839 62.579C81.7723 62.9955 82.3331 63.0917 82.7497 62.8193ZM87.6846 66.841C86.8995 66.841 86.9155 65.7194 86.9155 65.7194V63.332C86.9155 61.4414 86.3387 60.1275 84.2398 60.1275C84.2398 60.1275 83.6629 60.0955 83.0541 60.3038L83.1662 60.5441C84.1276 60.2557 84.8967 61.0728 84.8967 62.579V63.5724C82.0927 64.2773 80.7468 64.4376 80.7468 66.184C80.7468 67.8183 82.5894 67.8183 82.5894 67.8183C83.3745 67.8183 84.0635 67.4338 84.4961 67.0332L84.3038 66.7608C84.1757 66.8249 84.0154 66.841 83.8392 66.841C82.7977 66.841 82.7977 65.7835 82.7977 65.7835C82.7977 64.9663 83.3265 64.2133 84.8967 63.8608V66.3763C84.8967 67.8183 86.515 67.8183 86.515 67.8183C87.5244 67.8183 88.2614 67.1935 88.3896 66.6807L88.1172 66.5686C88.0211 66.841 87.6846 66.841 87.6846 66.841Z" stroke="black" stroke-width="0.4" mask="url(#path-1-outside-1_370_1468)"/>
<path d="M93.0897 55.7694V56.0418C93.4422 56.1219 93.5704 56.3141 93.3781 56.3462C93.1378 56.3942 92.9295 56.5384 92.8173 56.7788C92.577 57.2595 92.7693 57.8203 93.2499 58.0606C93.7146 58.2849 94.2914 58.0926 94.5317 57.628C94.692 57.2915 94.6439 56.8269 94.4516 56.5384C94.3074 56.2981 93.7947 55.8815 93.0897 55.7694ZM92.4328 56.0257V55.7533C90.7024 55.8335 89.773 56.7788 89.773 60.2717H88.7316L88.7476 60.5441H89.773V65.8636C89.773 66.6807 89.757 67.2255 89.1482 67.4017V67.6741H92.4328V67.4017C91.856 67.2415 91.7759 66.7448 91.7759 65.8636V60.5441H93.4422L93.4903 60.2717H91.7759C91.7759 57.628 92.0162 56.3782 92.4328 56.0257Z" stroke="black" stroke-width="0.4" mask="url(#path-1-outside-1_370_1468)"/>
<path d="M98.2007 66.6807C97.3995 66.6807 97.015 66.2161 97.015 65.3188V60.5441H98.8576L98.9217 60.2717H97.015V57.7882L95.0122 58.1247V60.2717H94.163L94.211 60.5441H95.0122V65.3669C95.0122 67.3056 95.7652 67.8183 97.031 67.8183C98.1045 67.8183 99.0819 67.0172 99.4023 66.2641L99.162 66.1199C99.0178 66.3603 98.6653 66.6807 98.2007 66.6807Z" stroke="black" stroke-width="0.4" mask="url(#path-1-outside-1_370_1468)"/>
<path d="M107.941 56.6666V56.3942H102.83V56.6666C103.247 56.6666 103.792 56.6666 104.304 57.9645L108.326 67.6741H108.598L109.672 64.742L107.22 58.5252C107.22 58.5252 106.532 56.6666 107.941 56.6666ZM113.742 56.6666V56.3942H108.63V56.6666C109.047 56.6666 109.608 56.6666 110.105 57.9645L114.03 67.6741H114.302L115.424 64.774L113.021 58.5252C113.021 58.5252 112.3 56.6666 113.742 56.6666ZM115.616 56.6666C118.34 56.6666 116.818 60.4159 116.818 60.4159L117.074 60.496C118.548 57.0512 119.606 56.6666 120.343 56.6666V56.3942H115.616V56.6666Z" stroke="black" stroke-width="0.4" mask="url(#path-1-outside-1_370_1468)"/>
<path d="M127.397 63.9729C127.397 61.9541 126.147 60.2877 123.904 60.1435V60.4319C124.786 60.5601 125.026 61.3773 125.026 63.9729C125.026 66.5686 124.786 67.3857 123.904 67.5139V67.8023C126.147 67.6581 127.397 65.9757 127.397 63.9729ZM122.126 63.9729C122.126 61.3773 122.366 60.5601 123.247 60.4319V60.1435C121.02 60.2877 119.771 61.9541 119.771 63.9729C119.771 65.9757 121.02 67.6581 123.247 67.8023V67.5139C122.366 67.3857 122.126 66.5686 122.126 63.9729Z" stroke="black" stroke-width="0.4" mask="url(#path-1-outside-1_370_1468)"/>
<path d="M131.061 65.7194V60.1275L128.241 60.7684V61.0408C128.898 61.3773 129.042 61.6176 129.042 62.1624V65.7194C129.042 66.5526 129.026 67.2095 128.401 67.4017V67.6741H131.718V67.4017C131.141 67.2415 131.061 66.6166 131.061 65.7194ZM132.952 60.2076C132.615 60.3518 132.086 60.5441 131.397 61.4574L131.558 61.6817C131.958 61.3132 132.311 61.3132 132.311 61.4414C132.311 61.7298 132.439 62.0021 132.679 62.2265C133.192 62.6591 133.929 62.595 134.362 62.0983C134.794 61.6176 134.746 60.8485 134.25 60.4159C133.897 60.1275 133.288 60.0634 132.952 60.2076Z" stroke="black" stroke-width="0.4" mask="url(#path-1-outside-1_370_1468)"/>
<path d="M137.787 65.7354V55.7213L134.983 56.3141V56.5865C135.624 56.8269 135.785 57.0672 135.785 57.628V65.7354C135.785 66.5526 135.753 67.2255 135.144 67.4017V67.6741H138.444V67.4017C137.867 67.2575 137.787 66.6166 137.787 65.7354ZM142.065 66.6006C142.065 66.6006 142.033 66.6006 139.662 63.2519C141.793 60.6242 143.427 60.5761 143.716 60.5441V60.2717H139.822V60.5441C141.905 60.48 139.614 62.8033 139.614 62.8033L138.108 64.4376C138.108 64.4376 138.524 65.0785 139.005 65.7835C140.079 67.3857 140.223 67.6741 141.328 67.6741H143.588V67.4017C143.315 67.3857 142.594 67.3377 142.065 66.6006Z" stroke="black" stroke-width="0.4" mask="url(#path-1-outside-1_370_1468)"/>
<path d="M149.477 62.4027H149.75V60.6082C149.75 60.6082 149.045 60.1916 147.458 60.1435V60.4319C148.836 60.6082 149.285 61.89 149.477 62.4027ZM148.628 63.5243L147.01 62.5149C145.776 61.7298 145.984 60.6723 146.786 60.448V60.1435C145.424 60.2397 144.895 60.9286 144.895 60.9286C144.014 62.0823 144.43 63.3801 145.984 64.3254L147.603 65.3028C148.692 66.0238 148.66 67.2415 147.827 67.4979V67.8023C149.205 67.7062 149.734 66.9531 149.734 66.9531C150.535 65.7995 150.054 64.4055 148.628 63.5243ZM144.863 65.0625H144.59V67.0813C144.59 67.0813 145.44 67.7382 147.154 67.8183V67.5299C145.552 67.3216 145.087 65.6553 144.863 65.0625Z" stroke="black" stroke-width="0.4" mask="url(#path-1-outside-1_370_1468)"/>
<path d="M153.953 65.7034V55.7213L151.149 56.3942V56.6666C151.79 56.907 151.95 57.0672 151.95 57.628V65.7034C151.95 66.5205 151.918 67.2095 151.309 67.3857V67.6741H154.61V67.3857C154.033 67.2415 153.953 66.5846 153.953 65.7034ZM158.616 65.7034V62.611C158.616 60.6883 157.879 60.1275 156.597 60.1275C155.812 60.1275 154.818 60.6723 154.273 61.3132L154.482 61.6496C154.738 61.4414 155.027 61.3292 155.283 61.3292C156.212 61.3292 156.629 61.7618 156.629 62.6751V65.7034C156.629 66.5205 156.597 67.2255 155.988 67.4017V67.6741H159.272V67.4017C158.712 67.2575 158.616 66.5846 158.616 65.7034Z" stroke="black" stroke-width="0.4" mask="url(#path-1-outside-1_370_1468)"/>
<path d="M167.814 63.9729C167.814 61.9541 166.564 60.2877 164.321 60.1435V60.4319C165.202 60.5601 165.442 61.3773 165.442 63.9729C165.442 66.5686 165.202 67.3857 164.321 67.5139V67.8023C166.564 67.6581 167.814 65.9757 167.814 63.9729ZM162.542 63.9729C162.542 61.3773 162.782 60.5601 163.664 60.4319V60.1435C161.437 60.2877 160.187 61.9541 160.187 63.9729C160.187 65.9757 161.437 67.6581 163.664 67.8023V67.5139C162.782 67.3857 162.542 66.5686 162.542 63.9729Z" stroke="black" stroke-width="0.4" mask="url(#path-1-outside-1_370_1468)"/>
<path d="M173.929 60.1275C173.176 60.1275 172.006 60.48 171.493 61.4253V60.1275L168.705 60.7684V61.0408C169.346 61.2811 169.507 61.3933 169.507 61.9381V70.0935C169.507 70.9107 169.474 71.4715 168.866 71.6477V71.9201H172.15V71.6477C171.589 71.5035 171.493 70.9908 171.493 70.0935V67.3216C171.894 67.594 172.439 67.7542 173.031 67.8023V67.5299C172.31 67.3857 171.605 66.8089 171.493 65.3829V62.4508C171.605 61.4894 172.182 60.7203 173.144 60.7203C174.441 60.7203 175.05 61.6016 175.05 64.1812C175.05 66.3763 174.634 67.3537 173.688 67.5299V67.8183C175.787 67.7062 177.342 66.5045 177.342 64.037C177.342 61.5215 175.739 60.1275 173.929 60.1275Z" stroke="black" stroke-width="0.4" mask="url(#path-1-outside-1_370_1468)"/>
<path d="M23.2473 41.1378L22.813 41.1953V41.6334V42.4209V42.9396L23.3313 42.9206C28.0185 42.7491 31.207 41.8848 34.8983 39.4046L35.1387 39.2431L35.1182 38.9542L34.4995 30.2353L34.4665 29.7707H34.0007H33.2695H32.8152L32.7717 30.2229C32.119 37.0219 27.6863 40.5495 23.2473 41.1378ZM32.7783 14.0517L32.856 14.4578H33.2695H34.0007H34.4663L34.4994 13.9934L35.1182 5.33071L35.1367 5.07158L34.9353 4.90747C31.7721 2.33004 27.9834 1.53378 23.3252 1.42016L22.813 1.40767V1.92001V2.65128V3.09198L23.2502 3.14732C25.3731 3.41605 27.3879 4.28564 29.0508 5.99528C30.7171 7.70848 32.0605 10.2968 32.7783 14.0517ZM18.8261 42.8628L19.3691 42.9098V42.3647V41.6334V41.1944L18.9338 41.1376C16.4583 40.8147 14.0879 39.7784 12.314 37.0309C10.5198 34.2517 9.30016 29.6683 9.30016 22.1705C9.30016 14.785 10.4916 10.1997 12.274 7.39117C14.0363 4.61412 16.4077 3.52581 18.9324 3.20351L19.3691 3.14776V2.70753V1.97626V1.43115L18.8261 1.47812C13.51 1.93789 9.06696 4.08385 5.95528 7.65249C2.84526 11.2192 1.10001 16.1667 1.10001 22.1705C1.10001 28.1189 2.84576 33.0656 5.95462 36.6455C9.06525 40.2275 13.5078 42.4029 18.8261 42.8628ZM52.1642 3.60129H52.6642V3.10129V2.37002V1.87002H52.1642H38.1576H37.6576V2.37002V3.10129V3.60129H38.1576C39.3342 3.60129 40.1481 3.85632 40.6855 4.44416C41.2349 5.04507 41.5952 6.10028 41.5952 7.9389V28.4706C41.5952 33.1634 43.0804 36.8006 45.5456 39.2658C48.0088 41.729 51.4056 42.9772 55.1455 42.9772C58.714 42.9772 62.2737 42.0281 64.9421 39.742C67.6244 37.4439 69.3433 33.8483 69.3145 28.6928L69.3117 28.1956H68.8145H68.0833H67.5833V28.6956C67.5833 32.1932 66.5194 34.8741 64.8095 36.6767C63.1005 38.4785 60.706 39.4459 57.958 39.4459C55.0032 39.4459 52.5688 38.4861 50.872 36.7233C49.1739 34.9591 48.1641 32.3377 48.1641 28.9206V8.0514C48.1641 5.89173 48.6712 4.83781 49.3262 4.29482C50.0008 3.73551 50.9618 3.60129 52.1642 3.60129ZM60.9456 3.10129V3.60562L61.4499 3.60127C63.0194 3.58774 64.1537 3.87916 64.9824 4.36569C65.8051 4.84875 66.3668 5.54766 66.7539 6.42506C67.5466 8.2218 67.5833 10.6925 67.5833 13.3953V13.8953H68.0833H68.8145H69.3145V13.3953C69.3145 13.2787 69.3144 13.1625 69.3144 13.0468C69.3136 11.8274 69.3128 10.6563 69.4016 9.56506C69.4989 8.37075 69.7012 7.31198 70.1056 6.43202C70.5046 5.5637 71.1027 4.86349 72.0164 4.37556C72.9401 3.88229 74.2212 3.58761 76.0109 3.60127L76.5147 3.60512V3.10129V2.37002V1.87002H76.0147H61.4456H60.9456V2.37002V3.10129ZM95.7763 3.25671L96.1925 3.18596V2.76378V1.97626V1.42434L95.6433 1.47869C90.1014 2.0271 85.9636 4.60424 83.2214 8.39838C80.4876 12.1807 79.1609 17.1425 79.1609 22.4517C79.1609 27.7614 80.4879 32.6005 83.2266 36.252C85.9737 39.9148 90.1132 42.3438 95.6458 42.8625L96.1925 42.9138V42.3647V41.5772V41.1466L95.7667 41.0827C93.0902 40.6812 90.8403 39.4115 89.2361 36.5974C87.612 33.7484 86.6298 29.2809 86.6298 22.4517C86.6298 15.6527 87.6112 11.0672 89.2407 8.07989C90.8538 5.12251 93.1124 3.70957 95.7763 3.25671ZM100.129 1.47867L99.5801 1.42462V1.97626V2.76378V3.18596L99.9963 3.25671C102.663 3.71001 104.935 5.11094 106.561 8.06075C108.204 11.0404 109.199 15.6251 109.199 22.4517C109.199 29.28 108.203 33.747 106.566 36.5959C104.948 39.4106 102.683 40.6811 100.006 41.0827L99.5801 41.1466V41.5772V42.3647V42.9135L100.127 42.8625C105.685 42.3441 109.853 39.9308 112.622 36.275C115.383 32.6301 116.724 27.7902 116.724 22.4517C116.724 17.1414 115.383 12.1792 112.627 8.39685C109.864 4.60309 105.698 2.0269 100.129 1.47867ZM121.809 1.87002H121.309V2.37002V3.10129V3.60129H121.809C122.998 3.60129 123.817 3.83396 124.352 4.36893C124.889 4.90598 125.246 5.85458 125.246 7.54514V35.952C125.246 37.8123 124.875 38.9997 124.296 39.7159C123.734 40.4109 122.913 40.7397 121.809 40.7397H121.309V41.2397V41.9709V42.4709H121.809H135.478H135.978V41.9709V41.2397V40.7397H135.478C134.405 40.7397 133.581 40.4126 133.01 39.714C132.424 38.9965 132.04 37.8084 132.04 35.952V7.54514C132.04 5.8593 132.409 4.90949 132.954 4.37075C133.497 3.83278 134.32 3.60129 135.478 3.60129H135.978V3.10129V2.37002V1.87002H135.478H121.809ZM156.642 3.25671L157.058 3.18596V2.76378V1.97626V1.42434L156.509 1.47869C150.967 2.0271 146.829 4.60424 144.087 8.39838C141.353 12.1807 140.026 17.1425 140.026 22.4517C140.026 27.7614 141.354 32.6005 144.092 36.252C146.839 39.9148 150.979 42.3438 156.511 42.8625L157.058 42.9138V42.3647V41.5772V41.1466L156.632 41.0827C153.956 40.6812 151.706 39.4115 150.102 36.5974C148.478 33.7484 147.495 29.2809 147.495 22.4517C147.495 15.6527 148.477 11.0672 150.106 8.07989C151.719 5.12251 153.978 3.70957 156.642 3.25671ZM160.995 1.47867L160.446 1.42462V1.97626V2.76378V3.18596L160.862 3.25671C163.528 3.71001 165.801 5.11094 167.427 8.06075C169.069 11.0404 170.065 15.6251 170.065 22.4517C170.065 29.28 169.069 33.747 167.431 36.5959C165.813 39.4106 163.549 40.6811 160.872 41.0827L160.446 41.1466V41.5772V42.3647V42.9135L160.992 42.8625C166.551 42.3441 170.718 39.9308 173.487 36.275C176.248 32.6301 177.59 27.7902 177.59 22.4517C177.59 17.1414 176.248 12.1792 173.493 8.39685C170.729 4.60309 166.564 2.0269 160.995 1.47867Z" fill="#343434" stroke="black"/>
</svg>
