<svg width="257" height="77" viewBox="0 0 257 77" fill="none" xmlns="http://www.w3.org/2000/svg">
<mask id="path-1-outside-1_370_1469" maskUnits="userSpaceOnUse" x="0.963348" y="57.7956" width="256" height="19" fill="black">
<rect fill="white" x="0.963348" y="57.7956" width="256" height="19"/>
<path d="M15.3409 67.7559H14.946C14.2957 70.483 10.1849 71.008 8.60565 71.1266V71.4315H15.3409V67.7559ZM7.16571 61.3025C7.16571 60.0829 8.32696 59.795 9.32562 59.795V59.507H1.96335V59.795C2.96202 59.795 3.79811 60.2693 3.79811 61.3025V69.2465C3.79811 70.3983 3.14782 71.1435 2.14915 71.1435V71.4315H7.16571V61.3025Z"/>
<path d="M23.5158 70.1442C21.9598 69.8901 20.7985 69.0263 20.6127 67.3663H27.9982C27.9982 64.8426 26.5351 63.5722 23.4461 63.4706V63.7585C24.468 64.0465 25.1648 65.266 25.1648 67.0784H20.6127C20.6127 65.6386 21.3559 64.0803 22.4939 63.7585V63.4875C19.5908 63.6569 17.6167 65.3168 17.6167 67.5527C17.6167 69.5344 19.7069 71.5839 22.7494 71.5839C25.8615 71.5839 27.2318 70.2458 27.6034 69.365L27.2086 69.2126C26.628 70.0087 24.77 70.3474 23.5158 70.1442Z"/>
<path d="M32.8154 66.2992C33.4192 65.9943 33.5818 65.4015 33.1638 64.9611C32.9547 64.7409 32.6528 64.6224 32.3044 64.5885C32.1883 64.5885 32.2115 64.4191 32.5599 64.2158L32.3973 63.9448C31.3987 64.3852 31.12 64.7748 30.9109 65.0289C30.6787 65.3168 30.7019 65.7233 30.9806 66.0452C31.3987 66.4856 32.2115 66.5872 32.8154 66.2992ZM39.9686 70.5507C38.8306 70.5507 38.8538 69.365 38.8538 69.365V66.8413C38.8538 64.8426 38.0177 63.4536 34.9753 63.4536C34.9753 63.4536 34.1392 63.4198 33.2567 63.6399L33.4192 63.894C34.8127 63.5891 35.9275 64.453 35.9275 66.0452V67.0953C31.8632 67.8406 29.9123 68.01 29.9123 69.8562C29.9123 71.5839 32.5831 71.5839 32.5831 71.5839C33.7211 71.5839 34.7198 71.1774 35.3469 70.754L35.0682 70.466C34.8824 70.5338 34.6501 70.5507 34.3947 70.5507C32.8851 70.5507 32.8851 69.4328 32.8851 69.4328C32.8851 68.5689 33.6515 67.7729 35.9275 67.4002V70.0595C35.9275 71.5839 38.2732 71.5839 38.2732 71.5839C39.7364 71.5839 40.8047 70.9233 40.9905 70.3813L40.5957 70.2628C40.4564 70.5507 39.9686 70.5507 39.9686 70.5507Z"/>
<path d="M47.455 70.3813C46.2938 70.3813 45.7364 69.8901 45.7364 68.9416V63.894H48.4072L48.5001 63.6061H45.7364V60.9807L42.8333 61.3364V63.6061H41.6024L41.672 63.894H42.8333V68.9924C42.8333 71.0419 43.9248 71.5839 45.7596 71.5839C47.3157 71.5839 48.7324 70.737 49.1969 69.9409L48.8485 69.7885C48.6395 70.0426 48.1285 70.3813 47.455 70.3813Z"/>
<path d="M53.8538 69.3481V58.7956L49.7895 59.507V59.795C50.7185 60.0491 50.9507 60.2184 50.9507 60.8113V69.3481C50.9507 70.2119 50.9043 70.9403 50.0217 71.1266V71.4315H54.806V71.1266C53.9699 70.9742 53.8538 70.2797 53.8538 69.3481ZM60.6123 69.3481V66.079C60.6123 64.0465 59.5439 63.4536 57.6859 63.4536C56.5479 63.4536 55.108 64.0295 54.3183 64.707L54.6202 65.0627C54.9918 64.8426 55.4099 64.724 55.7815 64.724C57.1285 64.724 57.7324 65.1813 57.7324 66.1468V69.3481C57.7324 70.2119 57.6859 70.9572 56.8034 71.1435V71.4315H61.5645V71.1435C60.7516 70.9911 60.6123 70.2797 60.6123 69.3481Z"/>
<path d="M68.6727 70.1442C67.1167 69.8901 65.9554 69.0263 65.7696 67.3663H73.1551C73.1551 64.8426 71.692 63.5722 68.603 63.4706V63.7585C69.6249 64.0465 70.3217 65.266 70.3217 67.0784H65.7696C65.7696 65.6386 66.5128 64.0803 67.6508 63.7585V63.4875C64.7477 63.6569 62.7736 65.3168 62.7736 67.5527C62.7736 69.5344 64.8638 71.5839 67.9063 71.5839C71.0184 71.5839 72.3887 70.2458 72.7603 69.365L72.3655 69.2126C71.7849 70.0087 69.9269 70.3474 68.6727 70.1442Z"/>
<path d="M78.5297 69.365V63.4536L74.4421 64.1312V64.4191C75.3943 64.7748 75.6033 65.0289 75.6033 65.6048V69.365C75.6033 70.2458 75.5801 70.9403 74.6743 71.1435V71.4315H79.4819V71.1435C78.6458 70.9742 78.5297 70.3136 78.5297 69.365ZM81.2702 63.5383C80.7825 63.6908 80.0161 63.894 79.0174 64.8595L79.2496 65.0966C79.8303 64.707 80.3412 64.707 80.3412 64.8426C80.3412 65.1474 80.527 65.4354 80.8754 65.6725C81.6186 66.1299 82.6869 66.0621 83.314 65.537C83.9411 65.0289 83.8714 64.2158 83.1514 63.7585C82.6405 63.4536 81.7579 63.3859 81.2702 63.5383Z"/>
<path d="M104.413 67.8745C103.855 69.5514 102.23 71.008 99.8374 71.2621V71.567C101.951 71.5331 103.577 71.279 105.133 70.5338L104.807 67.8745H104.413ZM99.8374 59.6764C102.021 59.8797 103.228 60.9807 104.413 63.0471H104.807L105.133 60.3878C103.809 59.6087 101.928 59.4054 99.8374 59.3546V59.6764ZM91.0584 65.4693C91.0584 68.6706 93.8454 71.3129 98.3974 71.567V71.2621C96.3304 71.025 95.2389 69.653 95.2389 65.4693C95.2389 61.2855 96.284 59.9136 98.3974 59.6764V59.3715C93.8454 59.6256 91.0584 62.268 91.0584 65.4693Z"/>
<path d="M110.487 69.365V63.4536L106.399 64.1312V64.4191C107.351 64.7748 107.56 65.0289 107.56 65.6048V69.365C107.56 70.2458 107.537 70.9403 106.631 71.1435V71.4315H111.439V71.1435C110.603 70.9742 110.487 70.3136 110.487 69.365ZM113.227 63.5383C112.739 63.6908 111.973 63.894 110.974 64.8595L111.206 65.0966C111.787 64.707 112.298 64.707 112.298 64.8426C112.298 65.1474 112.484 65.4354 112.832 65.6725C113.575 66.1299 114.644 66.0621 115.271 65.537C115.898 65.0289 115.828 64.2158 115.108 63.7585C114.597 63.4536 113.715 63.3859 113.227 63.5383Z"/>
<path d="M119.228 66.2992C119.832 65.9943 119.995 65.4015 119.577 64.9611C119.367 64.7409 119.066 64.6224 118.717 64.5885C118.601 64.5885 118.624 64.4191 118.973 64.2158L118.81 63.9448C117.811 64.3852 117.533 64.7748 117.324 65.0289C117.091 65.3168 117.115 65.7233 117.393 66.0452C117.811 66.4856 118.624 66.5872 119.228 66.2992ZM126.381 70.5507C125.243 70.5507 125.267 69.365 125.267 69.365V66.8413C125.267 64.8426 124.43 63.4536 121.388 63.4536C121.388 63.4536 120.552 63.4198 119.669 63.6399L119.832 63.894C121.225 63.5891 122.34 64.453 122.34 66.0452V67.0953C118.276 67.8406 116.325 68.01 116.325 69.8562C116.325 71.5839 118.996 71.5839 118.996 71.5839C120.134 71.5839 121.133 71.1774 121.76 70.754L121.481 70.466C121.295 70.5338 121.063 70.5507 120.807 70.5507C119.298 70.5507 119.298 69.4328 119.298 69.4328C119.298 68.5689 120.064 67.7729 122.34 67.4002V70.0595C122.34 71.5839 124.686 71.5839 124.686 71.5839C126.149 71.5839 127.217 70.9233 127.403 70.3813L127.008 70.2628C126.869 70.5507 126.381 70.5507 126.381 70.5507Z"/>
<path d="M134.216 58.8465V59.1344C134.727 59.2191 134.913 59.4224 134.634 59.4562C134.286 59.507 133.984 59.6595 133.821 59.9136C133.473 60.4217 133.752 61.0145 134.448 61.2686C135.122 61.5057 135.958 61.3025 136.306 60.8113C136.539 60.4556 136.469 59.9644 136.19 59.6595C135.981 59.4054 135.238 58.965 134.216 58.8465ZM133.264 59.1175V58.8295C130.756 58.9142 129.409 59.9136 129.409 63.6061H127.899L127.922 63.894H129.409V69.5175C129.409 70.3813 129.385 70.9572 128.503 71.1435V71.4315H133.264V71.1435C132.428 70.9742 132.312 70.4491 132.312 69.5175V63.894H134.727L134.797 63.6061H132.312C132.312 60.8113 132.66 59.4901 133.264 59.1175Z"/>
<path d="M141.624 70.3813C140.463 70.3813 139.906 69.8901 139.906 68.9416V63.894H142.577L142.67 63.6061H139.906V60.9807L137.003 61.3364V63.6061H135.772L135.842 63.894H137.003V68.9924C137.003 71.0419 138.094 71.5839 139.929 71.5839C141.485 71.5839 142.902 70.737 143.366 69.9409L143.018 69.7885C142.809 70.0426 142.298 70.3813 141.624 70.3813Z"/>
<path d="M155.744 59.795V59.507H148.335V59.795C148.939 59.795 149.729 59.795 150.472 61.167L156.301 71.4315H156.696L158.252 68.3318L154.699 61.7598C154.699 61.7598 153.7 59.795 155.744 59.795ZM164.151 59.795V59.507H156.743V59.795C157.346 59.795 158.159 59.795 158.879 61.167L164.569 71.4315H164.964L166.59 68.3657L163.106 61.7598C163.106 61.7598 162.061 59.795 164.151 59.795ZM166.869 59.795C170.817 59.795 168.611 63.7585 168.611 63.7585L168.982 63.8432C171.119 60.2015 172.652 59.795 173.72 59.795V59.507H166.869V59.795Z"/>
<path d="M183.945 67.5188C183.945 65.3846 182.134 63.623 178.882 63.4706V63.7755C180.16 63.911 180.508 64.7748 180.508 67.5188C180.508 70.2628 180.16 71.1266 178.882 71.2621V71.567C182.134 71.4146 183.945 69.636 183.945 67.5188ZM176.304 67.5188C176.304 64.7748 176.653 63.911 177.93 63.7755V63.4706C174.702 63.623 172.89 65.3846 172.89 67.5188C172.89 69.636 174.702 71.4146 177.93 71.567V71.2621C176.653 71.1266 176.304 70.2628 176.304 67.5188Z"/>
<path d="M189.256 69.365V63.4536L185.168 64.1312V64.4191C186.121 64.7748 186.33 65.0289 186.33 65.6048V69.365C186.33 70.2458 186.306 70.9403 185.401 71.1435V71.4315H190.208V71.1435C189.372 70.9742 189.256 70.3136 189.256 69.365ZM191.996 63.5383C191.509 63.6908 190.742 63.894 189.744 64.8595L189.976 65.0966C190.557 64.707 191.067 64.707 191.067 64.8426C191.067 65.1474 191.253 65.4354 191.602 65.6725C192.345 66.1299 193.413 66.0621 194.04 65.537C194.667 65.0289 194.598 64.2158 193.878 63.7585C193.367 63.4536 192.484 63.3859 191.996 63.5383Z"/>
<path d="M199.006 69.382V58.7956L194.941 59.4224V59.7103C195.87 59.9644 196.103 60.2184 196.103 60.8113V69.382C196.103 70.2458 196.056 70.9572 195.174 71.1435V71.4315H199.958V71.1435C199.122 70.9911 199.006 70.3136 199.006 69.382ZM205.207 70.2966C205.207 70.2966 205.16 70.2966 201.723 66.7566C204.812 63.9787 207.181 63.9279 207.599 63.894V63.6061H201.955V63.894C204.975 63.8263 201.653 66.2823 201.653 66.2823L199.47 68.01C199.47 68.01 200.074 68.6875 200.771 69.4328C202.327 71.1266 202.536 71.4315 204.139 71.4315H207.413V71.1435C207.018 71.1266 205.973 71.0758 205.207 70.2966Z"/>
<path d="M215.951 65.8588H216.345V63.9618C216.345 63.9618 215.323 63.5214 213.024 63.4706V63.7755C215.022 63.9618 215.672 65.3168 215.951 65.8588ZM214.72 67.0445L212.374 65.9774C210.586 65.1474 210.888 64.0295 212.049 63.7924V63.4706C210.075 63.5722 209.308 64.3005 209.308 64.3005C208.031 65.5201 208.635 66.8921 210.888 67.8914L213.233 68.9246C214.813 69.6869 214.766 70.9742 213.558 71.2452V71.567C215.556 71.4654 216.322 70.6693 216.322 70.6693C217.483 69.4497 216.787 67.9761 214.72 67.0445ZM209.262 68.6706H208.867V70.8048C208.867 70.8048 210.098 71.4992 212.583 71.5839V71.279C210.26 71.0589 209.587 69.2973 209.262 68.6706Z"/>
<path d="M222.438 69.3481V58.7956L218.374 59.507V59.795C219.303 60.0491 219.535 60.2184 219.535 60.8113V69.3481C219.535 70.2119 219.489 70.9403 218.606 71.1266V71.4315H223.39V71.1266C222.554 70.9742 222.438 70.2797 222.438 69.3481ZM229.196 69.3481V66.079C229.196 64.0465 228.128 63.4536 226.27 63.4536C225.132 63.4536 223.692 64.0295 222.903 64.707L223.204 65.0627C223.576 64.8426 223.994 64.724 224.366 64.724C225.713 64.724 226.317 65.1813 226.317 66.1468V69.3481C226.317 70.2119 226.27 70.9572 225.388 71.1435V71.4315H230.149V71.1435C229.336 70.9911 229.196 70.2797 229.196 69.3481Z"/>
<path d="M242.529 67.5188C242.529 65.3846 240.717 63.623 237.466 63.4706V63.7755C238.743 63.911 239.092 64.7748 239.092 67.5188C239.092 70.2628 238.743 71.1266 237.466 71.2621V71.567C240.717 71.4146 242.529 69.636 242.529 67.5188ZM234.888 67.5188C234.888 64.7748 235.236 63.911 236.514 63.7755V63.4706C233.286 63.623 231.474 65.3846 231.474 67.5188C231.474 69.636 233.286 71.4146 236.514 71.567V71.2621C235.236 71.1266 234.888 70.2628 234.888 67.5188Z"/>
<path d="M251.393 63.4536C250.302 63.4536 248.606 63.8263 247.863 64.8256V63.4536L243.822 64.1312V64.4191C244.751 64.6732 244.983 64.7917 244.983 65.3676V73.9891C244.983 74.853 244.937 75.4458 244.054 75.6321V75.9201H248.815V75.6321C248.002 75.4797 247.863 74.9377 247.863 73.9891V71.0588C248.444 71.3468 249.233 71.5162 250.093 71.567V71.279C249.047 71.1266 248.026 70.5168 247.863 69.0093V65.9097C248.026 64.8934 248.862 64.0803 250.255 64.0803C252.136 64.0803 253.019 65.0119 253.019 67.739C253.019 70.0595 252.415 71.0927 251.045 71.279V71.5839C254.087 71.4654 256.34 70.195 256.34 67.5865C256.34 64.9272 254.018 63.4536 251.393 63.4536Z"/>
</mask>
<path d="M15.3409 67.7559H14.946C14.2957 70.483 10.1849 71.008 8.60565 71.1266V71.4315H15.3409V67.7559ZM7.16571 61.3025C7.16571 60.0829 8.32696 59.795 9.32562 59.795V59.507H1.96335V59.795C2.96202 59.795 3.79811 60.2693 3.79811 61.3025V69.2465C3.79811 70.3983 3.14782 71.1435 2.14915 71.1435V71.4315H7.16571V61.3025Z" fill="#343434"/>
<path d="M23.5158 70.1442C21.9598 69.8901 20.7985 69.0263 20.6127 67.3663H27.9982C27.9982 64.8426 26.5351 63.5722 23.4461 63.4706V63.7585C24.468 64.0465 25.1648 65.266 25.1648 67.0784H20.6127C20.6127 65.6386 21.3559 64.0803 22.4939 63.7585V63.4875C19.5908 63.6569 17.6167 65.3168 17.6167 67.5527C17.6167 69.5344 19.7069 71.5839 22.7494 71.5839C25.8615 71.5839 27.2318 70.2458 27.6034 69.365L27.2086 69.2126C26.628 70.0087 24.77 70.3474 23.5158 70.1442Z" fill="#343434"/>
<path d="M32.8154 66.2992C33.4192 65.9943 33.5818 65.4015 33.1638 64.9611C32.9547 64.7409 32.6528 64.6224 32.3044 64.5885C32.1883 64.5885 32.2115 64.4191 32.5599 64.2158L32.3973 63.9448C31.3987 64.3852 31.12 64.7748 30.9109 65.0289C30.6787 65.3168 30.7019 65.7233 30.9806 66.0452C31.3987 66.4856 32.2115 66.5872 32.8154 66.2992ZM39.9686 70.5507C38.8306 70.5507 38.8538 69.365 38.8538 69.365V66.8413C38.8538 64.8426 38.0177 63.4536 34.9753 63.4536C34.9753 63.4536 34.1392 63.4198 33.2567 63.6399L33.4192 63.894C34.8127 63.5891 35.9275 64.453 35.9275 66.0452V67.0953C31.8632 67.8406 29.9123 68.01 29.9123 69.8562C29.9123 71.5839 32.5831 71.5839 32.5831 71.5839C33.7211 71.5839 34.7198 71.1774 35.3469 70.754L35.0682 70.466C34.8824 70.5338 34.6501 70.5507 34.3947 70.5507C32.8851 70.5507 32.8851 69.4328 32.8851 69.4328C32.8851 68.5689 33.6515 67.7729 35.9275 67.4002V70.0595C35.9275 71.5839 38.2732 71.5839 38.2732 71.5839C39.7364 71.5839 40.8047 70.9233 40.9905 70.3813L40.5957 70.2628C40.4564 70.5507 39.9686 70.5507 39.9686 70.5507Z" fill="#343434"/>
<path d="M47.455 70.3813C46.2938 70.3813 45.7364 69.8901 45.7364 68.9416V63.894H48.4072L48.5001 63.6061H45.7364V60.9807L42.8333 61.3364V63.6061H41.6024L41.672 63.894H42.8333V68.9924C42.8333 71.0419 43.9248 71.5839 45.7596 71.5839C47.3157 71.5839 48.7324 70.737 49.1969 69.9409L48.8485 69.7885C48.6395 70.0426 48.1285 70.3813 47.455 70.3813Z" fill="#343434"/>
<path d="M53.8538 69.3481V58.7956L49.7895 59.507V59.795C50.7185 60.0491 50.9507 60.2184 50.9507 60.8113V69.3481C50.9507 70.2119 50.9043 70.9403 50.0217 71.1266V71.4315H54.806V71.1266C53.9699 70.9742 53.8538 70.2797 53.8538 69.3481ZM60.6123 69.3481V66.079C60.6123 64.0465 59.5439 63.4536 57.6859 63.4536C56.5479 63.4536 55.108 64.0295 54.3183 64.707L54.6202 65.0627C54.9918 64.8426 55.4099 64.724 55.7815 64.724C57.1285 64.724 57.7324 65.1813 57.7324 66.1468V69.3481C57.7324 70.2119 57.6859 70.9572 56.8034 71.1435V71.4315H61.5645V71.1435C60.7516 70.9911 60.6123 70.2797 60.6123 69.3481Z" fill="#343434"/>
<path d="M68.6727 70.1442C67.1167 69.8901 65.9554 69.0263 65.7696 67.3663H73.1551C73.1551 64.8426 71.692 63.5722 68.603 63.4706V63.7585C69.6249 64.0465 70.3217 65.266 70.3217 67.0784H65.7696C65.7696 65.6386 66.5128 64.0803 67.6508 63.7585V63.4875C64.7477 63.6569 62.7736 65.3168 62.7736 67.5527C62.7736 69.5344 64.8638 71.5839 67.9063 71.5839C71.0184 71.5839 72.3887 70.2458 72.7603 69.365L72.3655 69.2126C71.7849 70.0087 69.9269 70.3474 68.6727 70.1442Z" fill="#343434"/>
<path d="M78.5297 69.365V63.4536L74.4421 64.1312V64.4191C75.3943 64.7748 75.6033 65.0289 75.6033 65.6048V69.365C75.6033 70.2458 75.5801 70.9403 74.6743 71.1435V71.4315H79.4819V71.1435C78.6458 70.9742 78.5297 70.3136 78.5297 69.365ZM81.2702 63.5383C80.7825 63.6908 80.0161 63.894 79.0174 64.8595L79.2496 65.0966C79.8303 64.707 80.3412 64.707 80.3412 64.8426C80.3412 65.1474 80.527 65.4354 80.8754 65.6725C81.6186 66.1299 82.6869 66.0621 83.314 65.537C83.9411 65.0289 83.8714 64.2158 83.1514 63.7585C82.6405 63.4536 81.7579 63.3859 81.2702 63.5383Z" fill="#343434"/>
<path d="M104.413 67.8745C103.855 69.5514 102.23 71.008 99.8374 71.2621V71.567C101.951 71.5331 103.577 71.279 105.133 70.5338L104.807 67.8745H104.413ZM99.8374 59.6764C102.021 59.8797 103.228 60.9807 104.413 63.0471H104.807L105.133 60.3878C103.809 59.6087 101.928 59.4054 99.8374 59.3546V59.6764ZM91.0584 65.4693C91.0584 68.6706 93.8454 71.3129 98.3974 71.567V71.2621C96.3304 71.025 95.2389 69.653 95.2389 65.4693C95.2389 61.2855 96.284 59.9136 98.3974 59.6764V59.3715C93.8454 59.6256 91.0584 62.268 91.0584 65.4693Z" fill="#343434"/>
<path d="M110.487 69.365V63.4536L106.399 64.1312V64.4191C107.351 64.7748 107.56 65.0289 107.56 65.6048V69.365C107.56 70.2458 107.537 70.9403 106.631 71.1435V71.4315H111.439V71.1435C110.603 70.9742 110.487 70.3136 110.487 69.365ZM113.227 63.5383C112.739 63.6908 111.973 63.894 110.974 64.8595L111.206 65.0966C111.787 64.707 112.298 64.707 112.298 64.8426C112.298 65.1474 112.484 65.4354 112.832 65.6725C113.575 66.1299 114.644 66.0621 115.271 65.537C115.898 65.0289 115.828 64.2158 115.108 63.7585C114.597 63.4536 113.715 63.3859 113.227 63.5383Z" fill="#343434"/>
<path d="M119.228 66.2992C119.832 65.9943 119.995 65.4015 119.577 64.9611C119.367 64.7409 119.066 64.6224 118.717 64.5885C118.601 64.5885 118.624 64.4191 118.973 64.2158L118.81 63.9448C117.811 64.3852 117.533 64.7748 117.324 65.0289C117.091 65.3168 117.115 65.7233 117.393 66.0452C117.811 66.4856 118.624 66.5872 119.228 66.2992ZM126.381 70.5507C125.243 70.5507 125.267 69.365 125.267 69.365V66.8413C125.267 64.8426 124.43 63.4536 121.388 63.4536C121.388 63.4536 120.552 63.4198 119.669 63.6399L119.832 63.894C121.225 63.5891 122.34 64.453 122.34 66.0452V67.0953C118.276 67.8406 116.325 68.01 116.325 69.8562C116.325 71.5839 118.996 71.5839 118.996 71.5839C120.134 71.5839 121.133 71.1774 121.76 70.754L121.481 70.466C121.295 70.5338 121.063 70.5507 120.807 70.5507C119.298 70.5507 119.298 69.4328 119.298 69.4328C119.298 68.5689 120.064 67.7729 122.34 67.4002V70.0595C122.34 71.5839 124.686 71.5839 124.686 71.5839C126.149 71.5839 127.217 70.9233 127.403 70.3813L127.008 70.2628C126.869 70.5507 126.381 70.5507 126.381 70.5507Z" fill="#343434"/>
<path d="M134.216 58.8465V59.1344C134.727 59.2191 134.913 59.4224 134.634 59.4562C134.286 59.507 133.984 59.6595 133.821 59.9136C133.473 60.4217 133.752 61.0145 134.448 61.2686C135.122 61.5057 135.958 61.3025 136.306 60.8113C136.539 60.4556 136.469 59.9644 136.19 59.6595C135.981 59.4054 135.238 58.965 134.216 58.8465ZM133.264 59.1175V58.8295C130.756 58.9142 129.409 59.9136 129.409 63.6061H127.899L127.922 63.894H129.409V69.5175C129.409 70.3813 129.385 70.9572 128.503 71.1435V71.4315H133.264V71.1435C132.428 70.9742 132.312 70.4491 132.312 69.5175V63.894H134.727L134.797 63.6061H132.312C132.312 60.8113 132.66 59.4901 133.264 59.1175Z" fill="#343434"/>
<path d="M141.624 70.3813C140.463 70.3813 139.906 69.8901 139.906 68.9416V63.894H142.577L142.67 63.6061H139.906V60.9807L137.003 61.3364V63.6061H135.772L135.842 63.894H137.003V68.9924C137.003 71.0419 138.094 71.5839 139.929 71.5839C141.485 71.5839 142.902 70.737 143.366 69.9409L143.018 69.7885C142.809 70.0426 142.298 70.3813 141.624 70.3813Z" fill="#343434"/>
<path d="M155.744 59.795V59.507H148.335V59.795C148.939 59.795 149.729 59.795 150.472 61.167L156.301 71.4315H156.696L158.252 68.3318L154.699 61.7598C154.699 61.7598 153.7 59.795 155.744 59.795ZM164.151 59.795V59.507H156.743V59.795C157.346 59.795 158.159 59.795 158.879 61.167L164.569 71.4315H164.964L166.59 68.3657L163.106 61.7598C163.106 61.7598 162.061 59.795 164.151 59.795ZM166.869 59.795C170.817 59.795 168.611 63.7585 168.611 63.7585L168.982 63.8432C171.119 60.2015 172.652 59.795 173.72 59.795V59.507H166.869V59.795Z" fill="#343434"/>
<path d="M183.945 67.5188C183.945 65.3846 182.134 63.623 178.882 63.4706V63.7755C180.16 63.911 180.508 64.7748 180.508 67.5188C180.508 70.2628 180.16 71.1266 178.882 71.2621V71.567C182.134 71.4146 183.945 69.636 183.945 67.5188ZM176.304 67.5188C176.304 64.7748 176.653 63.911 177.93 63.7755V63.4706C174.702 63.623 172.89 65.3846 172.89 67.5188C172.89 69.636 174.702 71.4146 177.93 71.567V71.2621C176.653 71.1266 176.304 70.2628 176.304 67.5188Z" fill="#343434"/>
<path d="M189.256 69.365V63.4536L185.168 64.1312V64.4191C186.121 64.7748 186.33 65.0289 186.33 65.6048V69.365C186.33 70.2458 186.306 70.9403 185.401 71.1435V71.4315H190.208V71.1435C189.372 70.9742 189.256 70.3136 189.256 69.365ZM191.996 63.5383C191.509 63.6908 190.742 63.894 189.744 64.8595L189.976 65.0966C190.557 64.707 191.067 64.707 191.067 64.8426C191.067 65.1474 191.253 65.4354 191.602 65.6725C192.345 66.1299 193.413 66.0621 194.04 65.537C194.667 65.0289 194.598 64.2158 193.878 63.7585C193.367 63.4536 192.484 63.3859 191.996 63.5383Z" fill="#343434"/>
<path d="M199.006 69.382V58.7956L194.941 59.4224V59.7103C195.87 59.9644 196.103 60.2184 196.103 60.8113V69.382C196.103 70.2458 196.056 70.9572 195.174 71.1435V71.4315H199.958V71.1435C199.122 70.9911 199.006 70.3136 199.006 69.382ZM205.207 70.2966C205.207 70.2966 205.16 70.2966 201.723 66.7566C204.812 63.9787 207.181 63.9279 207.599 63.894V63.6061H201.955V63.894C204.975 63.8263 201.653 66.2823 201.653 66.2823L199.47 68.01C199.47 68.01 200.074 68.6875 200.771 69.4328C202.327 71.1266 202.536 71.4315 204.139 71.4315H207.413V71.1435C207.018 71.1266 205.973 71.0758 205.207 70.2966Z" fill="#343434"/>
<path d="M215.951 65.8588H216.345V63.9618C216.345 63.9618 215.323 63.5214 213.024 63.4706V63.7755C215.022 63.9618 215.672 65.3168 215.951 65.8588ZM214.72 67.0445L212.374 65.9774C210.586 65.1474 210.888 64.0295 212.049 63.7924V63.4706C210.075 63.5722 209.308 64.3005 209.308 64.3005C208.031 65.5201 208.635 66.8921 210.888 67.8914L213.233 68.9246C214.813 69.6869 214.766 70.9742 213.558 71.2452V71.567C215.556 71.4654 216.322 70.6693 216.322 70.6693C217.483 69.4497 216.787 67.9761 214.72 67.0445ZM209.262 68.6706H208.867V70.8048C208.867 70.8048 210.098 71.4992 212.583 71.5839V71.279C210.26 71.0589 209.587 69.2973 209.262 68.6706Z" fill="#343434"/>
<path d="M222.438 69.3481V58.7956L218.374 59.507V59.795C219.303 60.0491 219.535 60.2184 219.535 60.8113V69.3481C219.535 70.2119 219.489 70.9403 218.606 71.1266V71.4315H223.39V71.1266C222.554 70.9742 222.438 70.2797 222.438 69.3481ZM229.196 69.3481V66.079C229.196 64.0465 228.128 63.4536 226.27 63.4536C225.132 63.4536 223.692 64.0295 222.903 64.707L223.204 65.0627C223.576 64.8426 223.994 64.724 224.366 64.724C225.713 64.724 226.317 65.1813 226.317 66.1468V69.3481C226.317 70.2119 226.27 70.9572 225.388 71.1435V71.4315H230.149V71.1435C229.336 70.9911 229.196 70.2797 229.196 69.3481Z" fill="#343434"/>
<path d="M242.529 67.5188C242.529 65.3846 240.717 63.623 237.466 63.4706V63.7755C238.743 63.911 239.092 64.7748 239.092 67.5188C239.092 70.2628 238.743 71.1266 237.466 71.2621V71.567C240.717 71.4146 242.529 69.636 242.529 67.5188ZM234.888 67.5188C234.888 64.7748 235.236 63.911 236.514 63.7755V63.4706C233.286 63.623 231.474 65.3846 231.474 67.5188C231.474 69.636 233.286 71.4146 236.514 71.567V71.2621C235.236 71.1266 234.888 70.2628 234.888 67.5188Z" fill="#343434"/>
<path d="M251.393 63.4536C250.302 63.4536 248.606 63.8263 247.863 64.8256V63.4536L243.822 64.1312V64.4191C244.751 64.6732 244.983 64.7917 244.983 65.3676V73.9891C244.983 74.853 244.937 75.4458 244.054 75.6321V75.9201H248.815V75.6321C248.002 75.4797 247.863 74.9377 247.863 73.9891V71.0588C248.444 71.3468 249.233 71.5162 250.093 71.567V71.279C249.047 71.1266 248.026 70.5168 247.863 69.0093V65.9097C248.026 64.8934 248.862 64.0803 250.255 64.0803C252.136 64.0803 253.019 65.0119 253.019 67.739C253.019 70.0595 252.415 71.0927 251.045 71.279V71.5839C254.087 71.4654 256.34 70.195 256.34 67.5865C256.34 64.9272 254.018 63.4536 251.393 63.4536Z" fill="#343434"/>
<path d="M15.3409 67.7559H14.946C14.2957 70.483 10.1849 71.008 8.60565 71.1266V71.4315H15.3409V67.7559ZM7.16571 61.3025C7.16571 60.0829 8.32696 59.795 9.32562 59.795V59.507H1.96335V59.795C2.96202 59.795 3.79811 60.2693 3.79811 61.3025V69.2465C3.79811 70.3983 3.14782 71.1435 2.14915 71.1435V71.4315H7.16571V61.3025Z" stroke="black" stroke-width="0.4" mask="url(#path-1-outside-1_370_1469)"/>
<path d="M23.5158 70.1442C21.9598 69.8901 20.7985 69.0263 20.6127 67.3663H27.9982C27.9982 64.8426 26.5351 63.5722 23.4461 63.4706V63.7585C24.468 64.0465 25.1648 65.266 25.1648 67.0784H20.6127C20.6127 65.6386 21.3559 64.0803 22.4939 63.7585V63.4875C19.5908 63.6569 17.6167 65.3168 17.6167 67.5527C17.6167 69.5344 19.7069 71.5839 22.7494 71.5839C25.8615 71.5839 27.2318 70.2458 27.6034 69.365L27.2086 69.2126C26.628 70.0087 24.77 70.3474 23.5158 70.1442Z" stroke="black" stroke-width="0.4" mask="url(#path-1-outside-1_370_1469)"/>
<path d="M32.8154 66.2992C33.4192 65.9943 33.5818 65.4015 33.1638 64.9611C32.9547 64.7409 32.6528 64.6224 32.3044 64.5885C32.1883 64.5885 32.2115 64.4191 32.5599 64.2158L32.3973 63.9448C31.3987 64.3852 31.12 64.7748 30.9109 65.0289C30.6787 65.3168 30.7019 65.7233 30.9806 66.0452C31.3987 66.4856 32.2115 66.5872 32.8154 66.2992ZM39.9686 70.5507C38.8306 70.5507 38.8538 69.365 38.8538 69.365V66.8413C38.8538 64.8426 38.0177 63.4536 34.9753 63.4536C34.9753 63.4536 34.1392 63.4198 33.2567 63.6399L33.4192 63.894C34.8127 63.5891 35.9275 64.453 35.9275 66.0452V67.0953C31.8632 67.8406 29.9123 68.01 29.9123 69.8562C29.9123 71.5839 32.5831 71.5839 32.5831 71.5839C33.7211 71.5839 34.7198 71.1774 35.3469 70.754L35.0682 70.466C34.8824 70.5338 34.6501 70.5507 34.3947 70.5507C32.8851 70.5507 32.8851 69.4328 32.8851 69.4328C32.8851 68.5689 33.6515 67.7729 35.9275 67.4002V70.0595C35.9275 71.5839 38.2732 71.5839 38.2732 71.5839C39.7364 71.5839 40.8047 70.9233 40.9905 70.3813L40.5957 70.2628C40.4564 70.5507 39.9686 70.5507 39.9686 70.5507Z" stroke="black" stroke-width="0.4" mask="url(#path-1-outside-1_370_1469)"/>
<path d="M47.455 70.3813C46.2938 70.3813 45.7364 69.8901 45.7364 68.9416V63.894H48.4072L48.5001 63.6061H45.7364V60.9807L42.8333 61.3364V63.6061H41.6024L41.672 63.894H42.8333V68.9924C42.8333 71.0419 43.9248 71.5839 45.7596 71.5839C47.3157 71.5839 48.7324 70.737 49.1969 69.9409L48.8485 69.7885C48.6395 70.0426 48.1285 70.3813 47.455 70.3813Z" stroke="black" stroke-width="0.4" mask="url(#path-1-outside-1_370_1469)"/>
<path d="M53.8538 69.3481V58.7956L49.7895 59.507V59.795C50.7185 60.0491 50.9507 60.2184 50.9507 60.8113V69.3481C50.9507 70.2119 50.9043 70.9403 50.0217 71.1266V71.4315H54.806V71.1266C53.9699 70.9742 53.8538 70.2797 53.8538 69.3481ZM60.6123 69.3481V66.079C60.6123 64.0465 59.5439 63.4536 57.6859 63.4536C56.5479 63.4536 55.108 64.0295 54.3183 64.707L54.6202 65.0627C54.9918 64.8426 55.4099 64.724 55.7815 64.724C57.1285 64.724 57.7324 65.1813 57.7324 66.1468V69.3481C57.7324 70.2119 57.6859 70.9572 56.8034 71.1435V71.4315H61.5645V71.1435C60.7516 70.9911 60.6123 70.2797 60.6123 69.3481Z" stroke="black" stroke-width="0.4" mask="url(#path-1-outside-1_370_1469)"/>
<path d="M68.6727 70.1442C67.1167 69.8901 65.9554 69.0263 65.7696 67.3663H73.1551C73.1551 64.8426 71.692 63.5722 68.603 63.4706V63.7585C69.6249 64.0465 70.3217 65.266 70.3217 67.0784H65.7696C65.7696 65.6386 66.5128 64.0803 67.6508 63.7585V63.4875C64.7477 63.6569 62.7736 65.3168 62.7736 67.5527C62.7736 69.5344 64.8638 71.5839 67.9063 71.5839C71.0184 71.5839 72.3887 70.2458 72.7603 69.365L72.3655 69.2126C71.7849 70.0087 69.9269 70.3474 68.6727 70.1442Z" stroke="black" stroke-width="0.4" mask="url(#path-1-outside-1_370_1469)"/>
<path d="M78.5297 69.365V63.4536L74.4421 64.1312V64.4191C75.3943 64.7748 75.6033 65.0289 75.6033 65.6048V69.365C75.6033 70.2458 75.5801 70.9403 74.6743 71.1435V71.4315H79.4819V71.1435C78.6458 70.9742 78.5297 70.3136 78.5297 69.365ZM81.2702 63.5383C80.7825 63.6908 80.0161 63.894 79.0174 64.8595L79.2496 65.0966C79.8303 64.707 80.3412 64.707 80.3412 64.8426C80.3412 65.1474 80.527 65.4354 80.8754 65.6725C81.6186 66.1299 82.6869 66.0621 83.314 65.537C83.9411 65.0289 83.8714 64.2158 83.1514 63.7585C82.6405 63.4536 81.7579 63.3859 81.2702 63.5383Z" stroke="black" stroke-width="0.4" mask="url(#path-1-outside-1_370_1469)"/>
<path d="M104.413 67.8745C103.855 69.5514 102.23 71.008 99.8374 71.2621V71.567C101.951 71.5331 103.577 71.279 105.133 70.5338L104.807 67.8745H104.413ZM99.8374 59.6764C102.021 59.8797 103.228 60.9807 104.413 63.0471H104.807L105.133 60.3878C103.809 59.6087 101.928 59.4054 99.8374 59.3546V59.6764ZM91.0584 65.4693C91.0584 68.6706 93.8454 71.3129 98.3974 71.567V71.2621C96.3304 71.025 95.2389 69.653 95.2389 65.4693C95.2389 61.2855 96.284 59.9136 98.3974 59.6764V59.3715C93.8454 59.6256 91.0584 62.268 91.0584 65.4693Z" stroke="black" stroke-width="0.4" mask="url(#path-1-outside-1_370_1469)"/>
<path d="M110.487 69.365V63.4536L106.399 64.1312V64.4191C107.351 64.7748 107.56 65.0289 107.56 65.6048V69.365C107.56 70.2458 107.537 70.9403 106.631 71.1435V71.4315H111.439V71.1435C110.603 70.9742 110.487 70.3136 110.487 69.365ZM113.227 63.5383C112.739 63.6908 111.973 63.894 110.974 64.8595L111.206 65.0966C111.787 64.707 112.298 64.707 112.298 64.8426C112.298 65.1474 112.484 65.4354 112.832 65.6725C113.575 66.1299 114.644 66.0621 115.271 65.537C115.898 65.0289 115.828 64.2158 115.108 63.7585C114.597 63.4536 113.715 63.3859 113.227 63.5383Z" stroke="black" stroke-width="0.4" mask="url(#path-1-outside-1_370_1469)"/>
<path d="M119.228 66.2992C119.832 65.9943 119.995 65.4015 119.577 64.9611C119.367 64.7409 119.066 64.6224 118.717 64.5885C118.601 64.5885 118.624 64.4191 118.973 64.2158L118.81 63.9448C117.811 64.3852 117.533 64.7748 117.324 65.0289C117.091 65.3168 117.115 65.7233 117.393 66.0452C117.811 66.4856 118.624 66.5872 119.228 66.2992ZM126.381 70.5507C125.243 70.5507 125.267 69.365 125.267 69.365V66.8413C125.267 64.8426 124.43 63.4536 121.388 63.4536C121.388 63.4536 120.552 63.4198 119.669 63.6399L119.832 63.894C121.225 63.5891 122.34 64.453 122.34 66.0452V67.0953C118.276 67.8406 116.325 68.01 116.325 69.8562C116.325 71.5839 118.996 71.5839 118.996 71.5839C120.134 71.5839 121.133 71.1774 121.76 70.754L121.481 70.466C121.295 70.5338 121.063 70.5507 120.807 70.5507C119.298 70.5507 119.298 69.4328 119.298 69.4328C119.298 68.5689 120.064 67.7729 122.34 67.4002V70.0595C122.34 71.5839 124.686 71.5839 124.686 71.5839C126.149 71.5839 127.217 70.9233 127.403 70.3813L127.008 70.2628C126.869 70.5507 126.381 70.5507 126.381 70.5507Z" stroke="black" stroke-width="0.4" mask="url(#path-1-outside-1_370_1469)"/>
<path d="M134.216 58.8465V59.1344C134.727 59.2191 134.913 59.4224 134.634 59.4562C134.286 59.507 133.984 59.6595 133.821 59.9136C133.473 60.4217 133.752 61.0145 134.448 61.2686C135.122 61.5057 135.958 61.3025 136.306 60.8113C136.539 60.4556 136.469 59.9644 136.19 59.6595C135.981 59.4054 135.238 58.965 134.216 58.8465ZM133.264 59.1175V58.8295C130.756 58.9142 129.409 59.9136 129.409 63.6061H127.899L127.922 63.894H129.409V69.5175C129.409 70.3813 129.385 70.9572 128.503 71.1435V71.4315H133.264V71.1435C132.428 70.9742 132.312 70.4491 132.312 69.5175V63.894H134.727L134.797 63.6061H132.312C132.312 60.8113 132.66 59.4901 133.264 59.1175Z" stroke="black" stroke-width="0.4" mask="url(#path-1-outside-1_370_1469)"/>
<path d="M141.624 70.3813C140.463 70.3813 139.906 69.8901 139.906 68.9416V63.894H142.577L142.67 63.6061H139.906V60.9807L137.003 61.3364V63.6061H135.772L135.842 63.894H137.003V68.9924C137.003 71.0419 138.094 71.5839 139.929 71.5839C141.485 71.5839 142.902 70.737 143.366 69.9409L143.018 69.7885C142.809 70.0426 142.298 70.3813 141.624 70.3813Z" stroke="black" stroke-width="0.4" mask="url(#path-1-outside-1_370_1469)"/>
<path d="M155.744 59.795V59.507H148.335V59.795C148.939 59.795 149.729 59.795 150.472 61.167L156.301 71.4315H156.696L158.252 68.3318L154.699 61.7598C154.699 61.7598 153.7 59.795 155.744 59.795ZM164.151 59.795V59.507H156.743V59.795C157.346 59.795 158.159 59.795 158.879 61.167L164.569 71.4315H164.964L166.59 68.3657L163.106 61.7598C163.106 61.7598 162.061 59.795 164.151 59.795ZM166.869 59.795C170.817 59.795 168.611 63.7585 168.611 63.7585L168.982 63.8432C171.119 60.2015 172.652 59.795 173.72 59.795V59.507H166.869V59.795Z" stroke="black" stroke-width="0.4" mask="url(#path-1-outside-1_370_1469)"/>
<path d="M183.945 67.5188C183.945 65.3846 182.134 63.623 178.882 63.4706V63.7755C180.16 63.911 180.508 64.7748 180.508 67.5188C180.508 70.2628 180.16 71.1266 178.882 71.2621V71.567C182.134 71.4146 183.945 69.636 183.945 67.5188ZM176.304 67.5188C176.304 64.7748 176.653 63.911 177.93 63.7755V63.4706C174.702 63.623 172.89 65.3846 172.89 67.5188C172.89 69.636 174.702 71.4146 177.93 71.567V71.2621C176.653 71.1266 176.304 70.2628 176.304 67.5188Z" stroke="black" stroke-width="0.4" mask="url(#path-1-outside-1_370_1469)"/>
<path d="M189.256 69.365V63.4536L185.168 64.1312V64.4191C186.121 64.7748 186.33 65.0289 186.33 65.6048V69.365C186.33 70.2458 186.306 70.9403 185.401 71.1435V71.4315H190.208V71.1435C189.372 70.9742 189.256 70.3136 189.256 69.365ZM191.996 63.5383C191.509 63.6908 190.742 63.894 189.744 64.8595L189.976 65.0966C190.557 64.707 191.067 64.707 191.067 64.8426C191.067 65.1474 191.253 65.4354 191.602 65.6725C192.345 66.1299 193.413 66.0621 194.04 65.537C194.667 65.0289 194.598 64.2158 193.878 63.7585C193.367 63.4536 192.484 63.3859 191.996 63.5383Z" stroke="black" stroke-width="0.4" mask="url(#path-1-outside-1_370_1469)"/>
<path d="M199.006 69.382V58.7956L194.941 59.4224V59.7103C195.87 59.9644 196.103 60.2184 196.103 60.8113V69.382C196.103 70.2458 196.056 70.9572 195.174 71.1435V71.4315H199.958V71.1435C199.122 70.9911 199.006 70.3136 199.006 69.382ZM205.207 70.2966C205.207 70.2966 205.16 70.2966 201.723 66.7566C204.812 63.9787 207.181 63.9279 207.599 63.894V63.6061H201.955V63.894C204.975 63.8263 201.653 66.2823 201.653 66.2823L199.47 68.01C199.47 68.01 200.074 68.6875 200.771 69.4328C202.327 71.1266 202.536 71.4315 204.139 71.4315H207.413V71.1435C207.018 71.1266 205.973 71.0758 205.207 70.2966Z" stroke="black" stroke-width="0.4" mask="url(#path-1-outside-1_370_1469)"/>
<path d="M215.951 65.8588H216.345V63.9618C216.345 63.9618 215.323 63.5214 213.024 63.4706V63.7755C215.022 63.9618 215.672 65.3168 215.951 65.8588ZM214.72 67.0445L212.374 65.9774C210.586 65.1474 210.888 64.0295 212.049 63.7924V63.4706C210.075 63.5722 209.308 64.3005 209.308 64.3005C208.031 65.5201 208.635 66.8921 210.888 67.8914L213.233 68.9246C214.813 69.6869 214.766 70.9742 213.558 71.2452V71.567C215.556 71.4654 216.322 70.6693 216.322 70.6693C217.483 69.4497 216.787 67.9761 214.72 67.0445ZM209.262 68.6706H208.867V70.8048C208.867 70.8048 210.098 71.4992 212.583 71.5839V71.279C210.26 71.0589 209.587 69.2973 209.262 68.6706Z" stroke="black" stroke-width="0.4" mask="url(#path-1-outside-1_370_1469)"/>
<path d="M222.438 69.3481V58.7956L218.374 59.507V59.795C219.303 60.0491 219.535 60.2184 219.535 60.8113V69.3481C219.535 70.2119 219.489 70.9403 218.606 71.1266V71.4315H223.39V71.1266C222.554 70.9742 222.438 70.2797 222.438 69.3481ZM229.196 69.3481V66.079C229.196 64.0465 228.128 63.4536 226.27 63.4536C225.132 63.4536 223.692 64.0295 222.903 64.707L223.204 65.0627C223.576 64.8426 223.994 64.724 224.366 64.724C225.713 64.724 226.317 65.1813 226.317 66.1468V69.3481C226.317 70.2119 226.27 70.9572 225.388 71.1435V71.4315H230.149V71.1435C229.336 70.9911 229.196 70.2797 229.196 69.3481Z" stroke="black" stroke-width="0.4" mask="url(#path-1-outside-1_370_1469)"/>
<path d="M242.529 67.5188C242.529 65.3846 240.717 63.623 237.466 63.4706V63.7755C238.743 63.911 239.092 64.7748 239.092 67.5188C239.092 70.2628 238.743 71.1266 237.466 71.2621V71.567C240.717 71.4146 242.529 69.636 242.529 67.5188ZM234.888 67.5188C234.888 64.7748 235.236 63.911 236.514 63.7755V63.4706C233.286 63.623 231.474 65.3846 231.474 67.5188C231.474 69.636 233.286 71.4146 236.514 71.567V71.2621C235.236 71.1266 234.888 70.2628 234.888 67.5188Z" stroke="black" stroke-width="0.4" mask="url(#path-1-outside-1_370_1469)"/>
<path d="M251.393 63.4536C250.302 63.4536 248.606 63.8263 247.863 64.8256V63.4536L243.822 64.1312V64.4191C244.751 64.6732 244.983 64.7917 244.983 65.3676V73.9891C244.983 74.853 244.937 75.4458 244.054 75.6321V75.9201H248.815V75.6321C248.002 75.4797 247.863 74.9377 247.863 73.9891V71.0588C248.444 71.3468 249.233 71.5162 250.093 71.567V71.279C249.047 71.1266 248.026 70.5168 247.863 69.0093V65.9097C248.026 64.8934 248.862 64.0803 250.255 64.0803C252.136 64.0803 253.019 65.0119 253.019 67.739C253.019 70.0595 252.415 71.0927 251.045 71.279V71.5839C254.087 71.4654 256.34 70.195 256.34 67.5865C256.34 64.9272 254.018 63.4536 251.393 63.4536Z" stroke="black" stroke-width="0.4" mask="url(#path-1-outside-1_370_1469)"/>
<path d="M33.0252 43.4051L32.5733 43.4488V43.9028V44.7353V45.2488L33.0866 45.2351C39.8241 45.0553 44.3834 44.1533 49.6822 41.5569L49.9934 41.4044L49.9599 41.0595L49.0629 31.8423L49.019 31.3907H48.5653H47.5053H47.0668L47.0096 31.8254C46.074 38.9333 39.6718 42.7626 33.0252 43.4051ZM47.0217 14.7724L47.1195 15.1457H47.5053H48.5653H49.0187L49.0629 14.6944L49.9598 5.53669L49.9908 5.22045L49.7176 5.05812C45.201 2.37412 39.7945 1.53949 33.0822 1.42009L32.5733 1.41104V1.92001V2.69306V3.14903L33.0273 3.19095C36.1807 3.48206 39.1637 4.42544 41.6099 6.25965C44.05 8.08929 45.9879 10.8287 47.0217 14.7724ZM26.6004 45.1748L27.1319 45.2083V44.6758V43.9028V43.4481L26.6792 43.405C22.9958 43.0546 19.4904 41.9235 16.8956 38.9925C14.2963 36.0563 12.5367 31.2303 12.5367 23.3276C12.5367 15.5433 14.2559 10.7154 16.8373 7.7488C19.4131 4.78862 22.9187 3.6004 26.6782 3.25038L27.1319 3.20814V2.75253V1.97948V1.44695L26.6004 1.48047C18.9837 1.96089 12.6141 4.20051 8.13851 7.94391C3.65146 11.6969 1.10001 16.9371 1.10001 23.3276C1.10001 29.6598 3.6522 34.8991 8.13775 38.6661C12.6126 42.4242 18.982 44.6943 26.6004 45.1748ZM74.8934 3.66879H75.3934V3.16879V2.39574V1.89574H74.8934H54.5907H54.0907V2.39574V3.16879V3.66879H54.5907C56.3536 3.66879 57.6362 3.95106 58.4781 4.62261C59.2936 5.27311 59.7983 6.37587 59.7983 8.28284V29.9878C59.7983 34.9988 61.9781 38.8487 65.5176 41.4301C69.0406 43.9994 73.8825 45.2947 79.2149 45.2947C84.3225 45.2947 89.4004 44.3054 93.2086 41.9259C97.0452 39.5287 99.5706 35.7299 99.5284 30.2218L99.5246 29.7257H99.0284H97.9684H97.4684V30.2257C97.4684 33.8757 95.951 36.7027 93.4441 38.6302C90.9235 40.5682 87.3707 41.6188 83.2918 41.6188C78.9198 41.6188 75.3071 40.5795 72.8003 38.6801C70.3095 36.7928 68.8705 34.0285 68.8705 30.4635V8.40177C68.8705 6.17099 69.5762 5.05594 70.5759 4.45148C71.6368 3.81003 73.1368 3.66879 74.8934 3.66879ZM87.847 3.16879V3.67194L88.3502 3.66878C92.9916 3.6396 95.1828 4.91953 96.2768 6.72793C97.4141 8.60807 97.4684 11.1903 97.4684 14.051V14.551H97.9684H99.0284H99.5284V14.051C99.5284 13.9281 99.5283 13.8056 99.5282 13.6837C99.527 12.3932 99.5259 11.1615 99.654 10.0145C99.7936 8.76345 100.083 7.65765 100.664 6.73569C101.8 4.93388 104.184 3.6394 109.462 3.66878L109.965 3.67158V3.16879V2.39574V1.89574H109.465H88.347H87.847V2.39574V3.16879ZM138.05 3.3082L138.488 3.25383V2.812V1.97948V1.44209L137.952 1.48078C130.03 2.05254 124.098 4.73596 120.144 8.72624C116.188 12.7174 114.25 17.9775 114.25 23.625C114.25 29.274 116.19 34.4039 120.15 38.2552C124.107 42.1032 130.039 44.6335 137.954 45.1746L138.488 45.2112V44.6758V43.8433V43.395L138.043 43.3463C134.052 42.9097 130.731 41.5231 128.394 38.5328C126.045 35.5277 124.627 30.8253 124.627 23.625C124.627 16.4562 126.044 11.6286 128.401 8.47824C130.745 5.34323 134.071 3.80151 138.05 3.3082ZM144.384 1.48076L143.848 1.44229V1.97948V2.812V3.25383L144.287 3.3082C148.268 3.80176 151.614 5.32989 153.978 8.45797C156.354 11.6006 157.791 16.4273 157.791 23.625C157.791 30.8239 156.353 35.526 153.985 38.5312C151.627 41.5226 148.285 42.9096 144.294 43.3463L143.848 43.395V43.8433V44.6758V45.211L144.382 45.1747C152.337 44.6336 158.309 42.1191 162.297 38.2792C166.289 34.4354 168.249 29.3048 168.249 23.625C168.249 17.976 166.29 12.7155 162.304 8.72484C158.319 4.73534 152.346 2.05244 144.384 1.48076ZM175.844 1.89574H175.344V2.39574V3.16879V3.66879H175.844C177.615 3.66879 178.905 3.92329 179.749 4.53908C180.556 5.12739 181.052 6.12139 181.052 7.86658V37.8967C181.052 39.83 180.528 41.07 179.678 41.8368C178.818 42.6124 177.535 42.9865 175.844 42.9865H175.344V43.4865V44.2596V44.7596H175.844H195.658H196.158V44.2596V43.4865V42.9865H195.658C194.011 42.9865 192.725 42.6136 191.853 41.8351C190.992 41.0661 190.45 39.8247 190.45 37.8967V7.86658C190.45 6.12764 190.963 5.1315 191.782 4.54053C192.638 3.92249 193.931 3.66879 195.658 3.66879H196.158V3.16879V2.39574V1.89574H195.658H175.844ZM226.275 3.3082L226.714 3.25383V2.812V1.97948V1.44209L226.178 1.48078C218.256 2.05254 212.324 4.73596 208.369 8.72624C204.414 12.7174 202.476 17.9775 202.476 23.625C202.476 29.274 204.415 34.4039 208.376 38.2552C212.333 42.1032 218.265 44.6335 226.18 45.1746L226.714 45.2112V44.6758V43.8433V43.395L226.268 43.3463C222.277 42.9097 218.957 41.5231 216.62 38.5328C214.271 35.5277 212.853 30.8253 212.853 23.625C212.853 16.4562 214.27 11.6286 216.626 8.47824C218.971 5.34323 222.297 3.80151 226.275 3.3082ZM232.61 1.48076L232.074 1.44229V1.97948V2.812V3.25383L232.512 3.3082C236.493 3.80176 239.84 5.32989 242.204 8.45797C244.579 11.6006 246.017 16.4273 246.017 23.625C246.017 30.8239 244.579 35.526 242.21 38.5312C239.852 41.5226 236.511 42.9096 232.519 43.3463L232.074 43.395V43.8433V44.6758V45.211L232.608 45.1747C240.562 44.6336 246.534 42.1191 250.522 38.2792C254.515 34.4354 256.475 29.3048 256.475 23.625C256.475 17.976 254.516 12.7155 250.529 8.72484C246.544 4.73534 240.572 2.05244 232.61 1.48076Z" fill="#343434" stroke="black"/>
</svg>
