<svg width="109" height="38" viewBox="0 0 109 38" fill="none" xmlns="http://www.w3.org/2000/svg">
<mask id="path-1-inside-1_370_1500" fill="white">
<path fill-rule="evenodd" clip-rule="evenodd" d="M13.6799 0.230264C16.0382 0.814696 17.5527 2.32752 18.4993 5.04453C19.1022 6.77494 19.2572 6.45403 19.498 2.97762L19.6073 1.3978L18.7997 0.961799C17.4675 0.242536 16.3547 -0.00473605 14.5204 0.0106874L12.8507 0.0247839L13.6799 0.230264ZM18.671 15.4417C18.2935 17.802 16.2328 19.9366 13.7214 20.5683C12.4237 20.8947 12.7605 21.1194 14.3848 21.0109C15.9175 20.9086 17.5003 20.4821 18.7382 19.8378L19.4844 19.4495L19.4485 17.9737C19.3956 15.8031 19.2485 14.7566 18.9962 14.7566C18.8717 14.7566 18.7342 15.0464 18.671 15.4417Z"/>
<path d="M36.5527 19.6746C32.6657 19.6746 30.0267 17.5835 30.0267 13.9018V2.97476C30.0267 0.64797 31.3462 0.382893 32.8796 0.382893V3.66596e-06H24V0.382893C25.5691 0.382893 26.4963 0.9425 26.4963 2.91585V13.6662C26.4963 18.467 30.1694 21 34.7697 21C39.1917 21 43.471 19.0561 43.4354 13.784H42.9718C42.9718 17.554 40.1902 19.6746 36.5527 19.6746ZM38.7637 0.382893C42.9004 0.353441 42.9718 2.97476 42.9718 5.7728H43.4354C43.4354 2.97476 43.3284 0.353441 48 0.382893V3.66596e-06H38.7637V0.382893Z"/>
<path fill-rule="evenodd" clip-rule="evenodd" d="M7.01708 20.6647C2.72052 19.1995 0.272981 15.8646 0.0198718 11.1305C-0.299836 5.14901 3.26292 0.708696 8.91906 0.0392626C10.143 -0.105618 10.408 0.177852 9.29646 0.442943C6.9753 0.996472 5.33568 2.71915 4.62565 5.35036C3.98239 7.73369 3.88503 11.9588 4.41327 14.5597C5.08782 17.8805 6.63828 19.9097 9.01625 20.5836C9.52089 20.7266 9.93395 20.8756 9.93395 20.9147C9.93395 21.1156 7.80385 20.9329 7.01708 20.6647Z"/>
<path fill-rule="evenodd" clip-rule="evenodd" d="M54.9257 0.417235C53.4189 0.949023 52.3674 1.65085 51.1861 2.91376C49.3828 4.84141 48.5123 7.32022 48.5172 10.5126C48.5209 12.7889 48.8293 14.3058 49.6119 15.896C50.3553 17.4066 51.9604 19.0669 53.4293 19.8446C54.9699 20.66 57.9515 21.3474 57.9515 20.8869C57.9515 20.8023 57.559 20.6191 57.079 20.4795C54.0234 19.5912 52.6053 16.9364 52.3758 11.6742C52.1126 5.64306 53.6454 1.62816 56.6106 0.581639C58.0641 0.0685598 58.0886 0.0371032 57.0409 0.0289906C56.3994 0.0240237 55.6503 0.161441 54.9257 0.417235ZM61.0144 0.174852C61.1965 0.250679 61.7172 0.444885 62.1715 0.606309C63.1868 0.966905 64.5292 2.25896 65.1389 3.46243C65.8664 4.89803 66.2396 6.78694 66.3462 9.57402C66.501 13.6229 66.0028 16.2952 64.7406 18.1854C63.954 19.3633 63.0957 19.9937 61.6157 20.4808C60.1272 20.9707 60.6553 21.18 62.4753 20.8215C66.223 20.0831 69.0831 17.3434 69.9821 13.6306C70.1571 12.908 70.2508 11.8138 70.2479 10.5275C70.2406 7.23578 69.4232 4.93594 67.5485 2.93197C65.8212 1.08545 63.6532 0.0135932 61.6767 0.0289906C60.9861 0.0342886 60.7843 0.0788252 61.0144 0.174852ZM75.17 0.179818C75.17 0.270878 75.4207 0.345381 75.7272 0.345381C76.5037 0.345381 77.079 0.854487 77.3017 1.73892C77.4267 2.23561 77.4869 5.02634 77.4851 10.2283C77.4821 17.8994 77.4515 18.4469 76.9043 20.5917L76.7866 21.0532L80.0399 20.958L80.8669 18.6401L80.9573 10.3619C81.047 2.12369 81.0494 2.08081 81.4227 1.48048C81.8045 0.866573 82.6464 0.345381 83.2565 0.345381C83.4422 0.345381 83.6402 0.270878 83.6965 0.179818C83.7638 0.0710435 82.3186 0.0142554 79.4845 0.0142554C76.7186 0.0142554 75.17 0.0736925 75.17 0.179818Z"/>
<path d="M89.1861 2.91377C90.3674 1.65085 91.4189 0.94903 92.9257 0.417242C93.6503 0.161447 94.3994 0.0240304 95.0409 0.0289973C96.0886 0.0371099 96.0641 0.0685666 94.6106 0.581646C91.6454 1.62817 90.1126 5.64307 90.3758 11.6742C90.6053 16.9364 92.0234 19.5912 95.079 20.4795C95.559 20.6191 95.9515 20.8023 95.9515 20.8869C95.9515 21.3474 92.9699 20.66 91.4293 19.8446C89.9604 19.0669 88.3553 17.4066 87.6119 15.896C86.8293 14.3058 86.5209 12.7889 86.5172 10.5126C86.5123 7.32022 87.3828 4.84141 89.1861 2.91377Z"/>
<path d="M100.172 0.606315C99.7172 0.444891 99.1965 0.250686 99.0144 0.174858C98.7843 0.0788319 98.9861 0.0342953 99.6767 0.0289973C101.653 0.0136 103.821 1.08545 105.549 2.93198C107.423 4.93595 108.241 7.23579 108.248 10.5275C108.251 11.8138 108.157 12.908 107.982 13.6307C107.083 17.3434 104.223 20.0831 100.475 20.8215C98.6553 21.18 98.1272 20.9707 99.6157 20.4808C101.096 19.9937 101.954 19.3633 102.741 18.1855C104.003 16.2952 104.501 13.6229 104.346 9.57403C104.24 6.78694 103.866 4.89804 103.139 3.46244C102.529 2.25896 101.187 0.966911 100.172 0.606315Z"/>
<path d="M1.0917 25.0521C2.18143 24.2895 2.18886 24.2877 5.13098 24.1788C6.75216 24.1187 8.11962 24.0943 8.16962 24.1242C8.28163 24.1914 8.3135 24.1661 6.98687 25.0713C5.95172 25.7779 5.78229 25.82 3.71178 25.889C2.51091 25.929 1.18449 25.929 0.764189 25.889L1.47458e-09 25.8163L1.0917 25.0521Z"/>
<path d="M12.2803 24.943C13.2572 24.3248 13.4751 24.2812 16.1554 24.1692C17.7176 24.1037 19.02 24.0301 19.0501 24.0054C19.0803 23.9805 19.1047 24.051 19.1047 24.162C19.1047 24.2729 18.5429 24.715 17.856 25.1445L16.6076 25.9255H13.9259C12.4513 25.9255 11.2447 25.8517 11.2449 25.7617C11.2452 25.6718 11.7111 25.3032 12.2803 24.943Z"/>
<path d="M45.3601 24.9174C46.242 24.3192 46.4341 24.2825 49.2356 24.1788C50.8568 24.1187 52.2242 24.0943 52.2742 24.1242C52.3863 24.1914 52.4181 24.1661 51.0915 25.0713C50.0096 25.8095 49.9749 25.817 47.216 25.8881C45.5596 25.9309 44.4321 25.8766 44.4321 25.7534C44.4321 25.6399 44.8496 25.2635 45.3601 24.9174Z"/>
<path d="M56.3862 24.9414C57.367 24.3235 57.5775 24.282 60.2618 24.1788C61.8229 24.1187 63.1816 24.1047 63.281 24.1475C63.3803 24.1906 62.8399 24.608 62.0801 25.0755L60.6984 25.9253H58.0238C56.5526 25.9255 55.3491 25.851 55.3491 25.7602C55.3491 25.6692 55.8157 25.3008 56.3862 24.9414Z"/>
<path d="M67.5216 24.9091C68.4794 24.3353 68.7755 24.2788 71.3971 24.1692C72.9582 24.1037 74.2602 24.0301 74.2901 24.0054C74.32 23.9805 74.3447 24.0441 74.3447 24.1462C74.3447 24.2482 73.8287 24.6646 73.1984 25.0713C72.0713 25.7984 72.0056 25.812 69.2683 25.8855C67.5366 25.932 66.4844 25.879 66.4844 25.7451C66.4844 25.627 66.951 25.2508 67.5216 24.9091Z"/>
<path d="M78.8752 24.9414C79.856 24.3235 80.0665 24.282 82.7508 24.1788C85.3333 24.0794 86.0721 24.105 85.8767 24.2868C85.8385 24.3222 85.218 24.705 84.4975 25.1377L83.1874 25.9244L80.5128 25.9248C79.0416 25.9253 77.8381 25.851 77.8381 25.7602C77.8381 25.6692 78.3047 25.3008 78.8752 24.9414Z"/>
<path d="M100.926 24.943C101.913 24.3185 102.099 24.2829 104.911 24.1788C106.533 24.1187 107.901 24.0943 107.951 24.1242C108.063 24.1914 108.095 24.1661 106.768 25.0713C105.68 25.8139 105.667 25.8165 102.783 25.8877C101.192 25.9272 99.8906 25.8781 99.8909 25.7785C99.8911 25.6792 100.357 25.3032 100.926 24.943Z"/>
<path d="M22.3798 25.7504C22.3798 25.6349 22.8466 25.2353 23.4169 24.8622C24.4468 24.1886 24.4744 24.1838 27.3988 24.1814L30.3433 24.1788L27.9475 25.8163L25.1637 25.8881C23.4785 25.9318 22.3798 25.8775 22.3798 25.7504Z"/>
<path d="M33.3007 25.7617C33.3029 25.6718 33.7697 25.2849 34.3379 24.9023L35.371 24.2067L38.4097 24.1927C40.0808 24.1851 41.4073 24.2176 41.3573 24.265C41.307 24.3124 40.6767 24.705 39.9562 25.1377L38.6461 25.9244L35.9715 25.9248C34.5003 25.9253 33.2986 25.8517 33.3007 25.7617Z"/>
<path d="M89.0038 25.7309C89.0472 25.6043 89.5248 25.2109 90.0651 24.8567C91.0186 24.2318 91.1298 24.2122 93.8315 24.1958C95.3625 24.1864 96.6153 24.2532 96.6153 24.3441C96.6153 24.4351 96.1487 24.8028 95.5782 25.1611C94.5891 25.7825 94.4112 25.8161 91.733 25.8868C89.83 25.9373 88.9505 25.8871 89.0038 25.7309Z"/>
<path d="M1.47458e-09 34.4403V28.5453H0.732967C1.31157 28.5456 1.43799 28.6183 1.3334 28.891C1.26048 29.0809 1.20087 30.4073 1.20087 31.8386V34.4407L1.47458e-09 34.4403Z"/>
<path d="M20.0017 34.4407L19.8689 28.5449L21.0698 28.5456V34.4407H20.0017Z"/>
<path d="M37.3383 32.2696C37.1333 31.0569 37.373 30.1713 38.1437 29.2936C38.5051 28.8822 38.9939 28.5456 39.2304 28.5456C39.6525 28.5456 39.652 28.5563 39.2079 29.1209C38.8341 29.596 38.7555 30.0047 38.7566 31.468C38.7575 32.58 38.8747 33.4634 39.0712 33.8403C39.359 34.3918 39.3516 34.4407 38.9802 34.4407C38.3878 34.4407 37.5086 33.2779 37.3383 32.2696Z"/>
<path d="M42.6446 29.3643C42.7326 30.2763 42.4828 30.2512 41.8671 29.286L41.3763 28.5167L41.9762 28.5857C42.476 28.6432 42.5876 28.7733 42.6446 29.3643Z"/>
<path d="M53.3841 32.0532C53.3841 30.7401 53.4799 29.4137 53.5969 29.1056C53.7142 28.7975 53.9598 28.5456 54.1428 28.5456C54.4247 28.5456 54.4758 28.9973 54.4758 31.4932V34.4407H53.3841V32.0532Z"/>
<path d="M55.4948 29.1619C55.2793 29.2039 55.1308 29.0925 55.1308 28.889C55.1308 28.6866 55.3175 28.5456 55.5856 28.5456C56.1177 28.5456 56.0426 29.0558 55.4948 29.1619Z"/>
<path d="M65.2091 34.4407C65.1024 34.4407 64.4746 33.1143 63.8144 31.4932L62.6137 28.5456H63.4574C64.1875 28.5456 64.301 28.6119 64.301 29.0384C64.301 29.3093 64.6403 30.3956 65.0552 31.4521C65.6443 32.9528 65.765 33.4901 65.6065 33.9069C65.4949 34.2006 65.3161 34.4407 65.2091 34.4407Z"/>
<path d="M67.0283 31.6643C66.429 30.1373 65.9058 28.8108 65.8659 28.7167C65.8257 28.6226 66.1999 28.5456 66.6975 28.5456C67.2469 28.5456 67.5488 28.6316 67.4665 28.7646C67.3921 28.8851 67.6866 29.9512 68.1209 31.1338C68.9008 33.2567 68.9897 34.4407 68.3692 34.4407C68.2309 34.4407 67.6277 33.1914 67.0283 31.6643Z"/>
<path d="M70.0718 30.2499C70.0467 30.2868 69.9881 29.9183 69.9416 29.4312C69.8615 28.5908 69.8877 28.5456 70.456 28.5456H71.055L70.5862 29.3643C70.3283 29.8148 70.0969 30.2132 70.0718 30.2499Z"/>
<path d="M81.7918 34.4407L81.7254 31.4927C81.6595 28.5615 81.6619 28.5449 82.1503 28.5451C82.6322 28.5456 82.6416 28.5949 82.6416 31.1477C82.6416 32.579 82.7012 33.9054 82.7741 34.0953C82.8737 34.3547 82.7678 34.4407 82.3492 34.4407H81.7918Z"/>
<path d="M92.1939 34.4407C91.7088 34.4407 91.7027 34.4043 91.7027 31.4932C91.7027 28.582 91.7088 28.5456 92.1939 28.5456C92.6791 28.5456 92.6852 28.582 92.6852 31.4932C92.6852 34.4043 92.6791 34.4407 92.1939 34.4407Z"/>
<path d="M16.4846 32.4757C16.4246 31.4549 16.4109 30.3004 16.4539 29.9102C16.5117 29.3875 16.6412 29.2006 16.9451 29.2006C17.3936 29.2006 17.4074 29.2947 17.37 32.1482C17.3473 33.8776 17.5397 34.3401 18.2091 34.165C18.4615 34.099 18.668 34.1394 18.668 34.2547C18.668 34.3702 18.2012 34.4346 17.6309 34.3982L16.5938 34.3316L16.4846 32.4757Z"/>
<path d="M56.8408 32.4211C56.7967 31.3102 56.798 30.1311 56.8439 29.801C56.9011 29.3877 57.0555 29.2006 57.3389 29.2006C57.6557 29.2006 57.7537 29.3648 57.7631 29.9102C57.8382 34.2842 57.8105 34.1139 58.4441 34.1058C58.7655 34.1019 58.9808 34.1755 58.9225 34.2696C58.8644 34.3637 58.3902 34.4407 57.8688 34.4407H56.921L56.8408 32.4211Z"/>
<path d="M5.84102 32.8135C5.74364 31.9486 5.805 31.768 6.39692 31.1761C7.18185 30.3912 7.72464 30.272 7.21766 30.996C7.03076 31.2628 6.8777 31.7106 6.8777 31.991C6.8777 32.4558 6.9598 32.4949 7.80565 32.4335C8.65542 32.3722 8.72748 32.3204 8.66023 31.8207C8.61962 31.5204 8.49691 31.1814 8.3873 31.0674C8.12006 30.7897 8.13447 30.5106 8.4159 30.5106C8.85564 30.5106 9.71612 31.5877 9.71612 32.1384C9.71612 32.6768 9.67201 32.694 8.29691 32.694C7.18098 32.694 6.8777 32.7641 6.8777 33.0215C6.8777 33.8392 8.56088 34.6366 8.95193 34.0041C9.16459 33.66 9.498 33.7495 9.35848 34.1132C9.26525 34.3562 8.87922 34.4407 7.86351 34.4407C6.26198 34.4407 6.00085 34.2307 5.84102 32.8135Z"/>
<path d="M13.2705 31.6783C13.2438 31.3381 13.053 30.9362 12.8465 30.7851C12.51 30.5392 12.5307 30.5106 13.0462 30.5106C13.8858 30.5106 14.3013 31.2462 14.3013 32.7318C14.3013 33.6925 14.3899 34.034 14.6833 34.2049C14.9923 34.3848 14.9089 34.4287 14.2467 34.4342C13.436 34.4407 13.4279 34.4322 13.4279 33.5674C13.4279 32.6294 13.1617 32.4707 12.4552 32.9875C12.1764 33.1912 12.0877 33.4578 12.1648 33.8608C12.2602 34.3595 12.2015 34.4407 11.7462 34.4407C11.2812 34.4407 11.2251 34.3551 11.2853 33.7359C11.3447 33.1226 11.4812 32.9838 12.3362 32.6641C13.2074 32.3386 13.3133 32.2268 13.2705 31.6783Z"/>
<path d="M21.875 31.2045C21.3707 31.1466 21.3071 31.0783 21.5196 30.8224C21.6619 30.6508 22.0554 30.5106 22.3942 30.5106C23.3217 30.5106 23.6899 31.2069 23.6899 32.9611C23.6899 34.3868 23.6702 34.4407 23.1536 34.4407C22.6392 34.4407 22.6148 34.3757 22.5532 32.8578C22.4901 31.3025 22.4783 31.2735 21.875 31.2045Z"/>
<path d="M25.2997 33.7108C24.8298 32.7255 25.0436 31.5532 25.8016 30.9567C26.5481 30.3696 26.8567 30.3888 26.4316 30.996C26.2447 31.2628 26.0916 31.7049 26.0916 31.9785C26.0916 32.4117 26.2023 32.4757 26.9521 32.4757C28.0125 32.4757 28.1844 32.2309 27.7438 31.3477C27.3385 30.5353 27.335 30.5106 27.6298 30.5106C28.0695 30.5106 28.93 31.5877 28.93 32.1384C28.93 32.6768 28.8859 32.694 27.5108 32.694C25.9484 32.694 25.706 32.9635 26.5283 33.7857C27.0156 34.2731 27.6429 34.3423 28.3145 33.9829C28.668 33.7938 28.7418 33.8054 28.665 34.0375C28.5995 34.2355 28.0929 34.3525 27.1126 34.3962L25.6573 34.4606L25.2997 33.7108Z"/>
<path d="M30.1999 31.0318C30.0224 30.922 30.0735 30.8202 30.3636 30.7067C31.2669 30.353 31.3318 30.4484 31.3318 32.1303C31.3318 33.0211 31.3914 33.9054 31.4643 34.0953C31.5643 34.3558 31.4569 34.4407 31.0276 34.4407C30.4652 34.4407 30.4584 34.4213 30.4584 32.8161C30.4584 31.8004 30.3615 31.1316 30.1999 31.0318Z"/>
<path d="M32.3215 31.3877C31.8986 31.1615 31.8291 31.0283 32.0163 30.8028C32.3466 30.4045 33.0628 30.4342 33.2234 30.8528C33.4448 31.4298 32.9492 31.7237 32.3215 31.3877Z"/>
<path d="M43.9553 31.0318C43.7778 30.922 43.8289 30.8202 44.119 30.7067C45.1819 30.2905 45.3496 30.6093 45.271 32.8953C45.2212 34.3469 45.1876 34.4407 44.716 34.4407C44.2369 34.4407 44.2138 34.3656 44.2138 32.8161C44.2138 31.8004 44.1168 31.1316 43.9553 31.0318Z"/>
<path d="M45.9136 31.3039C45.6216 31.0822 45.597 30.9615 45.8018 30.7567C46.2138 30.3447 46.9339 30.5554 47.0129 31.1111C47.0933 31.6768 46.5337 31.775 45.9136 31.3039Z"/>
<path d="M49.2583 32.6661C50.3716 32.2538 50.5985 31.6552 49.9039 30.9606L49.454 30.5106H49.9843C50.8893 30.5106 51.2007 31.0473 51.2007 32.6076C51.2007 33.8663 51.2535 34.0394 51.6919 34.2156C52.1031 34.3809 52.0319 34.4154 51.2553 34.427L50.3273 34.4407V33.5674C50.3273 32.6615 50.1561 32.5366 49.4395 32.92C48.9636 33.1748 48.8858 33.7853 49.2793 34.1787C49.483 34.3824 49.3845 34.4407 48.8358 34.4407C48.0548 34.4407 47.7112 33.9573 48.0773 33.3739C48.1992 33.1801 48.7306 32.8617 49.2583 32.6661Z"/>
<path d="M72.2829 33.9554C71.7117 33.1401 71.8451 31.8849 72.5811 31.1488C73.3728 30.3571 73.8346 30.3047 73.3379 31.063C73.0584 31.4894 73.0017 31.9375 73.0892 33.0281C73.2128 34.5678 72.9353 34.887 72.2829 33.9554Z"/>
<path d="M74.9602 33.022C75.0279 31.9578 74.961 31.4667 74.6925 31.0569C74.3717 30.5674 74.3702 30.5106 74.677 30.5106C74.8654 30.5106 75.2606 30.7519 75.5554 31.0466C76.2135 31.7045 76.3121 33.3982 75.73 34.0414C75.0569 34.7853 74.8641 34.5303 74.9602 33.022Z"/>
<path d="M77.5818 32.6394C77.541 31.6038 77.6034 30.77 77.7289 30.6777C77.849 30.5894 78.1193 30.5159 78.3294 30.5139C78.6652 30.5111 78.7115 30.7484 78.7115 32.4757C78.7115 34.4097 78.7032 34.4407 78.1822 34.4407C77.6706 34.4407 77.6506 34.3807 77.5818 32.6394Z"/>
<path d="M79.3195 31.3039C79.0276 31.0822 79.003 30.9615 79.2078 30.7567C79.6198 30.3447 80.3399 30.5554 80.4189 31.1111C80.4992 31.6768 79.9396 31.775 79.3195 31.3039Z"/>
<path d="M83.7082 31.9558C84.1706 31.4787 84.397 31.0667 84.3149 30.8525C84.2084 30.575 84.3571 30.5119 85.1047 30.5172C85.8957 30.5231 85.9643 30.5578 85.5892 30.7643C85.349 30.8966 84.8366 31.3025 84.4503 31.6667L83.7483 32.3285L85.3226 34.4728L84.6128 34.4023C84.0593 34.3471 83.8001 34.1536 83.4366 33.5244L82.9702 32.7172L83.7082 31.9558Z"/>
<path d="M88.5252 33.2338C87.0994 32.4966 86.64 31.5652 87.3514 30.8536C87.8282 30.377 88.0095 30.4246 87.9994 31.0239C87.9935 31.3807 88.2907 31.7672 88.9734 32.2905C89.7437 32.8811 89.956 33.1822 89.956 33.6846C89.956 34.1215 89.8343 34.349 89.5739 34.3993C89.3103 34.4499 89.1918 34.334 89.1918 34.0257C89.1918 33.7479 88.9392 33.4479 88.5252 33.2338Z"/>
<path d="M89.7651 30.8309C89.99 31.417 89.7437 31.4993 89.2542 31.0019C88.7868 30.527 88.7852 30.5106 89.2064 30.5106C89.4461 30.5106 89.6975 30.6547 89.7651 30.8309Z"/>
<path d="M93.4806 31.1586C92.83 31.1521 92.8164 31.1351 93.2182 30.8312C93.7306 30.4436 94.6837 30.413 95.0433 30.7726C95.2022 30.9316 95.3053 31.7043 95.3053 32.7377C95.3053 34.2951 95.268 34.4407 94.8686 34.4407C94.4811 34.4407 94.4319 34.2951 94.4319 33.1486C94.4319 31.4268 94.3077 31.1672 93.4806 31.1586Z"/>
<path d="M97.052 32.5058C97.052 31.5881 97.1431 31.344 97.6273 30.9632C98.4066 30.3501 98.6673 30.3934 98.2286 31.063C97.9492 31.4894 97.8924 31.9375 97.98 33.0281C98.0679 34.1244 98.0274 34.4407 97.7987 34.4407C97.3389 34.4407 97.052 33.6973 97.052 32.5058Z"/>
<path d="M99.8509 33.022C99.9186 31.9578 99.8518 31.4667 99.5832 31.0569C99.0981 30.3163 99.6097 30.3095 100.404 31.046C100.858 31.4661 100.982 31.7851 100.982 32.5259C100.982 33.4951 100.513 34.4407 100.031 34.4407C99.8343 34.4407 99.7852 34.0543 99.8509 33.022Z"/>
<path d="M102.385 31.0934C102.308 30.8918 102.412 30.7279 102.658 30.6641C103.352 30.4849 103.602 30.5041 103.602 30.7366C103.602 30.8925 103.733 30.8925 104.024 30.7366C105.77 29.8023 107.53 31.8897 106.567 33.7519C106.132 34.5938 105.208 34.763 105.489 33.9495C105.772 33.129 105.625 31.5912 105.22 31.144C104.757 30.6327 104.398 30.6189 103.923 31.0945C103.633 31.3844 103.575 31.7689 103.642 32.9503L103.726 34.4407H103.118C102.512 34.4407 102.511 34.4368 102.511 32.9303C102.511 32.0995 102.454 31.2728 102.385 31.0934Z"/>
<path d="M11.7956 32.039C11.3947 32.039 11.2578 31.5818 11.5115 31.0897C11.71 30.7043 11.7338 30.7069 12.0403 31.1447C12.3853 31.6373 12.2755 32.039 11.7956 32.039Z"/>
<path d="M48.6769 32.039C48.4869 32.039 48.3622 31.8228 48.3622 31.4932C48.3622 30.8827 48.8913 30.7407 49.1037 31.2945C49.2695 31.7263 49.0902 32.039 48.6769 32.039Z"/>
<path d="M3.14737 34.4407L3.75697 33.6726C4.30566 32.9814 4.374 32.9501 4.43863 33.361C4.55304 34.0877 4.31439 34.4407 3.70937 34.4407H3.14737Z"/>
<path d="M41.6083 34.4407L42.0594 33.6765C42.3073 33.2562 42.5496 32.9124 42.5979 32.9124C42.6459 32.9124 42.6854 33.2562 42.6854 33.6765C42.6854 34.3434 42.6169 34.4407 42.147 34.4407H41.6083Z"/>
<path d="M87.3359 34.4407C87.1226 34.4407 87.0108 34.2316 87.0154 33.8403C87.0219 33.2652 87.0359 33.2578 87.3429 33.6637C87.7514 34.2038 87.7492 34.4407 87.3359 34.4407Z"/>
<path d="M102.44 36.3512C102.498 35.841 102.584 35.3006 102.631 35.1503C102.677 35.0003 102.915 34.8774 103.159 34.8774C103.529 34.8774 103.602 35.0185 103.602 35.7329C103.602 36.2034 103.662 36.7438 103.735 36.9337C103.84 37.2084 103.71 37.2792 103.1 37.2792H102.334L102.44 36.3512Z"/>
</mask>
<path fill-rule="evenodd" clip-rule="evenodd" d="M13.6799 0.230264C16.0382 0.814696 17.5527 2.32752 18.4993 5.04453C19.1022 6.77494 19.2572 6.45403 19.498 2.97762L19.6073 1.3978L18.7997 0.961799C17.4675 0.242536 16.3547 -0.00473605 14.5204 0.0106874L12.8507 0.0247839L13.6799 0.230264ZM18.671 15.4417C18.2935 17.802 16.2328 19.9366 13.7214 20.5683C12.4237 20.8947 12.7605 21.1194 14.3848 21.0109C15.9175 20.9086 17.5003 20.4821 18.7382 19.8378L19.4844 19.4495L19.4485 17.9737C19.3956 15.8031 19.2485 14.7566 18.9962 14.7566C18.8717 14.7566 18.7342 15.0464 18.671 15.4417Z" fill="#343434"/>
<path d="M36.5527 19.6746C32.6657 19.6746 30.0267 17.5835 30.0267 13.9018V2.97476C30.0267 0.64797 31.3462 0.382893 32.8796 0.382893V3.66596e-06H24V0.382893C25.5691 0.382893 26.4963 0.9425 26.4963 2.91585V13.6662C26.4963 18.467 30.1694 21 34.7697 21C39.1917 21 43.471 19.0561 43.4354 13.784H42.9718C42.9718 17.554 40.1902 19.6746 36.5527 19.6746ZM38.7637 0.382893C42.9004 0.353441 42.9718 2.97476 42.9718 5.7728H43.4354C43.4354 2.97476 43.3284 0.353441 48 0.382893V3.66596e-06H38.7637V0.382893Z" fill="#343434"/>
<path fill-rule="evenodd" clip-rule="evenodd" d="M7.01708 20.6647C2.72052 19.1995 0.272981 15.8646 0.0198718 11.1305C-0.299836 5.14901 3.26292 0.708696 8.91906 0.0392626C10.143 -0.105618 10.408 0.177852 9.29646 0.442943C6.9753 0.996472 5.33568 2.71915 4.62565 5.35036C3.98239 7.73369 3.88503 11.9588 4.41327 14.5597C5.08782 17.8805 6.63828 19.9097 9.01625 20.5836C9.52089 20.7266 9.93395 20.8756 9.93395 20.9147C9.93395 21.1156 7.80385 20.9329 7.01708 20.6647Z" fill="#343434"/>
<path fill-rule="evenodd" clip-rule="evenodd" d="M54.9257 0.417235C53.4189 0.949023 52.3674 1.65085 51.1861 2.91376C49.3828 4.84141 48.5123 7.32022 48.5172 10.5126C48.5209 12.7889 48.8293 14.3058 49.6119 15.896C50.3553 17.4066 51.9604 19.0669 53.4293 19.8446C54.9699 20.66 57.9515 21.3474 57.9515 20.8869C57.9515 20.8023 57.559 20.6191 57.079 20.4795C54.0234 19.5912 52.6053 16.9364 52.3758 11.6742C52.1126 5.64306 53.6454 1.62816 56.6106 0.581639C58.0641 0.0685598 58.0886 0.0371032 57.0409 0.0289906C56.3994 0.0240237 55.6503 0.161441 54.9257 0.417235ZM61.0144 0.174852C61.1965 0.250679 61.7172 0.444885 62.1715 0.606309C63.1868 0.966905 64.5292 2.25896 65.1389 3.46243C65.8664 4.89803 66.2396 6.78694 66.3462 9.57402C66.501 13.6229 66.0028 16.2952 64.7406 18.1854C63.954 19.3633 63.0957 19.9937 61.6157 20.4808C60.1272 20.9707 60.6553 21.18 62.4753 20.8215C66.223 20.0831 69.0831 17.3434 69.9821 13.6306C70.1571 12.908 70.2508 11.8138 70.2479 10.5275C70.2406 7.23578 69.4232 4.93594 67.5485 2.93197C65.8212 1.08545 63.6532 0.0135932 61.6767 0.0289906C60.9861 0.0342886 60.7843 0.0788252 61.0144 0.174852ZM75.17 0.179818C75.17 0.270878 75.4207 0.345381 75.7272 0.345381C76.5037 0.345381 77.079 0.854487 77.3017 1.73892C77.4267 2.23561 77.4869 5.02634 77.4851 10.2283C77.4821 17.8994 77.4515 18.4469 76.9043 20.5917L76.7866 21.0532L80.0399 20.958L80.8669 18.6401L80.9573 10.3619C81.047 2.12369 81.0494 2.08081 81.4227 1.48048C81.8045 0.866573 82.6464 0.345381 83.2565 0.345381C83.4422 0.345381 83.6402 0.270878 83.6965 0.179818C83.7638 0.0710435 82.3186 0.0142554 79.4845 0.0142554C76.7186 0.0142554 75.17 0.0736925 75.17 0.179818Z" fill="#343434"/>
<path d="M89.1861 2.91377C90.3674 1.65085 91.4189 0.94903 92.9257 0.417242C93.6503 0.161447 94.3994 0.0240304 95.0409 0.0289973C96.0886 0.0371099 96.0641 0.0685666 94.6106 0.581646C91.6454 1.62817 90.1126 5.64307 90.3758 11.6742C90.6053 16.9364 92.0234 19.5912 95.079 20.4795C95.559 20.6191 95.9515 20.8023 95.9515 20.8869C95.9515 21.3474 92.9699 20.66 91.4293 19.8446C89.9604 19.0669 88.3553 17.4066 87.6119 15.896C86.8293 14.3058 86.5209 12.7889 86.5172 10.5126C86.5123 7.32022 87.3828 4.84141 89.1861 2.91377Z" fill="#343434"/>
<path d="M100.172 0.606315C99.7172 0.444891 99.1965 0.250686 99.0144 0.174858C98.7843 0.0788319 98.9861 0.0342953 99.6767 0.0289973C101.653 0.0136 103.821 1.08545 105.549 2.93198C107.423 4.93595 108.241 7.23579 108.248 10.5275C108.251 11.8138 108.157 12.908 107.982 13.6307C107.083 17.3434 104.223 20.0831 100.475 20.8215C98.6553 21.18 98.1272 20.9707 99.6157 20.4808C101.096 19.9937 101.954 19.3633 102.741 18.1855C104.003 16.2952 104.501 13.6229 104.346 9.57403C104.24 6.78694 103.866 4.89804 103.139 3.46244C102.529 2.25896 101.187 0.966911 100.172 0.606315Z" fill="#343434"/>
<path d="M1.0917 25.0521C2.18143 24.2895 2.18886 24.2877 5.13098 24.1788C6.75216 24.1187 8.11962 24.0943 8.16962 24.1242C8.28163 24.1914 8.3135 24.1661 6.98687 25.0713C5.95172 25.7779 5.78229 25.82 3.71178 25.889C2.51091 25.929 1.18449 25.929 0.764189 25.889L1.47458e-09 25.8163L1.0917 25.0521Z" fill="#343434"/>
<path d="M12.2803 24.943C13.2572 24.3248 13.4751 24.2812 16.1554 24.1692C17.7176 24.1037 19.02 24.0301 19.0501 24.0054C19.0803 23.9805 19.1047 24.051 19.1047 24.162C19.1047 24.2729 18.5429 24.715 17.856 25.1445L16.6076 25.9255H13.9259C12.4513 25.9255 11.2447 25.8517 11.2449 25.7617C11.2452 25.6718 11.7111 25.3032 12.2803 24.943Z" fill="#343434"/>
<path d="M45.3601 24.9174C46.242 24.3192 46.4341 24.2825 49.2356 24.1788C50.8568 24.1187 52.2242 24.0943 52.2742 24.1242C52.3863 24.1914 52.4181 24.1661 51.0915 25.0713C50.0096 25.8095 49.9749 25.817 47.216 25.8881C45.5596 25.9309 44.4321 25.8766 44.4321 25.7534C44.4321 25.6399 44.8496 25.2635 45.3601 24.9174Z" fill="#343434"/>
<path d="M56.3862 24.9414C57.367 24.3235 57.5775 24.282 60.2618 24.1788C61.8229 24.1187 63.1816 24.1047 63.281 24.1475C63.3803 24.1906 62.8399 24.608 62.0801 25.0755L60.6984 25.9253H58.0238C56.5526 25.9255 55.3491 25.851 55.3491 25.7602C55.3491 25.6692 55.8157 25.3008 56.3862 24.9414Z" fill="#343434"/>
<path d="M67.5216 24.9091C68.4794 24.3353 68.7755 24.2788 71.3971 24.1692C72.9582 24.1037 74.2602 24.0301 74.2901 24.0054C74.32 23.9805 74.3447 24.0441 74.3447 24.1462C74.3447 24.2482 73.8287 24.6646 73.1984 25.0713C72.0713 25.7984 72.0056 25.812 69.2683 25.8855C67.5366 25.932 66.4844 25.879 66.4844 25.7451C66.4844 25.627 66.951 25.2508 67.5216 24.9091Z" fill="#343434"/>
<path d="M78.8752 24.9414C79.856 24.3235 80.0665 24.282 82.7508 24.1788C85.3333 24.0794 86.0721 24.105 85.8767 24.2868C85.8385 24.3222 85.218 24.705 84.4975 25.1377L83.1874 25.9244L80.5128 25.9248C79.0416 25.9253 77.8381 25.851 77.8381 25.7602C77.8381 25.6692 78.3047 25.3008 78.8752 24.9414Z" fill="#343434"/>
<path d="M100.926 24.943C101.913 24.3185 102.099 24.2829 104.911 24.1788C106.533 24.1187 107.901 24.0943 107.951 24.1242C108.063 24.1914 108.095 24.1661 106.768 25.0713C105.68 25.8139 105.667 25.8165 102.783 25.8877C101.192 25.9272 99.8906 25.8781 99.8909 25.7785C99.8911 25.6792 100.357 25.3032 100.926 24.943Z" fill="#343434"/>
<path d="M22.3798 25.7504C22.3798 25.6349 22.8466 25.2353 23.4169 24.8622C24.4468 24.1886 24.4744 24.1838 27.3988 24.1814L30.3433 24.1788L27.9475 25.8163L25.1637 25.8881C23.4785 25.9318 22.3798 25.8775 22.3798 25.7504Z" fill="#343434"/>
<path d="M33.3007 25.7617C33.3029 25.6718 33.7697 25.2849 34.3379 24.9023L35.371 24.2067L38.4097 24.1927C40.0808 24.1851 41.4073 24.2176 41.3573 24.265C41.307 24.3124 40.6767 24.705 39.9562 25.1377L38.6461 25.9244L35.9715 25.9248C34.5003 25.9253 33.2986 25.8517 33.3007 25.7617Z" fill="#343434"/>
<path d="M89.0038 25.7309C89.0472 25.6043 89.5248 25.2109 90.0651 24.8567C91.0186 24.2318 91.1298 24.2122 93.8315 24.1958C95.3625 24.1864 96.6153 24.2532 96.6153 24.3441C96.6153 24.4351 96.1487 24.8028 95.5782 25.1611C94.5891 25.7825 94.4112 25.8161 91.733 25.8868C89.83 25.9373 88.9505 25.8871 89.0038 25.7309Z" fill="#343434"/>
<path d="M1.47458e-09 34.4403V28.5453H0.732967C1.31157 28.5456 1.43799 28.6183 1.3334 28.891C1.26048 29.0809 1.20087 30.4073 1.20087 31.8386V34.4407L1.47458e-09 34.4403Z" fill="#343434"/>
<path d="M20.0017 34.4407L19.8689 28.5449L21.0698 28.5456V34.4407H20.0017Z" fill="#343434"/>
<path d="M37.3383 32.2696C37.1333 31.0569 37.373 30.1713 38.1437 29.2936C38.5051 28.8822 38.9939 28.5456 39.2304 28.5456C39.6525 28.5456 39.652 28.5563 39.2079 29.1209C38.8341 29.596 38.7555 30.0047 38.7566 31.468C38.7575 32.58 38.8747 33.4634 39.0712 33.8403C39.359 34.3918 39.3516 34.4407 38.9802 34.4407C38.3878 34.4407 37.5086 33.2779 37.3383 32.2696Z" fill="#343434"/>
<path d="M42.6446 29.3643C42.7326 30.2763 42.4828 30.2512 41.8671 29.286L41.3763 28.5167L41.9762 28.5857C42.476 28.6432 42.5876 28.7733 42.6446 29.3643Z" fill="#343434"/>
<path d="M53.3841 32.0532C53.3841 30.7401 53.4799 29.4137 53.5969 29.1056C53.7142 28.7975 53.9598 28.5456 54.1428 28.5456C54.4247 28.5456 54.4758 28.9973 54.4758 31.4932V34.4407H53.3841V32.0532Z" fill="#343434"/>
<path d="M55.4948 29.1619C55.2793 29.2039 55.1308 29.0925 55.1308 28.889C55.1308 28.6866 55.3175 28.5456 55.5856 28.5456C56.1177 28.5456 56.0426 29.0558 55.4948 29.1619Z" fill="#343434"/>
<path d="M65.2091 34.4407C65.1024 34.4407 64.4746 33.1143 63.8144 31.4932L62.6137 28.5456H63.4574C64.1875 28.5456 64.301 28.6119 64.301 29.0384C64.301 29.3093 64.6403 30.3956 65.0552 31.4521C65.6443 32.9528 65.765 33.4901 65.6065 33.9069C65.4949 34.2006 65.3161 34.4407 65.2091 34.4407Z" fill="#343434"/>
<path d="M67.0283 31.6643C66.429 30.1373 65.9058 28.8108 65.8659 28.7167C65.8257 28.6226 66.1999 28.5456 66.6975 28.5456C67.2469 28.5456 67.5488 28.6316 67.4665 28.7646C67.3921 28.8851 67.6866 29.9512 68.1209 31.1338C68.9008 33.2567 68.9897 34.4407 68.3692 34.4407C68.2309 34.4407 67.6277 33.1914 67.0283 31.6643Z" fill="#343434"/>
<path d="M70.0718 30.2499C70.0467 30.2868 69.9881 29.9183 69.9416 29.4312C69.8615 28.5908 69.8877 28.5456 70.456 28.5456H71.055L70.5862 29.3643C70.3283 29.8148 70.0969 30.2132 70.0718 30.2499Z" fill="#343434"/>
<path d="M81.7918 34.4407L81.7254 31.4927C81.6595 28.5615 81.6619 28.5449 82.1503 28.5451C82.6322 28.5456 82.6416 28.5949 82.6416 31.1477C82.6416 32.579 82.7012 33.9054 82.7741 34.0953C82.8737 34.3547 82.7678 34.4407 82.3492 34.4407H81.7918Z" fill="#343434"/>
<path d="M92.1939 34.4407C91.7088 34.4407 91.7027 34.4043 91.7027 31.4932C91.7027 28.582 91.7088 28.5456 92.1939 28.5456C92.6791 28.5456 92.6852 28.582 92.6852 31.4932C92.6852 34.4043 92.6791 34.4407 92.1939 34.4407Z" fill="#343434"/>
<path d="M16.4846 32.4757C16.4246 31.4549 16.4109 30.3004 16.4539 29.9102C16.5117 29.3875 16.6412 29.2006 16.9451 29.2006C17.3936 29.2006 17.4074 29.2947 17.37 32.1482C17.3473 33.8776 17.5397 34.3401 18.2091 34.165C18.4615 34.099 18.668 34.1394 18.668 34.2547C18.668 34.3702 18.2012 34.4346 17.6309 34.3982L16.5938 34.3316L16.4846 32.4757Z" fill="#343434"/>
<path d="M56.8408 32.4211C56.7967 31.3102 56.798 30.1311 56.8439 29.801C56.9011 29.3877 57.0555 29.2006 57.3389 29.2006C57.6557 29.2006 57.7537 29.3648 57.7631 29.9102C57.8382 34.2842 57.8105 34.1139 58.4441 34.1058C58.7655 34.1019 58.9808 34.1755 58.9225 34.2696C58.8644 34.3637 58.3902 34.4407 57.8688 34.4407H56.921L56.8408 32.4211Z" fill="#343434"/>
<path d="M5.84102 32.8135C5.74364 31.9486 5.805 31.768 6.39692 31.1761C7.18185 30.3912 7.72464 30.272 7.21766 30.996C7.03076 31.2628 6.8777 31.7106 6.8777 31.991C6.8777 32.4558 6.9598 32.4949 7.80565 32.4335C8.65542 32.3722 8.72748 32.3204 8.66023 31.8207C8.61962 31.5204 8.49691 31.1814 8.3873 31.0674C8.12006 30.7897 8.13447 30.5106 8.4159 30.5106C8.85564 30.5106 9.71612 31.5877 9.71612 32.1384C9.71612 32.6768 9.67201 32.694 8.29691 32.694C7.18098 32.694 6.8777 32.7641 6.8777 33.0215C6.8777 33.8392 8.56088 34.6366 8.95193 34.0041C9.16459 33.66 9.498 33.7495 9.35848 34.1132C9.26525 34.3562 8.87922 34.4407 7.86351 34.4407C6.26198 34.4407 6.00085 34.2307 5.84102 32.8135Z" fill="#343434"/>
<path d="M13.2705 31.6783C13.2438 31.3381 13.053 30.9362 12.8465 30.7851C12.51 30.5392 12.5307 30.5106 13.0462 30.5106C13.8858 30.5106 14.3013 31.2462 14.3013 32.7318C14.3013 33.6925 14.3899 34.034 14.6833 34.2049C14.9923 34.3848 14.9089 34.4287 14.2467 34.4342C13.436 34.4407 13.4279 34.4322 13.4279 33.5674C13.4279 32.6294 13.1617 32.4707 12.4552 32.9875C12.1764 33.1912 12.0877 33.4578 12.1648 33.8608C12.2602 34.3595 12.2015 34.4407 11.7462 34.4407C11.2812 34.4407 11.2251 34.3551 11.2853 33.7359C11.3447 33.1226 11.4812 32.9838 12.3362 32.6641C13.2074 32.3386 13.3133 32.2268 13.2705 31.6783Z" fill="#343434"/>
<path d="M21.875 31.2045C21.3707 31.1466 21.3071 31.0783 21.5196 30.8224C21.6619 30.6508 22.0554 30.5106 22.3942 30.5106C23.3217 30.5106 23.6899 31.2069 23.6899 32.9611C23.6899 34.3868 23.6702 34.4407 23.1536 34.4407C22.6392 34.4407 22.6148 34.3757 22.5532 32.8578C22.4901 31.3025 22.4783 31.2735 21.875 31.2045Z" fill="#343434"/>
<path d="M25.2997 33.7108C24.8298 32.7255 25.0436 31.5532 25.8016 30.9567C26.5481 30.3696 26.8567 30.3888 26.4316 30.996C26.2447 31.2628 26.0916 31.7049 26.0916 31.9785C26.0916 32.4117 26.2023 32.4757 26.9521 32.4757C28.0125 32.4757 28.1844 32.2309 27.7438 31.3477C27.3385 30.5353 27.335 30.5106 27.6298 30.5106C28.0695 30.5106 28.93 31.5877 28.93 32.1384C28.93 32.6768 28.8859 32.694 27.5108 32.694C25.9484 32.694 25.706 32.9635 26.5283 33.7857C27.0156 34.2731 27.6429 34.3423 28.3145 33.9829C28.668 33.7938 28.7418 33.8054 28.665 34.0375C28.5995 34.2355 28.0929 34.3525 27.1126 34.3962L25.6573 34.4606L25.2997 33.7108Z" fill="#343434"/>
<path d="M30.1999 31.0318C30.0224 30.922 30.0735 30.8202 30.3636 30.7067C31.2669 30.353 31.3318 30.4484 31.3318 32.1303C31.3318 33.0211 31.3914 33.9054 31.4643 34.0953C31.5643 34.3558 31.4569 34.4407 31.0276 34.4407C30.4652 34.4407 30.4584 34.4213 30.4584 32.8161C30.4584 31.8004 30.3615 31.1316 30.1999 31.0318Z" fill="#343434"/>
<path d="M32.3215 31.3877C31.8986 31.1615 31.8291 31.0283 32.0163 30.8028C32.3466 30.4045 33.0628 30.4342 33.2234 30.8528C33.4448 31.4298 32.9492 31.7237 32.3215 31.3877Z" fill="#343434"/>
<path d="M43.9553 31.0318C43.7778 30.922 43.8289 30.8202 44.119 30.7067C45.1819 30.2905 45.3496 30.6093 45.271 32.8953C45.2212 34.3469 45.1876 34.4407 44.716 34.4407C44.2369 34.4407 44.2138 34.3656 44.2138 32.8161C44.2138 31.8004 44.1168 31.1316 43.9553 31.0318Z" fill="#343434"/>
<path d="M45.9136 31.3039C45.6216 31.0822 45.597 30.9615 45.8018 30.7567C46.2138 30.3447 46.9339 30.5554 47.0129 31.1111C47.0933 31.6768 46.5337 31.775 45.9136 31.3039Z" fill="#343434"/>
<path d="M49.2583 32.6661C50.3716 32.2538 50.5985 31.6552 49.9039 30.9606L49.454 30.5106H49.9843C50.8893 30.5106 51.2007 31.0473 51.2007 32.6076C51.2007 33.8663 51.2535 34.0394 51.6919 34.2156C52.1031 34.3809 52.0319 34.4154 51.2553 34.427L50.3273 34.4407V33.5674C50.3273 32.6615 50.1561 32.5366 49.4395 32.92C48.9636 33.1748 48.8858 33.7853 49.2793 34.1787C49.483 34.3824 49.3845 34.4407 48.8358 34.4407C48.0548 34.4407 47.7112 33.9573 48.0773 33.3739C48.1992 33.1801 48.7306 32.8617 49.2583 32.6661Z" fill="#343434"/>
<path d="M72.2829 33.9554C71.7117 33.1401 71.8451 31.8849 72.5811 31.1488C73.3728 30.3571 73.8346 30.3047 73.3379 31.063C73.0584 31.4894 73.0017 31.9375 73.0892 33.0281C73.2128 34.5678 72.9353 34.887 72.2829 33.9554Z" fill="#343434"/>
<path d="M74.9602 33.022C75.0279 31.9578 74.961 31.4667 74.6925 31.0569C74.3717 30.5674 74.3702 30.5106 74.677 30.5106C74.8654 30.5106 75.2606 30.7519 75.5554 31.0466C76.2135 31.7045 76.3121 33.3982 75.73 34.0414C75.0569 34.7853 74.8641 34.5303 74.9602 33.022Z" fill="#343434"/>
<path d="M77.5818 32.6394C77.541 31.6038 77.6034 30.77 77.7289 30.6777C77.849 30.5894 78.1193 30.5159 78.3294 30.5139C78.6652 30.5111 78.7115 30.7484 78.7115 32.4757C78.7115 34.4097 78.7032 34.4407 78.1822 34.4407C77.6706 34.4407 77.6506 34.3807 77.5818 32.6394Z" fill="#343434"/>
<path d="M79.3195 31.3039C79.0276 31.0822 79.003 30.9615 79.2078 30.7567C79.6198 30.3447 80.3399 30.5554 80.4189 31.1111C80.4992 31.6768 79.9396 31.775 79.3195 31.3039Z" fill="#343434"/>
<path d="M83.7082 31.9558C84.1706 31.4787 84.397 31.0667 84.3149 30.8525C84.2084 30.575 84.3571 30.5119 85.1047 30.5172C85.8957 30.5231 85.9643 30.5578 85.5892 30.7643C85.349 30.8966 84.8366 31.3025 84.4503 31.6667L83.7483 32.3285L85.3226 34.4728L84.6128 34.4023C84.0593 34.3471 83.8001 34.1536 83.4366 33.5244L82.9702 32.7172L83.7082 31.9558Z" fill="#343434"/>
<path d="M88.5252 33.2338C87.0994 32.4966 86.64 31.5652 87.3514 30.8536C87.8282 30.377 88.0095 30.4246 87.9994 31.0239C87.9935 31.3807 88.2907 31.7672 88.9734 32.2905C89.7437 32.8811 89.956 33.1822 89.956 33.6846C89.956 34.1215 89.8343 34.349 89.5739 34.3993C89.3103 34.4499 89.1918 34.334 89.1918 34.0257C89.1918 33.7479 88.9392 33.4479 88.5252 33.2338Z" fill="#343434"/>
<path d="M89.7651 30.8309C89.99 31.417 89.7437 31.4993 89.2542 31.0019C88.7868 30.527 88.7852 30.5106 89.2064 30.5106C89.4461 30.5106 89.6975 30.6547 89.7651 30.8309Z" fill="#343434"/>
<path d="M93.4806 31.1586C92.83 31.1521 92.8164 31.1351 93.2182 30.8312C93.7306 30.4436 94.6837 30.413 95.0433 30.7726C95.2022 30.9316 95.3053 31.7043 95.3053 32.7377C95.3053 34.2951 95.268 34.4407 94.8686 34.4407C94.4811 34.4407 94.4319 34.2951 94.4319 33.1486C94.4319 31.4268 94.3077 31.1672 93.4806 31.1586Z" fill="#343434"/>
<path d="M97.052 32.5058C97.052 31.5881 97.1431 31.344 97.6273 30.9632C98.4066 30.3501 98.6673 30.3934 98.2286 31.063C97.9492 31.4894 97.8924 31.9375 97.98 33.0281C98.0679 34.1244 98.0274 34.4407 97.7987 34.4407C97.3389 34.4407 97.052 33.6973 97.052 32.5058Z" fill="#343434"/>
<path d="M99.8509 33.022C99.9186 31.9578 99.8518 31.4667 99.5832 31.0569C99.0981 30.3163 99.6097 30.3095 100.404 31.046C100.858 31.4661 100.982 31.7851 100.982 32.5259C100.982 33.4951 100.513 34.4407 100.031 34.4407C99.8343 34.4407 99.7852 34.0543 99.8509 33.022Z" fill="#343434"/>
<path d="M102.385 31.0934C102.308 30.8918 102.412 30.7279 102.658 30.6641C103.352 30.4849 103.602 30.5041 103.602 30.7366C103.602 30.8925 103.733 30.8925 104.024 30.7366C105.77 29.8023 107.53 31.8897 106.567 33.7519C106.132 34.5938 105.208 34.763 105.489 33.9495C105.772 33.129 105.625 31.5912 105.22 31.144C104.757 30.6327 104.398 30.6189 103.923 31.0945C103.633 31.3844 103.575 31.7689 103.642 32.9503L103.726 34.4407H103.118C102.512 34.4407 102.511 34.4368 102.511 32.9303C102.511 32.0995 102.454 31.2728 102.385 31.0934Z" fill="#343434"/>
<path d="M11.7956 32.039C11.3947 32.039 11.2578 31.5818 11.5115 31.0897C11.71 30.7043 11.7338 30.7069 12.0403 31.1447C12.3853 31.6373 12.2755 32.039 11.7956 32.039Z" fill="#343434"/>
<path d="M48.6769 32.039C48.4869 32.039 48.3622 31.8228 48.3622 31.4932C48.3622 30.8827 48.8913 30.7407 49.1037 31.2945C49.2695 31.7263 49.0902 32.039 48.6769 32.039Z" fill="#343434"/>
<path d="M3.14737 34.4407L3.75697 33.6726C4.30566 32.9814 4.374 32.9501 4.43863 33.361C4.55304 34.0877 4.31439 34.4407 3.70937 34.4407H3.14737Z" fill="#343434"/>
<path d="M41.6083 34.4407L42.0594 33.6765C42.3073 33.2562 42.5496 32.9124 42.5979 32.9124C42.6459 32.9124 42.6854 33.2562 42.6854 33.6765C42.6854 34.3434 42.6169 34.4407 42.147 34.4407H41.6083Z" fill="#343434"/>
<path d="M87.3359 34.4407C87.1226 34.4407 87.0108 34.2316 87.0154 33.8403C87.0219 33.2652 87.0359 33.2578 87.3429 33.6637C87.7514 34.2038 87.7492 34.4407 87.3359 34.4407Z" fill="#343434"/>
<path d="M102.44 36.3512C102.498 35.841 102.584 35.3006 102.631 35.1503C102.677 35.0003 102.915 34.8774 103.159 34.8774C103.529 34.8774 103.602 35.0185 103.602 35.7329C103.602 36.2034 103.662 36.7438 103.735 36.9337C103.84 37.2084 103.71 37.2792 103.1 37.2792H102.334L102.44 36.3512Z" fill="#343434"/>
<path fill-rule="evenodd" clip-rule="evenodd" d="M13.6799 0.230264C16.0382 0.814696 17.5527 2.32752 18.4993 5.04453C19.1022 6.77494 19.2572 6.45403 19.498 2.97762L19.6073 1.3978L18.7997 0.961799C17.4675 0.242536 16.3547 -0.00473605 14.5204 0.0106874L12.8507 0.0247839L13.6799 0.230264ZM18.671 15.4417C18.2935 17.802 16.2328 19.9366 13.7214 20.5683C12.4237 20.8947 12.7605 21.1194 14.3848 21.0109C15.9175 20.9086 17.5003 20.4821 18.7382 19.8378L19.4844 19.4495L19.4485 17.9737C19.3956 15.8031 19.2485 14.7566 18.9962 14.7566C18.8717 14.7566 18.7342 15.0464 18.671 15.4417Z" stroke="black" stroke-width="0.2" mask="url(#path-1-inside-1_370_1500)"/>
<path d="M36.5527 19.6746C32.6657 19.6746 30.0267 17.5835 30.0267 13.9018V2.97476C30.0267 0.64797 31.3462 0.382893 32.8796 0.382893V3.66596e-06H24V0.382893C25.5691 0.382893 26.4963 0.9425 26.4963 2.91585V13.6662C26.4963 18.467 30.1694 21 34.7697 21C39.1917 21 43.471 19.0561 43.4354 13.784H42.9718C42.9718 17.554 40.1902 19.6746 36.5527 19.6746ZM38.7637 0.382893C42.9004 0.353441 42.9718 2.97476 42.9718 5.7728H43.4354C43.4354 2.97476 43.3284 0.353441 48 0.382893V3.66596e-06H38.7637V0.382893Z" stroke="black" stroke-width="0.2" mask="url(#path-1-inside-1_370_1500)"/>
<path fill-rule="evenodd" clip-rule="evenodd" d="M7.01708 20.6647C2.72052 19.1995 0.272981 15.8646 0.0198718 11.1305C-0.299836 5.14901 3.26292 0.708696 8.91906 0.0392626C10.143 -0.105618 10.408 0.177852 9.29646 0.442943C6.9753 0.996472 5.33568 2.71915 4.62565 5.35036C3.98239 7.73369 3.88503 11.9588 4.41327 14.5597C5.08782 17.8805 6.63828 19.9097 9.01625 20.5836C9.52089 20.7266 9.93395 20.8756 9.93395 20.9147C9.93395 21.1156 7.80385 20.9329 7.01708 20.6647Z" stroke="black" stroke-width="0.2" mask="url(#path-1-inside-1_370_1500)"/>
<path fill-rule="evenodd" clip-rule="evenodd" d="M54.9257 0.417235C53.4189 0.949023 52.3674 1.65085 51.1861 2.91376C49.3828 4.84141 48.5123 7.32022 48.5172 10.5126C48.5209 12.7889 48.8293 14.3058 49.6119 15.896C50.3553 17.4066 51.9604 19.0669 53.4293 19.8446C54.9699 20.66 57.9515 21.3474 57.9515 20.8869C57.9515 20.8023 57.559 20.6191 57.079 20.4795C54.0234 19.5912 52.6053 16.9364 52.3758 11.6742C52.1126 5.64306 53.6454 1.62816 56.6106 0.581639C58.0641 0.0685598 58.0886 0.0371032 57.0409 0.0289906C56.3994 0.0240237 55.6503 0.161441 54.9257 0.417235ZM61.0144 0.174852C61.1965 0.250679 61.7172 0.444885 62.1715 0.606309C63.1868 0.966905 64.5292 2.25896 65.1389 3.46243C65.8664 4.89803 66.2396 6.78694 66.3462 9.57402C66.501 13.6229 66.0028 16.2952 64.7406 18.1854C63.954 19.3633 63.0957 19.9937 61.6157 20.4808C60.1272 20.9707 60.6553 21.18 62.4753 20.8215C66.223 20.0831 69.0831 17.3434 69.9821 13.6306C70.1571 12.908 70.2508 11.8138 70.2479 10.5275C70.2406 7.23578 69.4232 4.93594 67.5485 2.93197C65.8212 1.08545 63.6532 0.0135932 61.6767 0.0289906C60.9861 0.0342886 60.7843 0.0788252 61.0144 0.174852ZM75.17 0.179818C75.17 0.270878 75.4207 0.345381 75.7272 0.345381C76.5037 0.345381 77.079 0.854487 77.3017 1.73892C77.4267 2.23561 77.4869 5.02634 77.4851 10.2283C77.4821 17.8994 77.4515 18.4469 76.9043 20.5917L76.7866 21.0532L80.0399 20.958L80.8669 18.6401L80.9573 10.3619C81.047 2.12369 81.0494 2.08081 81.4227 1.48048C81.8045 0.866573 82.6464 0.345381 83.2565 0.345381C83.4422 0.345381 83.6402 0.270878 83.6965 0.179818C83.7638 0.0710435 82.3186 0.0142554 79.4845 0.0142554C76.7186 0.0142554 75.17 0.0736925 75.17 0.179818Z" stroke="black" stroke-width="0.2" mask="url(#path-1-inside-1_370_1500)"/>
<path d="M89.1861 2.91377C90.3674 1.65085 91.4189 0.94903 92.9257 0.417242C93.6503 0.161447 94.3994 0.0240304 95.0409 0.0289973C96.0886 0.0371099 96.0641 0.0685666 94.6106 0.581646C91.6454 1.62817 90.1126 5.64307 90.3758 11.6742C90.6053 16.9364 92.0234 19.5912 95.079 20.4795C95.559 20.6191 95.9515 20.8023 95.9515 20.8869C95.9515 21.3474 92.9699 20.66 91.4293 19.8446C89.9604 19.0669 88.3553 17.4066 87.6119 15.896C86.8293 14.3058 86.5209 12.7889 86.5172 10.5126C86.5123 7.32022 87.3828 4.84141 89.1861 2.91377Z" stroke="black" stroke-width="0.2" mask="url(#path-1-inside-1_370_1500)"/>
<path d="M100.172 0.606315C99.7172 0.444891 99.1965 0.250686 99.0144 0.174858C98.7843 0.0788319 98.9861 0.0342953 99.6767 0.0289973C101.653 0.0136 103.821 1.08545 105.549 2.93198C107.423 4.93595 108.241 7.23579 108.248 10.5275C108.251 11.8138 108.157 12.908 107.982 13.6307C107.083 17.3434 104.223 20.0831 100.475 20.8215C98.6553 21.18 98.1272 20.9707 99.6157 20.4808C101.096 19.9937 101.954 19.3633 102.741 18.1855C104.003 16.2952 104.501 13.6229 104.346 9.57403C104.24 6.78694 103.866 4.89804 103.139 3.46244C102.529 2.25896 101.187 0.966911 100.172 0.606315Z" stroke="black" stroke-width="0.2" mask="url(#path-1-inside-1_370_1500)"/>
<path d="M1.0917 25.0521C2.18143 24.2895 2.18886 24.2877 5.13098 24.1788C6.75216 24.1187 8.11962 24.0943 8.16962 24.1242C8.28163 24.1914 8.3135 24.1661 6.98687 25.0713C5.95172 25.7779 5.78229 25.82 3.71178 25.889C2.51091 25.929 1.18449 25.929 0.764189 25.889L1.47458e-09 25.8163L1.0917 25.0521Z" stroke="black" stroke-width="0.2" mask="url(#path-1-inside-1_370_1500)"/>
<path d="M12.2803 24.943C13.2572 24.3248 13.4751 24.2812 16.1554 24.1692C17.7176 24.1037 19.02 24.0301 19.0501 24.0054C19.0803 23.9805 19.1047 24.051 19.1047 24.162C19.1047 24.2729 18.5429 24.715 17.856 25.1445L16.6076 25.9255H13.9259C12.4513 25.9255 11.2447 25.8517 11.2449 25.7617C11.2452 25.6718 11.7111 25.3032 12.2803 24.943Z" stroke="black" stroke-width="0.2" mask="url(#path-1-inside-1_370_1500)"/>
<path d="M45.3601 24.9174C46.242 24.3192 46.4341 24.2825 49.2356 24.1788C50.8568 24.1187 52.2242 24.0943 52.2742 24.1242C52.3863 24.1914 52.4181 24.1661 51.0915 25.0713C50.0096 25.8095 49.9749 25.817 47.216 25.8881C45.5596 25.9309 44.4321 25.8766 44.4321 25.7534C44.4321 25.6399 44.8496 25.2635 45.3601 24.9174Z" stroke="black" stroke-width="0.2" mask="url(#path-1-inside-1_370_1500)"/>
<path d="M56.3862 24.9414C57.367 24.3235 57.5775 24.282 60.2618 24.1788C61.8229 24.1187 63.1816 24.1047 63.281 24.1475C63.3803 24.1906 62.8399 24.608 62.0801 25.0755L60.6984 25.9253H58.0238C56.5526 25.9255 55.3491 25.851 55.3491 25.7602C55.3491 25.6692 55.8157 25.3008 56.3862 24.9414Z" stroke="black" stroke-width="0.2" mask="url(#path-1-inside-1_370_1500)"/>
<path d="M67.5216 24.9091C68.4794 24.3353 68.7755 24.2788 71.3971 24.1692C72.9582 24.1037 74.2602 24.0301 74.2901 24.0054C74.32 23.9805 74.3447 24.0441 74.3447 24.1462C74.3447 24.2482 73.8287 24.6646 73.1984 25.0713C72.0713 25.7984 72.0056 25.812 69.2683 25.8855C67.5366 25.932 66.4844 25.879 66.4844 25.7451C66.4844 25.627 66.951 25.2508 67.5216 24.9091Z" stroke="black" stroke-width="0.2" mask="url(#path-1-inside-1_370_1500)"/>
<path d="M78.8752 24.9414C79.856 24.3235 80.0665 24.282 82.7508 24.1788C85.3333 24.0794 86.0721 24.105 85.8767 24.2868C85.8385 24.3222 85.218 24.705 84.4975 25.1377L83.1874 25.9244L80.5128 25.9248C79.0416 25.9253 77.8381 25.851 77.8381 25.7602C77.8381 25.6692 78.3047 25.3008 78.8752 24.9414Z" stroke="black" stroke-width="0.2" mask="url(#path-1-inside-1_370_1500)"/>
<path d="M100.926 24.943C101.913 24.3185 102.099 24.2829 104.911 24.1788C106.533 24.1187 107.901 24.0943 107.951 24.1242C108.063 24.1914 108.095 24.1661 106.768 25.0713C105.68 25.8139 105.667 25.8165 102.783 25.8877C101.192 25.9272 99.8906 25.8781 99.8909 25.7785C99.8911 25.6792 100.357 25.3032 100.926 24.943Z" stroke="black" stroke-width="0.2" mask="url(#path-1-inside-1_370_1500)"/>
<path d="M22.3798 25.7504C22.3798 25.6349 22.8466 25.2353 23.4169 24.8622C24.4468 24.1886 24.4744 24.1838 27.3988 24.1814L30.3433 24.1788L27.9475 25.8163L25.1637 25.8881C23.4785 25.9318 22.3798 25.8775 22.3798 25.7504Z" stroke="black" stroke-width="0.2" mask="url(#path-1-inside-1_370_1500)"/>
<path d="M33.3007 25.7617C33.3029 25.6718 33.7697 25.2849 34.3379 24.9023L35.371 24.2067L38.4097 24.1927C40.0808 24.1851 41.4073 24.2176 41.3573 24.265C41.307 24.3124 40.6767 24.705 39.9562 25.1377L38.6461 25.9244L35.9715 25.9248C34.5003 25.9253 33.2986 25.8517 33.3007 25.7617Z" stroke="black" stroke-width="0.2" mask="url(#path-1-inside-1_370_1500)"/>
<path d="M89.0038 25.7309C89.0472 25.6043 89.5248 25.2109 90.0651 24.8567C91.0186 24.2318 91.1298 24.2122 93.8315 24.1958C95.3625 24.1864 96.6153 24.2532 96.6153 24.3441C96.6153 24.4351 96.1487 24.8028 95.5782 25.1611C94.5891 25.7825 94.4112 25.8161 91.733 25.8868C89.83 25.9373 88.9505 25.8871 89.0038 25.7309Z" stroke="black" stroke-width="0.2" mask="url(#path-1-inside-1_370_1500)"/>
<path d="M1.47458e-09 34.4403V28.5453H0.732967C1.31157 28.5456 1.43799 28.6183 1.3334 28.891C1.26048 29.0809 1.20087 30.4073 1.20087 31.8386V34.4407L1.47458e-09 34.4403Z" stroke="black" stroke-width="0.2" mask="url(#path-1-inside-1_370_1500)"/>
<path d="M20.0017 34.4407L19.8689 28.5449L21.0698 28.5456V34.4407H20.0017Z" stroke="black" stroke-width="0.2" mask="url(#path-1-inside-1_370_1500)"/>
<path d="M37.3383 32.2696C37.1333 31.0569 37.373 30.1713 38.1437 29.2936C38.5051 28.8822 38.9939 28.5456 39.2304 28.5456C39.6525 28.5456 39.652 28.5563 39.2079 29.1209C38.8341 29.596 38.7555 30.0047 38.7566 31.468C38.7575 32.58 38.8747 33.4634 39.0712 33.8403C39.359 34.3918 39.3516 34.4407 38.9802 34.4407C38.3878 34.4407 37.5086 33.2779 37.3383 32.2696Z" stroke="black" stroke-width="0.2" mask="url(#path-1-inside-1_370_1500)"/>
<path d="M42.6446 29.3643C42.7326 30.2763 42.4828 30.2512 41.8671 29.286L41.3763 28.5167L41.9762 28.5857C42.476 28.6432 42.5876 28.7733 42.6446 29.3643Z" stroke="black" stroke-width="0.2" mask="url(#path-1-inside-1_370_1500)"/>
<path d="M53.3841 32.0532C53.3841 30.7401 53.4799 29.4137 53.5969 29.1056C53.7142 28.7975 53.9598 28.5456 54.1428 28.5456C54.4247 28.5456 54.4758 28.9973 54.4758 31.4932V34.4407H53.3841V32.0532Z" stroke="black" stroke-width="0.2" mask="url(#path-1-inside-1_370_1500)"/>
<path d="M55.4948 29.1619C55.2793 29.2039 55.1308 29.0925 55.1308 28.889C55.1308 28.6866 55.3175 28.5456 55.5856 28.5456C56.1177 28.5456 56.0426 29.0558 55.4948 29.1619Z" stroke="black" stroke-width="0.2" mask="url(#path-1-inside-1_370_1500)"/>
<path d="M65.2091 34.4407C65.1024 34.4407 64.4746 33.1143 63.8144 31.4932L62.6137 28.5456H63.4574C64.1875 28.5456 64.301 28.6119 64.301 29.0384C64.301 29.3093 64.6403 30.3956 65.0552 31.4521C65.6443 32.9528 65.765 33.4901 65.6065 33.9069C65.4949 34.2006 65.3161 34.4407 65.2091 34.4407Z" stroke="black" stroke-width="0.2" mask="url(#path-1-inside-1_370_1500)"/>
<path d="M67.0283 31.6643C66.429 30.1373 65.9058 28.8108 65.8659 28.7167C65.8257 28.6226 66.1999 28.5456 66.6975 28.5456C67.2469 28.5456 67.5488 28.6316 67.4665 28.7646C67.3921 28.8851 67.6866 29.9512 68.1209 31.1338C68.9008 33.2567 68.9897 34.4407 68.3692 34.4407C68.2309 34.4407 67.6277 33.1914 67.0283 31.6643Z" stroke="black" stroke-width="0.2" mask="url(#path-1-inside-1_370_1500)"/>
<path d="M70.0718 30.2499C70.0467 30.2868 69.9881 29.9183 69.9416 29.4312C69.8615 28.5908 69.8877 28.5456 70.456 28.5456H71.055L70.5862 29.3643C70.3283 29.8148 70.0969 30.2132 70.0718 30.2499Z" stroke="black" stroke-width="0.2" mask="url(#path-1-inside-1_370_1500)"/>
<path d="M81.7918 34.4407L81.7254 31.4927C81.6595 28.5615 81.6619 28.5449 82.1503 28.5451C82.6322 28.5456 82.6416 28.5949 82.6416 31.1477C82.6416 32.579 82.7012 33.9054 82.7741 34.0953C82.8737 34.3547 82.7678 34.4407 82.3492 34.4407H81.7918Z" stroke="black" stroke-width="0.2" mask="url(#path-1-inside-1_370_1500)"/>
<path d="M92.1939 34.4407C91.7088 34.4407 91.7027 34.4043 91.7027 31.4932C91.7027 28.582 91.7088 28.5456 92.1939 28.5456C92.6791 28.5456 92.6852 28.582 92.6852 31.4932C92.6852 34.4043 92.6791 34.4407 92.1939 34.4407Z" stroke="black" stroke-width="0.2" mask="url(#path-1-inside-1_370_1500)"/>
<path d="M16.4846 32.4757C16.4246 31.4549 16.4109 30.3004 16.4539 29.9102C16.5117 29.3875 16.6412 29.2006 16.9451 29.2006C17.3936 29.2006 17.4074 29.2947 17.37 32.1482C17.3473 33.8776 17.5397 34.3401 18.2091 34.165C18.4615 34.099 18.668 34.1394 18.668 34.2547C18.668 34.3702 18.2012 34.4346 17.6309 34.3982L16.5938 34.3316L16.4846 32.4757Z" stroke="black" stroke-width="0.2" mask="url(#path-1-inside-1_370_1500)"/>
<path d="M56.8408 32.4211C56.7967 31.3102 56.798 30.1311 56.8439 29.801C56.9011 29.3877 57.0555 29.2006 57.3389 29.2006C57.6557 29.2006 57.7537 29.3648 57.7631 29.9102C57.8382 34.2842 57.8105 34.1139 58.4441 34.1058C58.7655 34.1019 58.9808 34.1755 58.9225 34.2696C58.8644 34.3637 58.3902 34.4407 57.8688 34.4407H56.921L56.8408 32.4211Z" stroke="black" stroke-width="0.2" mask="url(#path-1-inside-1_370_1500)"/>
<path d="M5.84102 32.8135C5.74364 31.9486 5.805 31.768 6.39692 31.1761C7.18185 30.3912 7.72464 30.272 7.21766 30.996C7.03076 31.2628 6.8777 31.7106 6.8777 31.991C6.8777 32.4558 6.9598 32.4949 7.80565 32.4335C8.65542 32.3722 8.72748 32.3204 8.66023 31.8207C8.61962 31.5204 8.49691 31.1814 8.3873 31.0674C8.12006 30.7897 8.13447 30.5106 8.4159 30.5106C8.85564 30.5106 9.71612 31.5877 9.71612 32.1384C9.71612 32.6768 9.67201 32.694 8.29691 32.694C7.18098 32.694 6.8777 32.7641 6.8777 33.0215C6.8777 33.8392 8.56088 34.6366 8.95193 34.0041C9.16459 33.66 9.498 33.7495 9.35848 34.1132C9.26525 34.3562 8.87922 34.4407 7.86351 34.4407C6.26198 34.4407 6.00085 34.2307 5.84102 32.8135Z" stroke="black" stroke-width="0.2" mask="url(#path-1-inside-1_370_1500)"/>
<path d="M13.2705 31.6783C13.2438 31.3381 13.053 30.9362 12.8465 30.7851C12.51 30.5392 12.5307 30.5106 13.0462 30.5106C13.8858 30.5106 14.3013 31.2462 14.3013 32.7318C14.3013 33.6925 14.3899 34.034 14.6833 34.2049C14.9923 34.3848 14.9089 34.4287 14.2467 34.4342C13.436 34.4407 13.4279 34.4322 13.4279 33.5674C13.4279 32.6294 13.1617 32.4707 12.4552 32.9875C12.1764 33.1912 12.0877 33.4578 12.1648 33.8608C12.2602 34.3595 12.2015 34.4407 11.7462 34.4407C11.2812 34.4407 11.2251 34.3551 11.2853 33.7359C11.3447 33.1226 11.4812 32.9838 12.3362 32.6641C13.2074 32.3386 13.3133 32.2268 13.2705 31.6783Z" stroke="black" stroke-width="0.2" mask="url(#path-1-inside-1_370_1500)"/>
<path d="M21.875 31.2045C21.3707 31.1466 21.3071 31.0783 21.5196 30.8224C21.6619 30.6508 22.0554 30.5106 22.3942 30.5106C23.3217 30.5106 23.6899 31.2069 23.6899 32.9611C23.6899 34.3868 23.6702 34.4407 23.1536 34.4407C22.6392 34.4407 22.6148 34.3757 22.5532 32.8578C22.4901 31.3025 22.4783 31.2735 21.875 31.2045Z" stroke="black" stroke-width="0.2" mask="url(#path-1-inside-1_370_1500)"/>
<path d="M25.2997 33.7108C24.8298 32.7255 25.0436 31.5532 25.8016 30.9567C26.5481 30.3696 26.8567 30.3888 26.4316 30.996C26.2447 31.2628 26.0916 31.7049 26.0916 31.9785C26.0916 32.4117 26.2023 32.4757 26.9521 32.4757C28.0125 32.4757 28.1844 32.2309 27.7438 31.3477C27.3385 30.5353 27.335 30.5106 27.6298 30.5106C28.0695 30.5106 28.93 31.5877 28.93 32.1384C28.93 32.6768 28.8859 32.694 27.5108 32.694C25.9484 32.694 25.706 32.9635 26.5283 33.7857C27.0156 34.2731 27.6429 34.3423 28.3145 33.9829C28.668 33.7938 28.7418 33.8054 28.665 34.0375C28.5995 34.2355 28.0929 34.3525 27.1126 34.3962L25.6573 34.4606L25.2997 33.7108Z" stroke="black" stroke-width="0.2" mask="url(#path-1-inside-1_370_1500)"/>
<path d="M30.1999 31.0318C30.0224 30.922 30.0735 30.8202 30.3636 30.7067C31.2669 30.353 31.3318 30.4484 31.3318 32.1303C31.3318 33.0211 31.3914 33.9054 31.4643 34.0953C31.5643 34.3558 31.4569 34.4407 31.0276 34.4407C30.4652 34.4407 30.4584 34.4213 30.4584 32.8161C30.4584 31.8004 30.3615 31.1316 30.1999 31.0318Z" stroke="black" stroke-width="0.2" mask="url(#path-1-inside-1_370_1500)"/>
<path d="M32.3215 31.3877C31.8986 31.1615 31.8291 31.0283 32.0163 30.8028C32.3466 30.4045 33.0628 30.4342 33.2234 30.8528C33.4448 31.4298 32.9492 31.7237 32.3215 31.3877Z" stroke="black" stroke-width="0.2" mask="url(#path-1-inside-1_370_1500)"/>
<path d="M43.9553 31.0318C43.7778 30.922 43.8289 30.8202 44.119 30.7067C45.1819 30.2905 45.3496 30.6093 45.271 32.8953C45.2212 34.3469 45.1876 34.4407 44.716 34.4407C44.2369 34.4407 44.2138 34.3656 44.2138 32.8161C44.2138 31.8004 44.1168 31.1316 43.9553 31.0318Z" stroke="black" stroke-width="0.2" mask="url(#path-1-inside-1_370_1500)"/>
<path d="M45.9136 31.3039C45.6216 31.0822 45.597 30.9615 45.8018 30.7567C46.2138 30.3447 46.9339 30.5554 47.0129 31.1111C47.0933 31.6768 46.5337 31.775 45.9136 31.3039Z" stroke="black" stroke-width="0.2" mask="url(#path-1-inside-1_370_1500)"/>
<path d="M49.2583 32.6661C50.3716 32.2538 50.5985 31.6552 49.9039 30.9606L49.454 30.5106H49.9843C50.8893 30.5106 51.2007 31.0473 51.2007 32.6076C51.2007 33.8663 51.2535 34.0394 51.6919 34.2156C52.1031 34.3809 52.0319 34.4154 51.2553 34.427L50.3273 34.4407V33.5674C50.3273 32.6615 50.1561 32.5366 49.4395 32.92C48.9636 33.1748 48.8858 33.7853 49.2793 34.1787C49.483 34.3824 49.3845 34.4407 48.8358 34.4407C48.0548 34.4407 47.7112 33.9573 48.0773 33.3739C48.1992 33.1801 48.7306 32.8617 49.2583 32.6661Z" stroke="black" stroke-width="0.2" mask="url(#path-1-inside-1_370_1500)"/>
<path d="M72.2829 33.9554C71.7117 33.1401 71.8451 31.8849 72.5811 31.1488C73.3728 30.3571 73.8346 30.3047 73.3379 31.063C73.0584 31.4894 73.0017 31.9375 73.0892 33.0281C73.2128 34.5678 72.9353 34.887 72.2829 33.9554Z" stroke="black" stroke-width="0.2" mask="url(#path-1-inside-1_370_1500)"/>
<path d="M74.9602 33.022C75.0279 31.9578 74.961 31.4667 74.6925 31.0569C74.3717 30.5674 74.3702 30.5106 74.677 30.5106C74.8654 30.5106 75.2606 30.7519 75.5554 31.0466C76.2135 31.7045 76.3121 33.3982 75.73 34.0414C75.0569 34.7853 74.8641 34.5303 74.9602 33.022Z" stroke="black" stroke-width="0.2" mask="url(#path-1-inside-1_370_1500)"/>
<path d="M77.5818 32.6394C77.541 31.6038 77.6034 30.77 77.7289 30.6777C77.849 30.5894 78.1193 30.5159 78.3294 30.5139C78.6652 30.5111 78.7115 30.7484 78.7115 32.4757C78.7115 34.4097 78.7032 34.4407 78.1822 34.4407C77.6706 34.4407 77.6506 34.3807 77.5818 32.6394Z" stroke="black" stroke-width="0.2" mask="url(#path-1-inside-1_370_1500)"/>
<path d="M79.3195 31.3039C79.0276 31.0822 79.003 30.9615 79.2078 30.7567C79.6198 30.3447 80.3399 30.5554 80.4189 31.1111C80.4992 31.6768 79.9396 31.775 79.3195 31.3039Z" stroke="black" stroke-width="0.2" mask="url(#path-1-inside-1_370_1500)"/>
<path d="M83.7082 31.9558C84.1706 31.4787 84.397 31.0667 84.3149 30.8525C84.2084 30.575 84.3571 30.5119 85.1047 30.5172C85.8957 30.5231 85.9643 30.5578 85.5892 30.7643C85.349 30.8966 84.8366 31.3025 84.4503 31.6667L83.7483 32.3285L85.3226 34.4728L84.6128 34.4023C84.0593 34.3471 83.8001 34.1536 83.4366 33.5244L82.9702 32.7172L83.7082 31.9558Z" stroke="black" stroke-width="0.2" mask="url(#path-1-inside-1_370_1500)"/>
<path d="M88.5252 33.2338C87.0994 32.4966 86.64 31.5652 87.3514 30.8536C87.8282 30.377 88.0095 30.4246 87.9994 31.0239C87.9935 31.3807 88.2907 31.7672 88.9734 32.2905C89.7437 32.8811 89.956 33.1822 89.956 33.6846C89.956 34.1215 89.8343 34.349 89.5739 34.3993C89.3103 34.4499 89.1918 34.334 89.1918 34.0257C89.1918 33.7479 88.9392 33.4479 88.5252 33.2338Z" stroke="black" stroke-width="0.2" mask="url(#path-1-inside-1_370_1500)"/>
<path d="M89.7651 30.8309C89.99 31.417 89.7437 31.4993 89.2542 31.0019C88.7868 30.527 88.7852 30.5106 89.2064 30.5106C89.4461 30.5106 89.6975 30.6547 89.7651 30.8309Z" stroke="black" stroke-width="0.2" mask="url(#path-1-inside-1_370_1500)"/>
<path d="M93.4806 31.1586C92.83 31.1521 92.8164 31.1351 93.2182 30.8312C93.7306 30.4436 94.6837 30.413 95.0433 30.7726C95.2022 30.9316 95.3053 31.7043 95.3053 32.7377C95.3053 34.2951 95.268 34.4407 94.8686 34.4407C94.4811 34.4407 94.4319 34.2951 94.4319 33.1486C94.4319 31.4268 94.3077 31.1672 93.4806 31.1586Z" stroke="black" stroke-width="0.2" mask="url(#path-1-inside-1_370_1500)"/>
<path d="M97.052 32.5058C97.052 31.5881 97.1431 31.344 97.6273 30.9632C98.4066 30.3501 98.6673 30.3934 98.2286 31.063C97.9492 31.4894 97.8924 31.9375 97.98 33.0281C98.0679 34.1244 98.0274 34.4407 97.7987 34.4407C97.3389 34.4407 97.052 33.6973 97.052 32.5058Z" stroke="black" stroke-width="0.2" mask="url(#path-1-inside-1_370_1500)"/>
<path d="M99.8509 33.022C99.9186 31.9578 99.8518 31.4667 99.5832 31.0569C99.0981 30.3163 99.6097 30.3095 100.404 31.046C100.858 31.4661 100.982 31.7851 100.982 32.5259C100.982 33.4951 100.513 34.4407 100.031 34.4407C99.8343 34.4407 99.7852 34.0543 99.8509 33.022Z" stroke="black" stroke-width="0.2" mask="url(#path-1-inside-1_370_1500)"/>
<path d="M102.385 31.0934C102.308 30.8918 102.412 30.7279 102.658 30.6641C103.352 30.4849 103.602 30.5041 103.602 30.7366C103.602 30.8925 103.733 30.8925 104.024 30.7366C105.77 29.8023 107.53 31.8897 106.567 33.7519C106.132 34.5938 105.208 34.763 105.489 33.9495C105.772 33.129 105.625 31.5912 105.22 31.144C104.757 30.6327 104.398 30.6189 103.923 31.0945C103.633 31.3844 103.575 31.7689 103.642 32.9503L103.726 34.4407H103.118C102.512 34.4407 102.511 34.4368 102.511 32.9303C102.511 32.0995 102.454 31.2728 102.385 31.0934Z" stroke="black" stroke-width="0.2" mask="url(#path-1-inside-1_370_1500)"/>
<path d="M11.7956 32.039C11.3947 32.039 11.2578 31.5818 11.5115 31.0897C11.71 30.7043 11.7338 30.7069 12.0403 31.1447C12.3853 31.6373 12.2755 32.039 11.7956 32.039Z" stroke="black" stroke-width="0.2" mask="url(#path-1-inside-1_370_1500)"/>
<path d="M48.6769 32.039C48.4869 32.039 48.3622 31.8228 48.3622 31.4932C48.3622 30.8827 48.8913 30.7407 49.1037 31.2945C49.2695 31.7263 49.0902 32.039 48.6769 32.039Z" stroke="black" stroke-width="0.2" mask="url(#path-1-inside-1_370_1500)"/>
<path d="M3.14737 34.4407L3.75697 33.6726C4.30566 32.9814 4.374 32.9501 4.43863 33.361C4.55304 34.0877 4.31439 34.4407 3.70937 34.4407H3.14737Z" stroke="black" stroke-width="0.2" mask="url(#path-1-inside-1_370_1500)"/>
<path d="M41.6083 34.4407L42.0594 33.6765C42.3073 33.2562 42.5496 32.9124 42.5979 32.9124C42.6459 32.9124 42.6854 33.2562 42.6854 33.6765C42.6854 34.3434 42.6169 34.4407 42.147 34.4407H41.6083Z" stroke="black" stroke-width="0.2" mask="url(#path-1-inside-1_370_1500)"/>
<path d="M87.3359 34.4407C87.1226 34.4407 87.0108 34.2316 87.0154 33.8403C87.0219 33.2652 87.0359 33.2578 87.3429 33.6637C87.7514 34.2038 87.7492 34.4407 87.3359 34.4407Z" stroke="black" stroke-width="0.2" mask="url(#path-1-inside-1_370_1500)"/>
<path d="M102.44 36.3512C102.498 35.841 102.584 35.3006 102.631 35.1503C102.677 35.0003 102.915 34.8774 103.159 34.8774C103.529 34.8774 103.602 35.0185 103.602 35.7329C103.602 36.2034 103.662 36.7438 103.735 36.9337C103.84 37.2084 103.71 37.2792 103.1 37.2792H102.334L102.44 36.3512Z" stroke="black" stroke-width="0.2" mask="url(#path-1-inside-1_370_1500)"/>
</svg>
