<svg width="177" height="72" viewBox="0 0 177 72" fill="none" xmlns="http://www.w3.org/2000/svg">
<mask id="path-1-outside-1_370_1468" maskUnits="userSpaceOnUse" x="-0.149963" y="53.7213" width="177" height="18" fill="black">
<rect fill="white" x="-0.149963" y="53.7213" width="177" height="18"/>
<path d="M10.079 63.1972H9.80664C9.35801 65.7769 6.52202 66.2736 5.43249 66.3857V66.6741H10.079V63.1972ZM4.43909 57.0926C4.43909 55.939 5.24022 55.6666 5.92919 55.6666V55.3942H0.850037V55.6666C1.53901 55.6666 2.11582 56.1153 2.11582 57.0926V64.6072C2.11582 65.6968 1.66719 66.4017 0.978217 66.4017V66.6741H4.43909V57.0926Z"/>
<path d="M15.7188 65.4564C14.6453 65.2161 13.8442 64.3989 13.716 62.8287H18.8112C18.8112 60.4414 17.8018 59.2397 15.6708 59.1435V59.4159C16.3758 59.6883 16.8564 60.8419 16.8564 62.5563H13.716C13.716 61.1944 14.2287 59.7203 15.0138 59.4159V59.1595C13.011 59.3198 11.6491 60.89 11.6491 63.005C11.6491 64.8796 13.0911 66.8183 15.1901 66.8183C17.3371 66.8183 18.2824 65.5526 18.5388 64.7194L18.2664 64.5752C17.8659 65.3282 16.5841 65.6487 15.7188 65.4564Z"/>
<path d="M22.1345 61.8193C22.5511 61.5309 22.6632 60.9701 22.3748 60.5535C22.2306 60.3452 22.0223 60.2331 21.782 60.201C21.7019 60.201 21.7179 60.0408 21.9582 59.8485L21.8461 59.5922C21.1571 60.0087 20.9648 60.3773 20.8206 60.6176C20.6604 60.89 20.6764 61.2745 20.8687 61.579C21.1571 61.9955 21.7179 62.0917 22.1345 61.8193ZM27.0694 65.841C26.2843 65.841 26.3004 64.7194 26.3004 64.7194V62.332C26.3004 60.4414 25.7235 59.1275 23.6246 59.1275C23.6246 59.1275 23.0478 59.0955 22.4389 59.3038L22.5511 59.5441C23.5124 59.2557 24.2815 60.0728 24.2815 61.579V62.5724C21.4776 63.2773 20.1317 63.4376 20.1317 65.184C20.1317 66.8183 21.9743 66.8183 21.9743 66.8183C22.7594 66.8183 23.4483 66.4338 23.881 66.0332L23.6887 65.7608C23.5605 65.8249 23.4003 65.841 23.224 65.841C22.1826 65.841 22.1826 64.7835 22.1826 64.7835C22.1826 63.9663 22.7113 63.2133 24.2815 62.8608V65.3763C24.2815 66.8183 25.8998 66.8183 25.8998 66.8183C26.9092 66.8183 27.6463 66.1935 27.7744 65.6807L27.5021 65.5686C27.4059 65.841 27.0694 65.841 27.0694 65.841Z"/>
<path d="M32.2342 65.6807C31.4331 65.6807 31.0485 65.2161 31.0485 64.3188V59.5441H32.8911L32.9552 59.2717H31.0485V56.7882L29.0457 57.1247V59.2717H28.1965L28.2446 59.5441H29.0457V64.3669C29.0457 66.3056 29.7988 66.8183 31.0646 66.8183C32.1381 66.8183 33.1155 66.0172 33.4359 65.2641L33.1956 65.1199C33.0514 65.3603 32.6989 65.6807 32.2342 65.6807Z"/>
<path d="M36.6487 64.7034V54.7213L33.8447 55.3942V55.6666C34.4856 55.907 34.6459 56.0672 34.6459 56.628V64.7034C34.6459 65.5205 34.6138 66.2095 34.005 66.3857V66.6741H37.3056V66.3857C36.7288 66.2415 36.6487 65.5846 36.6487 64.7034ZM41.3112 64.7034V61.611C41.3112 59.6883 40.5742 59.1275 39.2924 59.1275C38.5073 59.1275 37.5139 59.6723 36.9691 60.3132L37.1774 60.6496C37.4338 60.4414 37.7222 60.3292 37.9785 60.3292C38.9079 60.3292 39.3244 60.7618 39.3244 61.6751V64.7034C39.3244 65.5205 39.2924 66.2255 38.6835 66.4017V66.6741H41.9682V66.4017C41.4074 66.2575 41.3112 65.5846 41.3112 64.7034Z"/>
<path d="M46.8721 65.4564C45.7986 65.2161 44.9974 64.3989 44.8692 62.8287H49.9644C49.9644 60.4414 48.955 59.2397 46.824 59.1435V59.4159C47.529 59.6883 48.0097 60.8419 48.0097 62.5563H44.8692C44.8692 61.1944 45.382 59.7203 46.1671 59.4159V59.1595C44.1643 59.3198 42.8023 60.89 42.8023 63.005C42.8023 64.8796 44.2444 66.8183 46.3433 66.8183C48.4903 66.8183 49.4357 65.5526 49.692 64.7194L49.4197 64.5752C49.0191 65.3282 47.7373 65.6487 46.8721 65.4564Z"/>
<path d="M53.6723 64.7194V59.1275L50.8523 59.7684V60.0408C51.5092 60.3773 51.6534 60.6176 51.6534 61.1624V64.7194C51.6534 65.5526 51.6374 66.2095 51.0125 66.4017V66.6741H54.3292V66.4017C53.7524 66.2415 53.6723 65.6166 53.6723 64.7194ZM55.5629 59.2076C55.2265 59.3518 54.6977 59.5441 54.0087 60.4574L54.169 60.6817C54.5695 60.3132 54.922 60.3132 54.922 60.4414C54.922 60.7298 55.0502 61.0021 55.2905 61.2265C55.8033 61.6591 56.5403 61.595 56.9729 61.0983C57.4055 60.6176 57.3575 59.8485 56.8608 59.4159C56.5083 59.1275 55.8994 59.0634 55.5629 59.2076Z"/>
<path d="M71.5286 63.3094C71.1441 64.8956 70.0225 66.2736 68.3722 66.5139V66.8023C69.8303 66.7703 70.9518 66.5299 72.0253 65.8249L71.801 63.3094H71.5286ZM68.3722 55.5545C69.8783 55.7467 70.7115 56.7882 71.5286 58.743H71.801L72.0253 56.2274C71.1121 55.4904 69.8142 55.2981 68.3722 55.25V55.5545ZM62.3157 61.0342C62.3157 64.0625 64.2384 66.562 67.3788 66.8023V66.5139C65.9528 66.2896 65.1997 64.9918 65.1997 61.0342C65.1997 57.0766 65.9207 55.7788 67.3788 55.5545V55.2661C64.2384 55.5064 62.3157 58.0059 62.3157 61.0342Z"/>
<path d="M75.7189 64.7194V59.1275L72.8989 59.7684V60.0408C73.5559 60.3773 73.7001 60.6176 73.7001 61.1624V64.7194C73.7001 65.5526 73.6841 66.2095 73.0592 66.4017V66.6741H76.3758V66.4017C75.799 66.2415 75.7189 65.6166 75.7189 64.7194ZM77.6096 59.2076C77.2731 59.3518 76.7444 59.5441 76.0554 60.4574L76.2156 60.6817C76.6162 60.3132 76.9687 60.3132 76.9687 60.4414C76.9687 60.7298 77.0969 61.0021 77.3372 61.2265C77.8499 61.6591 78.587 61.595 79.0196 61.0983C79.4522 60.6176 79.4041 59.8485 78.9074 59.4159C78.5549 59.1275 77.9461 59.0634 77.6096 59.2076Z"/>
<path d="M81.7497 61.8193C82.1662 61.5309 82.2784 60.9701 81.99 60.5535C81.8458 60.3452 81.6375 60.2331 81.3972 60.201C81.317 60.201 81.3331 60.0408 81.5734 59.8485L81.4613 59.5922C80.7723 60.0087 80.58 60.3773 80.4358 60.6176C80.2756 60.89 80.2916 61.2745 80.4839 61.579C80.7723 61.9955 81.3331 62.0917 81.7497 61.8193ZM86.6846 65.841C85.8995 65.841 85.9155 64.7194 85.9155 64.7194V62.332C85.9155 60.4414 85.3387 59.1275 83.2398 59.1275C83.2398 59.1275 82.6629 59.0955 82.0541 59.3038L82.1662 59.5441C83.1276 59.2557 83.8967 60.0728 83.8967 61.579V62.5724C81.0927 63.2773 79.7468 63.4376 79.7468 65.184C79.7468 66.8183 81.5894 66.8183 81.5894 66.8183C82.3745 66.8183 83.0635 66.4338 83.4961 66.0332L83.3038 65.7608C83.1757 65.8249 83.0154 65.841 82.8392 65.841C81.7977 65.841 81.7977 64.7835 81.7977 64.7835C81.7977 63.9663 82.3265 63.2133 83.8967 62.8608V65.3763C83.8967 66.8183 85.515 66.8183 85.515 66.8183C86.5244 66.8183 87.2614 66.1935 87.3896 65.6807L87.1172 65.5686C87.0211 65.841 86.6846 65.841 86.6846 65.841Z"/>
<path d="M92.0897 54.7694V55.0418C92.4422 55.1219 92.5704 55.3141 92.3781 55.3462C92.1378 55.3942 91.9295 55.5384 91.8173 55.7788C91.577 56.2595 91.7693 56.8203 92.2499 57.0606C92.7146 57.2849 93.2914 57.0926 93.5317 56.628C93.692 56.2915 93.6439 55.8269 93.4516 55.5384C93.3074 55.2981 92.7947 54.8815 92.0897 54.7694ZM91.4328 55.0257V54.7533C89.7024 54.8335 88.773 55.7788 88.773 59.2717H87.7316L87.7476 59.5441H88.773V64.8636C88.773 65.6807 88.757 66.2255 88.1482 66.4017V66.6741H91.4328V66.4017C90.856 66.2415 90.7759 65.7448 90.7759 64.8636V59.5441H92.4422L92.4903 59.2717H90.7759C90.7759 56.628 91.0162 55.3782 91.4328 55.0257Z"/>
<path d="M97.2007 65.6807C96.3995 65.6807 96.015 65.2161 96.015 64.3188V59.5441H97.8576L97.9217 59.2717H96.015V56.7882L94.0122 57.1247V59.2717H93.163L93.211 59.5441H94.0122V64.3669C94.0122 66.3056 94.7652 66.8183 96.031 66.8183C97.1045 66.8183 98.0819 66.0172 98.4023 65.2641L98.162 65.1199C98.0178 65.3603 97.6653 65.6807 97.2007 65.6807Z"/>
<path d="M106.941 55.6666V55.3942H101.83V55.6666C102.247 55.6666 102.792 55.6666 103.304 56.9645L107.326 66.6741H107.598L108.672 63.742L106.22 57.5252C106.22 57.5252 105.532 55.6666 106.941 55.6666ZM112.742 55.6666V55.3942H107.63V55.6666C108.047 55.6666 108.608 55.6666 109.105 56.9645L113.03 66.6741H113.302L114.424 63.774L112.021 57.5252C112.021 57.5252 111.3 55.6666 112.742 55.6666ZM114.616 55.6666C117.34 55.6666 115.818 59.4159 115.818 59.4159L116.074 59.496C117.548 56.0512 118.606 55.6666 119.343 55.6666V55.3942H114.616V55.6666Z"/>
<path d="M126.397 62.9729C126.397 60.9541 125.147 59.2877 122.904 59.1435V59.4319C123.786 59.5601 124.026 60.3773 124.026 62.9729C124.026 65.5686 123.786 66.3857 122.904 66.5139V66.8023C125.147 66.6581 126.397 64.9757 126.397 62.9729ZM121.126 62.9729C121.126 60.3773 121.366 59.5601 122.247 59.4319V59.1435C120.02 59.2877 118.771 60.9541 118.771 62.9729C118.771 64.9757 120.02 66.6581 122.247 66.8023V66.5139C121.366 66.3857 121.126 65.5686 121.126 62.9729Z"/>
<path d="M130.061 64.7194V59.1275L127.241 59.7684V60.0408C127.898 60.3773 128.042 60.6176 128.042 61.1624V64.7194C128.042 65.5526 128.026 66.2095 127.401 66.4017V66.6741H130.718V66.4017C130.141 66.2415 130.061 65.6166 130.061 64.7194ZM131.952 59.2076C131.615 59.3518 131.086 59.5441 130.397 60.4574L130.558 60.6817C130.958 60.3132 131.311 60.3132 131.311 60.4414C131.311 60.7298 131.439 61.0021 131.679 61.2265C132.192 61.6591 132.929 61.595 133.362 61.0983C133.794 60.6176 133.746 59.8485 133.25 59.4159C132.897 59.1275 132.288 59.0634 131.952 59.2076Z"/>
<path d="M136.787 64.7354V54.7213L133.983 55.3141V55.5865C134.624 55.8269 134.785 56.0672 134.785 56.628V64.7354C134.785 65.5526 134.753 66.2255 134.144 66.4017V66.6741H137.444V66.4017C136.867 66.2575 136.787 65.6166 136.787 64.7354ZM141.065 65.6006C141.065 65.6006 141.033 65.6006 138.662 62.2519C140.793 59.6242 142.427 59.5761 142.716 59.5441V59.2717H138.822V59.5441C140.905 59.48 138.614 61.8033 138.614 61.8033L137.108 63.4376C137.108 63.4376 137.524 64.0785 138.005 64.7835C139.079 66.3857 139.223 66.6741 140.328 66.6741H142.588V66.4017C142.315 66.3857 141.594 66.3377 141.065 65.6006Z"/>
<path d="M148.477 61.4027H148.75V59.6082C148.75 59.6082 148.045 59.1916 146.458 59.1435V59.4319C147.836 59.6082 148.285 60.89 148.477 61.4027ZM147.628 62.5243L146.01 61.5149C144.776 60.7298 144.984 59.6723 145.786 59.448V59.1435C144.424 59.2397 143.895 59.9286 143.895 59.9286C143.014 61.0823 143.43 62.3801 144.984 63.3254L146.603 64.3028C147.692 65.0238 147.66 66.2415 146.827 66.4979V66.8023C148.205 66.7062 148.734 65.9531 148.734 65.9531C149.535 64.7995 149.054 63.4055 147.628 62.5243ZM143.863 64.0625H143.59V66.0813C143.59 66.0813 144.44 66.7382 146.154 66.8183V66.5299C144.552 66.3216 144.087 64.6553 143.863 64.0625Z"/>
<path d="M152.953 64.7034V54.7213L150.149 55.3942V55.6666C150.79 55.907 150.95 56.0672 150.95 56.628V64.7034C150.95 65.5205 150.918 66.2095 150.309 66.3857V66.6741H153.61V66.3857C153.033 66.2415 152.953 65.5846 152.953 64.7034ZM157.616 64.7034V61.611C157.616 59.6883 156.879 59.1275 155.597 59.1275C154.812 59.1275 153.818 59.6723 153.273 60.3132L153.482 60.6496C153.738 60.4414 154.027 60.3292 154.283 60.3292C155.212 60.3292 155.629 60.7618 155.629 61.6751V64.7034C155.629 65.5205 155.597 66.2255 154.988 66.4017V66.6741H158.272V66.4017C157.712 66.2575 157.616 65.5846 157.616 64.7034Z"/>
<path d="M166.814 62.9729C166.814 60.9541 165.564 59.2877 163.321 59.1435V59.4319C164.202 59.5601 164.442 60.3773 164.442 62.9729C164.442 65.5686 164.202 66.3857 163.321 66.5139V66.8023C165.564 66.6581 166.814 64.9757 166.814 62.9729ZM161.542 62.9729C161.542 60.3773 161.782 59.5601 162.664 59.4319V59.1435C160.437 59.2877 159.187 60.9541 159.187 62.9729C159.187 64.9757 160.437 66.6581 162.664 66.8023V66.5139C161.782 66.3857 161.542 65.5686 161.542 62.9729Z"/>
<path d="M172.929 59.1275C172.176 59.1275 171.006 59.48 170.493 60.4253V59.1275L167.705 59.7684V60.0408C168.346 60.2811 168.507 60.3933 168.507 60.9381V69.0935C168.507 69.9107 168.474 70.4715 167.866 70.6477V70.9201H171.15V70.6477C170.589 70.5035 170.493 69.9908 170.493 69.0935V66.3216C170.894 66.594 171.439 66.7542 172.031 66.8023V66.5299C171.31 66.3857 170.605 65.8089 170.493 64.3829V61.4508C170.605 60.4894 171.182 59.7203 172.144 59.7203C173.441 59.7203 174.05 60.6016 174.05 63.1812C174.05 65.3763 173.634 66.3537 172.688 66.5299V66.8183C174.787 66.7062 176.342 65.5045 176.342 63.037C176.342 60.5215 174.739 59.1275 172.929 59.1275Z"/>
</mask>
<path d="M10.079 63.1972H9.80664C9.35801 65.7769 6.52202 66.2736 5.43249 66.3857V66.6741H10.079V63.1972ZM4.43909 57.0926C4.43909 55.939 5.24022 55.6666 5.92919 55.6666V55.3942H0.850037V55.6666C1.53901 55.6666 2.11582 56.1153 2.11582 57.0926V64.6072C2.11582 65.6968 1.66719 66.4017 0.978217 66.4017V66.6741H4.43909V57.0926Z" fill="#343434"/>
<path d="M15.7188 65.4564C14.6453 65.2161 13.8442 64.3989 13.716 62.8287H18.8112C18.8112 60.4414 17.8018 59.2397 15.6708 59.1435V59.4159C16.3758 59.6883 16.8564 60.8419 16.8564 62.5563H13.716C13.716 61.1944 14.2287 59.7203 15.0138 59.4159V59.1595C13.011 59.3198 11.6491 60.89 11.6491 63.005C11.6491 64.8796 13.0911 66.8183 15.1901 66.8183C17.3371 66.8183 18.2824 65.5526 18.5388 64.7194L18.2664 64.5752C17.8659 65.3282 16.5841 65.6487 15.7188 65.4564Z" fill="#343434"/>
<path d="M22.1345 61.8193C22.5511 61.5309 22.6632 60.9701 22.3748 60.5535C22.2306 60.3452 22.0223 60.2331 21.782 60.201C21.7019 60.201 21.7179 60.0408 21.9582 59.8485L21.8461 59.5922C21.1571 60.0087 20.9648 60.3773 20.8206 60.6176C20.6604 60.89 20.6764 61.2745 20.8687 61.579C21.1571 61.9955 21.7179 62.0917 22.1345 61.8193ZM27.0694 65.841C26.2843 65.841 26.3004 64.7194 26.3004 64.7194V62.332C26.3004 60.4414 25.7235 59.1275 23.6246 59.1275C23.6246 59.1275 23.0478 59.0955 22.4389 59.3038L22.5511 59.5441C23.5124 59.2557 24.2815 60.0728 24.2815 61.579V62.5724C21.4776 63.2773 20.1317 63.4376 20.1317 65.184C20.1317 66.8183 21.9743 66.8183 21.9743 66.8183C22.7594 66.8183 23.4483 66.4338 23.881 66.0332L23.6887 65.7608C23.5605 65.8249 23.4003 65.841 23.224 65.841C22.1826 65.841 22.1826 64.7835 22.1826 64.7835C22.1826 63.9663 22.7113 63.2133 24.2815 62.8608V65.3763C24.2815 66.8183 25.8998 66.8183 25.8998 66.8183C26.9092 66.8183 27.6463 66.1935 27.7744 65.6807L27.5021 65.5686C27.4059 65.841 27.0694 65.841 27.0694 65.841Z" fill="#343434"/>
<path d="M32.2342 65.6807C31.4331 65.6807 31.0485 65.2161 31.0485 64.3188V59.5441H32.8911L32.9552 59.2717H31.0485V56.7882L29.0457 57.1247V59.2717H28.1965L28.2446 59.5441H29.0457V64.3669C29.0457 66.3056 29.7988 66.8183 31.0646 66.8183C32.1381 66.8183 33.1155 66.0172 33.4359 65.2641L33.1956 65.1199C33.0514 65.3603 32.6989 65.6807 32.2342 65.6807Z" fill="#343434"/>
<path d="M36.6487 64.7034V54.7213L33.8447 55.3942V55.6666C34.4856 55.907 34.6459 56.0672 34.6459 56.628V64.7034C34.6459 65.5205 34.6138 66.2095 34.005 66.3857V66.6741H37.3056V66.3857C36.7288 66.2415 36.6487 65.5846 36.6487 64.7034ZM41.3112 64.7034V61.611C41.3112 59.6883 40.5742 59.1275 39.2924 59.1275C38.5073 59.1275 37.5139 59.6723 36.9691 60.3132L37.1774 60.6496C37.4338 60.4414 37.7222 60.3292 37.9785 60.3292C38.9079 60.3292 39.3244 60.7618 39.3244 61.6751V64.7034C39.3244 65.5205 39.2924 66.2255 38.6835 66.4017V66.6741H41.9682V66.4017C41.4074 66.2575 41.3112 65.5846 41.3112 64.7034Z" fill="#343434"/>
<path d="M46.8721 65.4564C45.7986 65.2161 44.9974 64.3989 44.8692 62.8287H49.9644C49.9644 60.4414 48.955 59.2397 46.824 59.1435V59.4159C47.529 59.6883 48.0097 60.8419 48.0097 62.5563H44.8692C44.8692 61.1944 45.382 59.7203 46.1671 59.4159V59.1595C44.1643 59.3198 42.8023 60.89 42.8023 63.005C42.8023 64.8796 44.2444 66.8183 46.3433 66.8183C48.4903 66.8183 49.4357 65.5526 49.692 64.7194L49.4197 64.5752C49.0191 65.3282 47.7373 65.6487 46.8721 65.4564Z" fill="#343434"/>
<path d="M53.6723 64.7194V59.1275L50.8523 59.7684V60.0408C51.5092 60.3773 51.6534 60.6176 51.6534 61.1624V64.7194C51.6534 65.5526 51.6374 66.2095 51.0125 66.4017V66.6741H54.3292V66.4017C53.7524 66.2415 53.6723 65.6166 53.6723 64.7194ZM55.5629 59.2076C55.2265 59.3518 54.6977 59.5441 54.0087 60.4574L54.169 60.6817C54.5695 60.3132 54.922 60.3132 54.922 60.4414C54.922 60.7298 55.0502 61.0021 55.2905 61.2265C55.8033 61.6591 56.5403 61.595 56.9729 61.0983C57.4055 60.6176 57.3575 59.8485 56.8608 59.4159C56.5083 59.1275 55.8994 59.0634 55.5629 59.2076Z" fill="#343434"/>
<path d="M71.5286 63.3094C71.1441 64.8956 70.0225 66.2736 68.3722 66.5139V66.8023C69.8303 66.7703 70.9518 66.5299 72.0253 65.8249L71.801 63.3094H71.5286ZM68.3722 55.5545C69.8783 55.7467 70.7115 56.7882 71.5286 58.743H71.801L72.0253 56.2274C71.1121 55.4904 69.8142 55.2981 68.3722 55.25V55.5545ZM62.3157 61.0342C62.3157 64.0625 64.2384 66.562 67.3788 66.8023V66.5139C65.9528 66.2896 65.1997 64.9918 65.1997 61.0342C65.1997 57.0766 65.9207 55.7788 67.3788 55.5545V55.2661C64.2384 55.5064 62.3157 58.0059 62.3157 61.0342Z" fill="#343434"/>
<path d="M75.7189 64.7194V59.1275L72.8989 59.7684V60.0408C73.5559 60.3773 73.7001 60.6176 73.7001 61.1624V64.7194C73.7001 65.5526 73.6841 66.2095 73.0592 66.4017V66.6741H76.3758V66.4017C75.799 66.2415 75.7189 65.6166 75.7189 64.7194ZM77.6096 59.2076C77.2731 59.3518 76.7444 59.5441 76.0554 60.4574L76.2156 60.6817C76.6162 60.3132 76.9687 60.3132 76.9687 60.4414C76.9687 60.7298 77.0969 61.0021 77.3372 61.2265C77.8499 61.6591 78.587 61.595 79.0196 61.0983C79.4522 60.6176 79.4041 59.8485 78.9074 59.4159C78.5549 59.1275 77.9461 59.0634 77.6096 59.2076Z" fill="#343434"/>
<path d="M81.7497 61.8193C82.1662 61.5309 82.2784 60.9701 81.99 60.5535C81.8458 60.3452 81.6375 60.2331 81.3972 60.201C81.317 60.201 81.3331 60.0408 81.5734 59.8485L81.4613 59.5922C80.7723 60.0087 80.58 60.3773 80.4358 60.6176C80.2756 60.89 80.2916 61.2745 80.4839 61.579C80.7723 61.9955 81.3331 62.0917 81.7497 61.8193ZM86.6846 65.841C85.8995 65.841 85.9155 64.7194 85.9155 64.7194V62.332C85.9155 60.4414 85.3387 59.1275 83.2398 59.1275C83.2398 59.1275 82.6629 59.0955 82.0541 59.3038L82.1662 59.5441C83.1276 59.2557 83.8967 60.0728 83.8967 61.579V62.5724C81.0927 63.2773 79.7468 63.4376 79.7468 65.184C79.7468 66.8183 81.5894 66.8183 81.5894 66.8183C82.3745 66.8183 83.0635 66.4338 83.4961 66.0332L83.3038 65.7608C83.1757 65.8249 83.0154 65.841 82.8392 65.841C81.7977 65.841 81.7977 64.7835 81.7977 64.7835C81.7977 63.9663 82.3265 63.2133 83.8967 62.8608V65.3763C83.8967 66.8183 85.515 66.8183 85.515 66.8183C86.5244 66.8183 87.2614 66.1935 87.3896 65.6807L87.1172 65.5686C87.0211 65.841 86.6846 65.841 86.6846 65.841Z" fill="#343434"/>
<path d="M92.0897 54.7694V55.0418C92.4422 55.1219 92.5704 55.3141 92.3781 55.3462C92.1378 55.3942 91.9295 55.5384 91.8173 55.7788C91.577 56.2595 91.7693 56.8203 92.2499 57.0606C92.7146 57.2849 93.2914 57.0926 93.5317 56.628C93.692 56.2915 93.6439 55.8269 93.4516 55.5384C93.3074 55.2981 92.7947 54.8815 92.0897 54.7694ZM91.4328 55.0257V54.7533C89.7024 54.8335 88.773 55.7788 88.773 59.2717H87.7316L87.7476 59.5441H88.773V64.8636C88.773 65.6807 88.757 66.2255 88.1482 66.4017V66.6741H91.4328V66.4017C90.856 66.2415 90.7759 65.7448 90.7759 64.8636V59.5441H92.4422L92.4903 59.2717H90.7759C90.7759 56.628 91.0162 55.3782 91.4328 55.0257Z" fill="#343434"/>
<path d="M97.2007 65.6807C96.3995 65.6807 96.015 65.2161 96.015 64.3188V59.5441H97.8576L97.9217 59.2717H96.015V56.7882L94.0122 57.1247V59.2717H93.163L93.211 59.5441H94.0122V64.3669C94.0122 66.3056 94.7652 66.8183 96.031 66.8183C97.1045 66.8183 98.0819 66.0172 98.4023 65.2641L98.162 65.1199C98.0178 65.3603 97.6653 65.6807 97.2007 65.6807Z" fill="#343434"/>
<path d="M106.941 55.6666V55.3942H101.83V55.6666C102.247 55.6666 102.792 55.6666 103.304 56.9645L107.326 66.6741H107.598L108.672 63.742L106.22 57.5252C106.22 57.5252 105.532 55.6666 106.941 55.6666ZM112.742 55.6666V55.3942H107.63V55.6666C108.047 55.6666 108.608 55.6666 109.105 56.9645L113.03 66.6741H113.302L114.424 63.774L112.021 57.5252C112.021 57.5252 111.3 55.6666 112.742 55.6666ZM114.616 55.6666C117.34 55.6666 115.818 59.4159 115.818 59.4159L116.074 59.496C117.548 56.0512 118.606 55.6666 119.343 55.6666V55.3942H114.616V55.6666Z" fill="#343434"/>
<path d="M126.397 62.9729C126.397 60.9541 125.147 59.2877 122.904 59.1435V59.4319C123.786 59.5601 124.026 60.3773 124.026 62.9729C124.026 65.5686 123.786 66.3857 122.904 66.5139V66.8023C125.147 66.6581 126.397 64.9757 126.397 62.9729ZM121.126 62.9729C121.126 60.3773 121.366 59.5601 122.247 59.4319V59.1435C120.02 59.2877 118.771 60.9541 118.771 62.9729C118.771 64.9757 120.02 66.6581 122.247 66.8023V66.5139C121.366 66.3857 121.126 65.5686 121.126 62.9729Z" fill="#343434"/>
<path d="M130.061 64.7194V59.1275L127.241 59.7684V60.0408C127.898 60.3773 128.042 60.6176 128.042 61.1624V64.7194C128.042 65.5526 128.026 66.2095 127.401 66.4017V66.6741H130.718V66.4017C130.141 66.2415 130.061 65.6166 130.061 64.7194ZM131.952 59.2076C131.615 59.3518 131.086 59.5441 130.397 60.4574L130.558 60.6817C130.958 60.3132 131.311 60.3132 131.311 60.4414C131.311 60.7298 131.439 61.0021 131.679 61.2265C132.192 61.6591 132.929 61.595 133.362 61.0983C133.794 60.6176 133.746 59.8485 133.25 59.4159C132.897 59.1275 132.288 59.0634 131.952 59.2076Z" fill="#343434"/>
<path d="M136.787 64.7354V54.7213L133.983 55.3141V55.5865C134.624 55.8269 134.785 56.0672 134.785 56.628V64.7354C134.785 65.5526 134.753 66.2255 134.144 66.4017V66.6741H137.444V66.4017C136.867 66.2575 136.787 65.6166 136.787 64.7354ZM141.065 65.6006C141.065 65.6006 141.033 65.6006 138.662 62.2519C140.793 59.6242 142.427 59.5761 142.716 59.5441V59.2717H138.822V59.5441C140.905 59.48 138.614 61.8033 138.614 61.8033L137.108 63.4376C137.108 63.4376 137.524 64.0785 138.005 64.7835C139.079 66.3857 139.223 66.6741 140.328 66.6741H142.588V66.4017C142.315 66.3857 141.594 66.3377 141.065 65.6006Z" fill="#343434"/>
<path d="M148.477 61.4027H148.75V59.6082C148.75 59.6082 148.045 59.1916 146.458 59.1435V59.4319C147.836 59.6082 148.285 60.89 148.477 61.4027ZM147.628 62.5243L146.01 61.5149C144.776 60.7298 144.984 59.6723 145.786 59.448V59.1435C144.424 59.2397 143.895 59.9286 143.895 59.9286C143.014 61.0823 143.43 62.3801 144.984 63.3254L146.603 64.3028C147.692 65.0238 147.66 66.2415 146.827 66.4979V66.8023C148.205 66.7062 148.734 65.9531 148.734 65.9531C149.535 64.7995 149.054 63.4055 147.628 62.5243ZM143.863 64.0625H143.59V66.0813C143.59 66.0813 144.44 66.7382 146.154 66.8183V66.5299C144.552 66.3216 144.087 64.6553 143.863 64.0625Z" fill="#343434"/>
<path d="M152.953 64.7034V54.7213L150.149 55.3942V55.6666C150.79 55.907 150.95 56.0672 150.95 56.628V64.7034C150.95 65.5205 150.918 66.2095 150.309 66.3857V66.6741H153.61V66.3857C153.033 66.2415 152.953 65.5846 152.953 64.7034ZM157.616 64.7034V61.611C157.616 59.6883 156.879 59.1275 155.597 59.1275C154.812 59.1275 153.818 59.6723 153.273 60.3132L153.482 60.6496C153.738 60.4414 154.027 60.3292 154.283 60.3292C155.212 60.3292 155.629 60.7618 155.629 61.6751V64.7034C155.629 65.5205 155.597 66.2255 154.988 66.4017V66.6741H158.272V66.4017C157.712 66.2575 157.616 65.5846 157.616 64.7034Z" fill="#343434"/>
<path d="M166.814 62.9729C166.814 60.9541 165.564 59.2877 163.321 59.1435V59.4319C164.202 59.5601 164.442 60.3773 164.442 62.9729C164.442 65.5686 164.202 66.3857 163.321 66.5139V66.8023C165.564 66.6581 166.814 64.9757 166.814 62.9729ZM161.542 62.9729C161.542 60.3773 161.782 59.5601 162.664 59.4319V59.1435C160.437 59.2877 159.187 60.9541 159.187 62.9729C159.187 64.9757 160.437 66.6581 162.664 66.8023V66.5139C161.782 66.3857 161.542 65.5686 161.542 62.9729Z" fill="#343434"/>
<path d="M172.929 59.1275C172.176 59.1275 171.006 59.48 170.493 60.4253V59.1275L167.705 59.7684V60.0408C168.346 60.2811 168.507 60.3933 168.507 60.9381V69.0935C168.507 69.9107 168.474 70.4715 167.866 70.6477V70.9201H171.15V70.6477C170.589 70.5035 170.493 69.9908 170.493 69.0935V66.3216C170.894 66.594 171.439 66.7542 172.031 66.8023V66.5299C171.31 66.3857 170.605 65.8089 170.493 64.3829V61.4508C170.605 60.4894 171.182 59.7203 172.144 59.7203C173.441 59.7203 174.05 60.6016 174.05 63.1812C174.05 65.3763 173.634 66.3537 172.688 66.5299V66.8183C174.787 66.7062 176.342 65.5045 176.342 63.037C176.342 60.5215 174.739 59.1275 172.929 59.1275Z" fill="#343434"/>
<path d="M10.079 63.1972H9.80664C9.35801 65.7769 6.52202 66.2736 5.43249 66.3857V66.6741H10.079V63.1972ZM4.43909 57.0926C4.43909 55.939 5.24022 55.6666 5.92919 55.6666V55.3942H0.850037V55.6666C1.53901 55.6666 2.11582 56.1153 2.11582 57.0926V64.6072C2.11582 65.6968 1.66719 66.4017 0.978217 66.4017V66.6741H4.43909V57.0926Z" stroke="black" stroke-width="0.4" mask="url(#path-1-outside-1_370_1468)"/>
<path d="M15.7188 65.4564C14.6453 65.2161 13.8442 64.3989 13.716 62.8287H18.8112C18.8112 60.4414 17.8018 59.2397 15.6708 59.1435V59.4159C16.3758 59.6883 16.8564 60.8419 16.8564 62.5563H13.716C13.716 61.1944 14.2287 59.7203 15.0138 59.4159V59.1595C13.011 59.3198 11.6491 60.89 11.6491 63.005C11.6491 64.8796 13.0911 66.8183 15.1901 66.8183C17.3371 66.8183 18.2824 65.5526 18.5388 64.7194L18.2664 64.5752C17.8659 65.3282 16.5841 65.6487 15.7188 65.4564Z" stroke="black" stroke-width="0.4" mask="url(#path-1-outside-1_370_1468)"/>
<path d="M22.1345 61.8193C22.5511 61.5309 22.6632 60.9701 22.3748 60.5535C22.2306 60.3452 22.0223 60.2331 21.782 60.201C21.7019 60.201 21.7179 60.0408 21.9582 59.8485L21.8461 59.5922C21.1571 60.0087 20.9648 60.3773 20.8206 60.6176C20.6604 60.89 20.6764 61.2745 20.8687 61.579C21.1571 61.9955 21.7179 62.0917 22.1345 61.8193ZM27.0694 65.841C26.2843 65.841 26.3004 64.7194 26.3004 64.7194V62.332C26.3004 60.4414 25.7235 59.1275 23.6246 59.1275C23.6246 59.1275 23.0478 59.0955 22.4389 59.3038L22.5511 59.5441C23.5124 59.2557 24.2815 60.0728 24.2815 61.579V62.5724C21.4776 63.2773 20.1317 63.4376 20.1317 65.184C20.1317 66.8183 21.9743 66.8183 21.9743 66.8183C22.7594 66.8183 23.4483 66.4338 23.881 66.0332L23.6887 65.7608C23.5605 65.8249 23.4003 65.841 23.224 65.841C22.1826 65.841 22.1826 64.7835 22.1826 64.7835C22.1826 63.9663 22.7113 63.2133 24.2815 62.8608V65.3763C24.2815 66.8183 25.8998 66.8183 25.8998 66.8183C26.9092 66.8183 27.6463 66.1935 27.7744 65.6807L27.5021 65.5686C27.4059 65.841 27.0694 65.841 27.0694 65.841Z" stroke="black" stroke-width="0.4" mask="url(#path-1-outside-1_370_1468)"/>
<path d="M32.2342 65.6807C31.4331 65.6807 31.0485 65.2161 31.0485 64.3188V59.5441H32.8911L32.9552 59.2717H31.0485V56.7882L29.0457 57.1247V59.2717H28.1965L28.2446 59.5441H29.0457V64.3669C29.0457 66.3056 29.7988 66.8183 31.0646 66.8183C32.1381 66.8183 33.1155 66.0172 33.4359 65.2641L33.1956 65.1199C33.0514 65.3603 32.6989 65.6807 32.2342 65.6807Z" stroke="black" stroke-width="0.4" mask="url(#path-1-outside-1_370_1468)"/>
<path d="M36.6487 64.7034V54.7213L33.8447 55.3942V55.6666C34.4856 55.907 34.6459 56.0672 34.6459 56.628V64.7034C34.6459 65.5205 34.6138 66.2095 34.005 66.3857V66.6741H37.3056V66.3857C36.7288 66.2415 36.6487 65.5846 36.6487 64.7034ZM41.3112 64.7034V61.611C41.3112 59.6883 40.5742 59.1275 39.2924 59.1275C38.5073 59.1275 37.5139 59.6723 36.9691 60.3132L37.1774 60.6496C37.4338 60.4414 37.7222 60.3292 37.9785 60.3292C38.9079 60.3292 39.3244 60.7618 39.3244 61.6751V64.7034C39.3244 65.5205 39.2924 66.2255 38.6835 66.4017V66.6741H41.9682V66.4017C41.4074 66.2575 41.3112 65.5846 41.3112 64.7034Z" stroke="black" stroke-width="0.4" mask="url(#path-1-outside-1_370_1468)"/>
<path d="M46.8721 65.4564C45.7986 65.2161 44.9974 64.3989 44.8692 62.8287H49.9644C49.9644 60.4414 48.955 59.2397 46.824 59.1435V59.4159C47.529 59.6883 48.0097 60.8419 48.0097 62.5563H44.8692C44.8692 61.1944 45.382 59.7203 46.1671 59.4159V59.1595C44.1643 59.3198 42.8023 60.89 42.8023 63.005C42.8023 64.8796 44.2444 66.8183 46.3433 66.8183C48.4903 66.8183 49.4357 65.5526 49.692 64.7194L49.4197 64.5752C49.0191 65.3282 47.7373 65.6487 46.8721 65.4564Z" stroke="black" stroke-width="0.4" mask="url(#path-1-outside-1_370_1468)"/>
<path d="M53.6723 64.7194V59.1275L50.8523 59.7684V60.0408C51.5092 60.3773 51.6534 60.6176 51.6534 61.1624V64.7194C51.6534 65.5526 51.6374 66.2095 51.0125 66.4017V66.6741H54.3292V66.4017C53.7524 66.2415 53.6723 65.6166 53.6723 64.7194ZM55.5629 59.2076C55.2265 59.3518 54.6977 59.5441 54.0087 60.4574L54.169 60.6817C54.5695 60.3132 54.922 60.3132 54.922 60.4414C54.922 60.7298 55.0502 61.0021 55.2905 61.2265C55.8033 61.6591 56.5403 61.595 56.9729 61.0983C57.4055 60.6176 57.3575 59.8485 56.8608 59.4159C56.5083 59.1275 55.8994 59.0634 55.5629 59.2076Z" stroke="black" stroke-width="0.4" mask="url(#path-1-outside-1_370_1468)"/>
<path d="M71.5286 63.3094C71.1441 64.8956 70.0225 66.2736 68.3722 66.5139V66.8023C69.8303 66.7703 70.9518 66.5299 72.0253 65.8249L71.801 63.3094H71.5286ZM68.3722 55.5545C69.8783 55.7467 70.7115 56.7882 71.5286 58.743H71.801L72.0253 56.2274C71.1121 55.4904 69.8142 55.2981 68.3722 55.25V55.5545ZM62.3157 61.0342C62.3157 64.0625 64.2384 66.562 67.3788 66.8023V66.5139C65.9528 66.2896 65.1997 64.9918 65.1997 61.0342C65.1997 57.0766 65.9207 55.7788 67.3788 55.5545V55.2661C64.2384 55.5064 62.3157 58.0059 62.3157 61.0342Z" stroke="black" stroke-width="0.4" mask="url(#path-1-outside-1_370_1468)"/>
<path d="M75.7189 64.7194V59.1275L72.8989 59.7684V60.0408C73.5559 60.3773 73.7001 60.6176 73.7001 61.1624V64.7194C73.7001 65.5526 73.6841 66.2095 73.0592 66.4017V66.6741H76.3758V66.4017C75.799 66.2415 75.7189 65.6166 75.7189 64.7194ZM77.6096 59.2076C77.2731 59.3518 76.7444 59.5441 76.0554 60.4574L76.2156 60.6817C76.6162 60.3132 76.9687 60.3132 76.9687 60.4414C76.9687 60.7298 77.0969 61.0021 77.3372 61.2265C77.8499 61.6591 78.587 61.595 79.0196 61.0983C79.4522 60.6176 79.4041 59.8485 78.9074 59.4159C78.5549 59.1275 77.9461 59.0634 77.6096 59.2076Z" stroke="black" stroke-width="0.4" mask="url(#path-1-outside-1_370_1468)"/>
<path d="M81.7497 61.8193C82.1662 61.5309 82.2784 60.9701 81.99 60.5535C81.8458 60.3452 81.6375 60.2331 81.3972 60.201C81.317 60.201 81.3331 60.0408 81.5734 59.8485L81.4613 59.5922C80.7723 60.0087 80.58 60.3773 80.4358 60.6176C80.2756 60.89 80.2916 61.2745 80.4839 61.579C80.7723 61.9955 81.3331 62.0917 81.7497 61.8193ZM86.6846 65.841C85.8995 65.841 85.9155 64.7194 85.9155 64.7194V62.332C85.9155 60.4414 85.3387 59.1275 83.2398 59.1275C83.2398 59.1275 82.6629 59.0955 82.0541 59.3038L82.1662 59.5441C83.1276 59.2557 83.8967 60.0728 83.8967 61.579V62.5724C81.0927 63.2773 79.7468 63.4376 79.7468 65.184C79.7468 66.8183 81.5894 66.8183 81.5894 66.8183C82.3745 66.8183 83.0635 66.4338 83.4961 66.0332L83.3038 65.7608C83.1757 65.8249 83.0154 65.841 82.8392 65.841C81.7977 65.841 81.7977 64.7835 81.7977 64.7835C81.7977 63.9663 82.3265 63.2133 83.8967 62.8608V65.3763C83.8967 66.8183 85.515 66.8183 85.515 66.8183C86.5244 66.8183 87.2614 66.1935 87.3896 65.6807L87.1172 65.5686C87.0211 65.841 86.6846 65.841 86.6846 65.841Z" stroke="black" stroke-width="0.4" mask="url(#path-1-outside-1_370_1468)"/>
<path d="M92.0897 54.7694V55.0418C92.4422 55.1219 92.5704 55.3141 92.3781 55.3462C92.1378 55.3942 91.9295 55.5384 91.8173 55.7788C91.577 56.2595 91.7693 56.8203 92.2499 57.0606C92.7146 57.2849 93.2914 57.0926 93.5317 56.628C93.692 56.2915 93.6439 55.8269 93.4516 55.5384C93.3074 55.2981 92.7947 54.8815 92.0897 54.7694ZM91.4328 55.0257V54.7533C89.7024 54.8335 88.773 55.7788 88.773 59.2717H87.7316L87.7476 59.5441H88.773V64.8636C88.773 65.6807 88.757 66.2255 88.1482 66.4017V66.6741H91.4328V66.4017C90.856 66.2415 90.7759 65.7448 90.7759 64.8636V59.5441H92.4422L92.4903 59.2717H90.7759C90.7759 56.628 91.0162 55.3782 91.4328 55.0257Z" stroke="black" stroke-width="0.4" mask="url(#path-1-outside-1_370_1468)"/>
<path d="M97.2007 65.6807C96.3995 65.6807 96.015 65.2161 96.015 64.3188V59.5441H97.8576L97.9217 59.2717H96.015V56.7882L94.0122 57.1247V59.2717H93.163L93.211 59.5441H94.0122V64.3669C94.0122 66.3056 94.7652 66.8183 96.031 66.8183C97.1045 66.8183 98.0819 66.0172 98.4023 65.2641L98.162 65.1199C98.0178 65.3603 97.6653 65.6807 97.2007 65.6807Z" stroke="black" stroke-width="0.4" mask="url(#path-1-outside-1_370_1468)"/>
<path d="M106.941 55.6666V55.3942H101.83V55.6666C102.247 55.6666 102.792 55.6666 103.304 56.9645L107.326 66.6741H107.598L108.672 63.742L106.22 57.5252C106.22 57.5252 105.532 55.6666 106.941 55.6666ZM112.742 55.6666V55.3942H107.63V55.6666C108.047 55.6666 108.608 55.6666 109.105 56.9645L113.03 66.6741H113.302L114.424 63.774L112.021 57.5252C112.021 57.5252 111.3 55.6666 112.742 55.6666ZM114.616 55.6666C117.34 55.6666 115.818 59.4159 115.818 59.4159L116.074 59.496C117.548 56.0512 118.606 55.6666 119.343 55.6666V55.3942H114.616V55.6666Z" stroke="black" stroke-width="0.4" mask="url(#path-1-outside-1_370_1468)"/>
<path d="M126.397 62.9729C126.397 60.9541 125.147 59.2877 122.904 59.1435V59.4319C123.786 59.5601 124.026 60.3773 124.026 62.9729C124.026 65.5686 123.786 66.3857 122.904 66.5139V66.8023C125.147 66.6581 126.397 64.9757 126.397 62.9729ZM121.126 62.9729C121.126 60.3773 121.366 59.5601 122.247 59.4319V59.1435C120.02 59.2877 118.771 60.9541 118.771 62.9729C118.771 64.9757 120.02 66.6581 122.247 66.8023V66.5139C121.366 66.3857 121.126 65.5686 121.126 62.9729Z" stroke="black" stroke-width="0.4" mask="url(#path-1-outside-1_370_1468)"/>
<path d="M130.061 64.7194V59.1275L127.241 59.7684V60.0408C127.898 60.3773 128.042 60.6176 128.042 61.1624V64.7194C128.042 65.5526 128.026 66.2095 127.401 66.4017V66.6741H130.718V66.4017C130.141 66.2415 130.061 65.6166 130.061 64.7194ZM131.952 59.2076C131.615 59.3518 131.086 59.5441 130.397 60.4574L130.558 60.6817C130.958 60.3132 131.311 60.3132 131.311 60.4414C131.311 60.7298 131.439 61.0021 131.679 61.2265C132.192 61.6591 132.929 61.595 133.362 61.0983C133.794 60.6176 133.746 59.8485 133.25 59.4159C132.897 59.1275 132.288 59.0634 131.952 59.2076Z" stroke="black" stroke-width="0.4" mask="url(#path-1-outside-1_370_1468)"/>
<path d="M136.787 64.7354V54.7213L133.983 55.3141V55.5865C134.624 55.8269 134.785 56.0672 134.785 56.628V64.7354C134.785 65.5526 134.753 66.2255 134.144 66.4017V66.6741H137.444V66.4017C136.867 66.2575 136.787 65.6166 136.787 64.7354ZM141.065 65.6006C141.065 65.6006 141.033 65.6006 138.662 62.2519C140.793 59.6242 142.427 59.5761 142.716 59.5441V59.2717H138.822V59.5441C140.905 59.48 138.614 61.8033 138.614 61.8033L137.108 63.4376C137.108 63.4376 137.524 64.0785 138.005 64.7835C139.079 66.3857 139.223 66.6741 140.328 66.6741H142.588V66.4017C142.315 66.3857 141.594 66.3377 141.065 65.6006Z" stroke="black" stroke-width="0.4" mask="url(#path-1-outside-1_370_1468)"/>
<path d="M148.477 61.4027H148.75V59.6082C148.75 59.6082 148.045 59.1916 146.458 59.1435V59.4319C147.836 59.6082 148.285 60.89 148.477 61.4027ZM147.628 62.5243L146.01 61.5149C144.776 60.7298 144.984 59.6723 145.786 59.448V59.1435C144.424 59.2397 143.895 59.9286 143.895 59.9286C143.014 61.0823 143.43 62.3801 144.984 63.3254L146.603 64.3028C147.692 65.0238 147.66 66.2415 146.827 66.4979V66.8023C148.205 66.7062 148.734 65.9531 148.734 65.9531C149.535 64.7995 149.054 63.4055 147.628 62.5243ZM143.863 64.0625H143.59V66.0813C143.59 66.0813 144.44 66.7382 146.154 66.8183V66.5299C144.552 66.3216 144.087 64.6553 143.863 64.0625Z" stroke="black" stroke-width="0.4" mask="url(#path-1-outside-1_370_1468)"/>
<path d="M152.953 64.7034V54.7213L150.149 55.3942V55.6666C150.79 55.907 150.95 56.0672 150.95 56.628V64.7034C150.95 65.5205 150.918 66.2095 150.309 66.3857V66.6741H153.61V66.3857C153.033 66.2415 152.953 65.5846 152.953 64.7034ZM157.616 64.7034V61.611C157.616 59.6883 156.879 59.1275 155.597 59.1275C154.812 59.1275 153.818 59.6723 153.273 60.3132L153.482 60.6496C153.738 60.4414 154.027 60.3292 154.283 60.3292C155.212 60.3292 155.629 60.7618 155.629 61.6751V64.7034C155.629 65.5205 155.597 66.2255 154.988 66.4017V66.6741H158.272V66.4017C157.712 66.2575 157.616 65.5846 157.616 64.7034Z" stroke="black" stroke-width="0.4" mask="url(#path-1-outside-1_370_1468)"/>
<path d="M166.814 62.9729C166.814 60.9541 165.564 59.2877 163.321 59.1435V59.4319C164.202 59.5601 164.442 60.3773 164.442 62.9729C164.442 65.5686 164.202 66.3857 163.321 66.5139V66.8023C165.564 66.6581 166.814 64.9757 166.814 62.9729ZM161.542 62.9729C161.542 60.3773 161.782 59.5601 162.664 59.4319V59.1435C160.437 59.2877 159.187 60.9541 159.187 62.9729C159.187 64.9757 160.437 66.6581 162.664 66.8023V66.5139C161.782 66.3857 161.542 65.5686 161.542 62.9729Z" stroke="black" stroke-width="0.4" mask="url(#path-1-outside-1_370_1468)"/>
<path d="M172.929 59.1275C172.176 59.1275 171.006 59.48 170.493 60.4253V59.1275L167.705 59.7684V60.0408C168.346 60.2811 168.507 60.3933 168.507 60.9381V69.0935C168.507 69.9107 168.474 70.4715 167.866 70.6477V70.9201H171.15V70.6477C170.589 70.5035 170.493 69.9908 170.493 69.0935V66.3216C170.894 66.594 171.439 66.7542 172.031 66.8023V66.5299C171.31 66.3857 170.605 65.8089 170.493 64.3829V61.4508C170.605 60.4894 171.182 59.7203 172.144 59.7203C173.441 59.7203 174.05 60.6016 174.05 63.1812C174.05 65.3763 173.634 66.3537 172.688 66.5299V66.8183C174.787 66.7062 176.342 65.5045 176.342 63.037C176.342 60.5215 174.739 59.1275 172.929 59.1275Z" stroke="black" stroke-width="0.4" mask="url(#path-1-outside-1_370_1468)"/>
<path d="M22.2998 40.5343L22.213 40.5458V40.6334V41.4209V41.5247L22.3166 41.5209C26.9442 41.3516 30.0569 40.5037 33.6753 38.0726L33.7233 38.0403L33.7192 37.9825L33.1005 29.2636L33.0939 29.1707H33.0007H32.2695H32.1786L32.1699 29.2611C31.4994 36.246 26.9227 39.9216 22.2998 40.5343ZM32.1712 12.9766L32.1868 13.0578H32.2695H33.0007H33.0938L33.1005 12.9649L33.7192 4.30222L33.7229 4.25039L33.6826 4.21757C30.62 1.72203 26.9371 0.932767 22.3154 0.820043L22.213 0.817545V0.920013V1.65128V1.73942L22.3004 1.75049C24.5025 2.02924 26.6043 2.93442 28.3375 4.71638C30.0715 6.49906 31.4426 9.16552 32.1712 12.9766ZM17.8605 41.4643L17.9691 41.4737V41.3647V40.6334V40.5456L17.8821 40.5343C15.3169 40.1997 12.8291 39.1149 10.978 36.2478C9.12285 33.3745 7.90016 28.7002 7.90016 21.1705C7.90016 13.7532 9.09473 9.07859 10.9362 6.17684C12.7737 3.28138 15.2618 2.14119 17.8818 1.80673L17.9691 1.79558V1.70753V0.976264V0.867242L17.8605 0.876636C12.6347 1.3286 8.29228 3.43408 5.25677 6.91537C2.22159 10.3963 0.500006 15.2446 0.500006 21.1705C0.500006 27.0403 2.22169 31.8884 5.25664 35.3832C8.29194 38.8784 12.6343 41.0123 17.8605 41.4643ZM51.1642 2.20129H51.2641V2.10129V1.37002V1.27002H51.1642H37.1576H37.0576V1.37002V2.10129V2.20129H37.1576C38.3829 2.20129 39.3332 2.46605 39.9807 3.17426C40.6306 3.88508 40.9952 5.06364 40.9952 6.9389V27.4706C40.9952 32.0768 42.451 35.6055 44.8285 37.983C47.2055 40.36 50.4949 41.5772 54.1455 41.5772C57.6492 41.5772 61.1062 40.6449 63.6818 38.4382C66.2602 36.2292 67.9428 32.7538 67.9145 27.6951L67.914 27.5956H67.8145H67.0833H66.9833V27.6956C66.9833 31.2752 65.893 34.0614 64.0997 35.952C62.3066 37.8424 59.8027 38.8459 56.958 38.8459C53.9145 38.8459 51.3688 37.8552 49.5838 36.0007C47.7985 34.1459 46.7641 31.4166 46.7641 27.9206V7.0514C46.7641 4.84193 47.2817 3.64112 48.0709 2.98688C48.8639 2.32939 49.9562 2.20129 51.1642 2.20129ZM60.3456 2.10129V2.20215L60.4465 2.20129C62.0654 2.18733 63.2767 2.48749 64.1849 3.02075C65.092 3.55331 65.7049 4.3231 66.1199 5.2636C66.9534 7.15298 66.9833 9.71717 66.9833 12.3953V12.4953H67.0833H67.8145H67.9145V12.3953C67.9145 12.2782 67.9144 12.1613 67.9144 12.0447C67.9135 10.8289 67.9127 9.64117 68.003 8.5326C68.1019 7.31778 68.3097 6.206 68.7421 5.26499C69.1735 4.32631 69.8289 3.55625 70.828 3.02272C71.8291 2.48812 73.1822 2.1873 75.0139 2.20129L75.1147 2.20205V2.10129V1.37002V1.27002H75.0147H60.4456H60.3456V1.37002V2.10129ZM94.7093 1.86237L94.7925 1.84822V1.76378V0.976264V0.86588L94.6827 0.87675C89.2542 1.41394 85.2203 3.93191 82.5456 7.63268C79.8725 11.3311 78.5609 16.2048 78.5609 21.4517C78.5609 26.6988 79.8726 31.4467 82.5466 35.012C85.2223 38.5797 89.2565 40.9555 94.6832 41.4643L94.7925 41.4745V41.3647V40.5772V40.4911L94.7073 40.4783C91.922 40.0605 89.5595 38.7265 87.8886 35.7955C86.2137 32.8575 85.2298 28.3077 85.2298 21.4517C85.2298 14.6243 86.2136 9.96087 87.8895 6.88835C89.5622 3.82181 91.9264 2.33545 94.7093 1.86237ZM99.0899 0.876745L98.9801 0.865936V0.976264V1.76378V1.84822L99.0633 1.86237C101.847 2.33554 104.225 3.80825 105.911 6.86764C107.601 9.93301 108.599 14.5963 108.599 21.4517C108.599 28.3075 107.601 32.8573 105.912 35.7952C104.227 38.7263 101.851 40.0605 99.0653 40.4783L98.9801 40.4911V40.5772V41.3647V41.4744L99.0894 41.4643C104.544 40.9556 108.606 38.5941 111.303 35.0335C113.998 31.4751 115.324 26.727 115.324 21.4517C115.324 16.2046 113.998 11.3308 111.304 7.63238C108.608 3.93168 104.546 1.4139 99.0899 0.876745ZM120.809 1.27002H120.709V1.37002V2.10129V2.20129H120.809C122.037 2.20129 122.988 2.43908 123.635 3.08608C124.283 3.73351 124.646 4.812 124.646 6.54514V34.952C124.646 36.8541 124.268 38.1491 123.607 38.9674C122.949 39.7814 121.997 40.1397 120.809 40.1397H120.709V40.2397V40.9709V41.0709H120.809H134.478H134.578V40.9709V40.2397V40.1397H134.478C133.318 40.1397 132.366 39.7817 131.701 38.967C131.032 38.1485 130.64 36.8533 130.64 34.952V6.54514C130.64 4.81294 131.018 3.73421 131.672 3.08645C132.327 2.43884 133.279 2.20129 134.478 2.20129H134.578V2.10129V1.37002V1.27002H134.478H120.809ZM155.575 1.86237L155.658 1.84822V1.76378V0.976264V0.86588L155.548 0.87675C150.12 1.41394 146.086 3.93191 143.411 7.63268C140.738 11.3311 139.426 16.2048 139.426 21.4517C139.426 26.6988 140.738 31.4467 143.412 35.012C146.088 38.5797 150.122 40.9555 155.549 41.4643L155.658 41.4745V41.3647V40.5772V40.4911L155.573 40.4783C152.788 40.0605 150.425 38.7265 148.754 35.7955C147.079 32.8575 146.095 28.3077 146.095 21.4517C146.095 14.6243 147.079 9.96087 148.755 6.88835C150.428 3.82181 152.792 2.33545 155.575 1.86237ZM159.955 0.876745L159.846 0.865936V0.976264V1.76378V1.84822L159.929 1.86237C162.712 2.33554 165.091 3.80825 166.777 6.86764C168.467 9.93301 169.465 14.5963 169.465 21.4517C169.465 28.3075 168.467 32.8573 166.778 35.7952C165.093 38.7263 162.716 40.0605 159.931 40.4783L159.846 40.4911V40.5772V41.3647V41.4744L159.955 41.4643C165.409 40.9556 169.472 38.5941 172.169 35.0335C174.864 31.4751 176.19 26.727 176.19 21.4517C176.19 16.2046 174.864 11.3308 172.17 7.63238C169.474 3.93168 165.412 1.4139 159.955 0.876745Z" fill="#343434" stroke="black" stroke-width="0.2"/>
</svg>
