<svg width="668" height="449" viewBox="0 0 668 449" fill="none" xmlns="http://www.w3.org/2000/svg">
<path fill-rule="evenodd" clip-rule="evenodd" d="M190.117 2.5683C209.422 5.8473 225.486 11.5293 238.643 19.7293L246.063 24.3543L251.839 20.4343C270.875 7.5143 298.379 -1.08869 305.574 3.62531L308.115 5.29028L308.08 74.5173C308.053 126.946 307.749 144.254 306.83 145.846C304.298 150.228 259.801 205.59 248.793 218.054C240.197 227.787 223.843 245.303 223.598 245.041C223.445 244.878 223.835 242.044 224.464 238.744C226.211 229.582 226.041 107.205 224.261 92.7443C219.242 51.9683 203.153 25.3203 177.79 15.7743C159.026 8.71129 134.91 10.8673 120.309 20.9143C102.334 33.2823 92.6509 57.5113 88.0059 101.744C86.1129 119.761 86.3729 177.744 88.4369 197.879C94.8089 260.057 111.896 289.584 145.644 296.733C176.563 303.282 205.441 287.242 249.165 239.23C267.037 219.606 269.52 216.574 329.006 141.744C389.565 65.5633 428.207 28.3583 464.615 11.1773C486.219 0.981307 501.902 -1.39672 529.691 1.30728C583.509 6.54428 622.978 28.1283 646.103 64.9673C660.337 87.6433 666.863 112.06 667.825 146.244C668.436 167.965 666.91 184.335 662.63 201.953C649.765 254.912 616.503 293.155 570.276 308.139C554.689 313.191 544.141 314.562 525.317 313.985C511.701 313.567 506.767 312.991 498.615 310.868C480.138 306.056 463.742 298.391 452.492 289.307C449.384 286.797 446.003 284.127 444.978 283.372C443.167 282.038 443.115 283.518 443.123 336.872C443.128 367.274 443.583 395.758 444.144 400.744C446.241 419.366 451.215 428.452 462.455 434.191L469.206 437.638L468.615 447.744L200.115 448.251V437.479L205.579 434.805C215.561 429.922 221.552 420.662 224.196 406.031C224.889 402.193 225.53 380.596 225.84 350.586L226.348 301.427L234.482 295.664C252.437 282.943 279.47 257.921 297.867 236.994C302.582 231.632 306.816 227.244 307.277 227.244C307.738 227.244 308.115 265.435 308.115 312.113C308.115 384.016 308.35 398.33 309.654 405.807C312.369 421.376 317.284 429.233 327.434 434.229L333.64 437.285L338.627 435.588C342.054 434.423 345.354 432.148 349.172 428.318C353.766 423.709 355.107 421.532 356.911 415.744C358.111 411.894 359.548 404.931 360.104 400.27C360.731 395.016 361.115 347.674 361.115 275.672V159.548L376.639 139.646C400.444 109.129 420.094 86.2603 436.918 69.4943C445.334 61.1073 452.62 54.2443 453.108 54.2443C453.596 54.2443 452.884 57.5063 451.524 61.4943C450.165 65.4823 448.445 71.4443 447.701 74.7443C443.793 92.0943 443.615 96.0993 443.615 166.744C443.615 239.429 443.62 239.527 448.318 254.244C454.867 274.76 468.118 288.864 486.537 294.923C493.605 297.248 496.303 297.588 508.115 297.646C518.473 297.696 523.001 297.287 527.572 295.889C557.662 286.688 572.513 260.734 579.728 204.744C581.865 188.161 582.75 127.982 581.161 107.321C577.339 57.6283 565.516 29.1623 544.177 18.2763C529.068 10.5673 510.331 9.5463 491.338 15.3963C469.902 21.9993 447.49 37.7293 421.569 64.3663C403.207 83.2343 386.401 103.328 353.086 146.244C305.393 207.682 278.543 238.784 254.862 260.022C211.333 299.062 179.091 314.244 139.711 314.244C101.83 314.244 69.6889 300.472 43.6099 273.067C18.5669 246.751 4.43489 211.745 1.09389 167.744C-1.98711 127.168 6.42087 89.5863 24.7809 61.8723C48.3909 26.2333 87.8719 5.87829 143.115 0.864289C151.92 0.0652885 181.752 1.1463 190.117 2.5683ZM383.753 4.77231C392.844 7.36531 412.665 16.6283 417.099 20.3563L419.584 22.4443L416.599 24.9233C405.575 34.0813 386.955 51.9473 375.359 64.4943C367.862 72.6073 361.59 79.2443 361.421 79.2443C361.253 79.2443 361.115 62.6263 361.115 42.3153C361.115 10.0773 361.315 5.18731 362.686 3.81531C365.038 1.46431 373.503 1.84831 383.753 4.77231Z" fill="#343434"/>
</svg>
